<svg width="261" height="95" viewBox="0 0 261 95" fill="none" xmlns="http://www.w3.org/2000/svg">
<path d="M239.858 56.4876C238.252 46.9467 251.502 35.0251 258.921 39.5649C261.819 41.4842 258.681 44.9721 255.23 42.1485C251.705 39.2881 247.572 46.8544 247.166 47.7402C241.592 60.0125 249.159 63.8325 256.005 55.8602C256.596 55.0297 258.238 55.0667 258.515 55.8602V55.8971C258.7 56.4138 258.534 56.9859 258.091 57.2996C258.091 57.2996 252.241 63.7587 245.283 62.1532C242.478 61.4888 240.319 59.2927 239.858 56.4876Z" fill="#004C97"/>
<path d="M228.785 39.934C229.284 39.6756 230.077 39.325 231.092 39.0666C231.535 38.9559 235.411 38.0147 236.61 39.6387C237.164 40.3953 236.961 41.4657 236.795 42.0562C235.189 47.9063 232.532 57.4657 232.532 57.4657C232.532 57.4657 231.221 61.2489 229.339 62.2454C226.571 63.7033 225.076 60.6584 225.611 58.5176C226.516 54.919 227.088 52.889 229.339 45.7656C229.579 44.9721 229.782 44.3446 229.874 43.9755C229.911 43.8279 230.114 42.8498 229.616 42.4438C229.228 42.1116 228.619 42.2962 227.734 42.573C227.125 42.7575 226.589 42.9974 224.928 43.9755C223.397 44.8613 223.138 45.0828 222.862 45.415C222.363 46.0055 222.142 46.633 222.031 47.0574C220.721 51.2281 219.411 55.4173 218.1 59.588C218.1 59.588 217.03 63.3158 213.837 62.7806C210.682 62.2639 212.232 56.3954 212.232 56.3954L216.495 42.0378C216.495 42.0378 217.565 37.2581 220.223 37.2581C222.898 37.2581 223.95 38.3284 222.88 43.1082L228.785 39.934Z" fill="#004C97"/>
<path d="M205.902 39.5464C201.713 36.5568 194.866 38.919 190.585 44.8429C186.322 50.7668 186.248 58.0009 190.437 60.9905C194.626 63.9802 201.473 61.618 205.754 55.6941C210.017 49.7702 210.091 42.5361 205.902 39.5464ZM204.02 51.3942C202.986 56.4692 199.572 60.0678 196.398 59.4219C195.106 59.1635 194.054 58.2408 193.335 56.9121C192.098 54.9559 191.655 51.9294 192.301 48.7183C193.335 43.6433 196.749 40.0447 199.923 40.6906C201.215 40.949 202.267 41.8717 202.986 43.2004C204.204 45.1382 204.666 48.1831 204.02 51.3942Z" fill="#004C97"/>
<path d="M172.241 39.2881C172.813 38.7529 174.345 37.4427 176.781 37.0182C179.051 36.6307 180.859 37.2581 181.579 37.5534C182.022 37.8117 182.723 38.2916 183.259 39.1036C184.237 40.5984 184.089 42.2962 183.978 43.1451C183.443 47.9248 180.786 57.5027 180.786 57.5027C180.786 57.5027 179.715 62.2824 177.058 62.2824C176.892 62.2824 176.375 62.3008 175.932 61.9686C175.379 61.5626 175.212 60.8614 175.139 60.0125C175.046 58.7022 175.268 57.7979 175.748 55.7126C176.449 52.7968 176.523 52.4092 176.781 51.4496C176.929 50.8591 177.169 50.0102 177.501 48.866C177.999 47.1682 178.313 46.3193 178.627 44.8429C178.959 43.2927 178.977 42.6099 178.627 41.964C178.534 41.7979 178.221 41.2627 177.575 41.0228C176.615 40.6537 175.674 41.2627 175.526 41.355C174.88 41.7795 174.603 42.4069 174.087 43.6064C173.939 43.9386 173.828 44.2524 173.441 45.1382C173.016 46.1347 172.666 46.836 172.444 47.2973C171.872 48.4784 170.82 50.7114 169.159 54.2731C167.572 57.355 166.114 59.4957 165.45 60.2155C164.564 61.1751 163.623 61.5626 163.623 61.5626C163.531 61.5996 163.438 61.6365 163.402 61.6549C162.442 61.9871 161.63 61.9133 161.132 61.8579C159.268 61.6734 157.939 60.6953 157.312 60.1601L156.776 59.6249C156.776 59.6249 156.075 58.7207 156.37 58.2593C156.537 57.9825 156.961 58.0009 157.847 58.0378C158.622 58.0747 159.526 58.1117 160.523 58.167C160.984 58.1486 161.704 58.0378 162.368 57.558C162.977 57.1336 163.254 56.5799 163.402 56.3216C165.376 52.5569 166.28 50.3792 166.28 50.3792C166.28 50.3792 167.111 48.0909 168.513 45.2858C169.067 44.197 169.252 43.6803 169.584 43.0897C170.525 41.355 171.522 40.1001 172.241 39.2881Z" fill="#004C97"/>
<path d="M156.241 33.5672C154.783 29.9317 152.015 28.0124 151.166 27.4588C148.195 25.4657 145.261 25.1335 143.969 25.0597C141.478 24.8936 139.798 24.949 138.636 25.0597C138.267 25.0966 137.584 25.1704 137.307 24.8013C136.956 24.34 137.436 23.4541 137.842 22.6791C138.174 22.0516 138.58 21.2765 139.448 20.5568C140.26 19.874 141.09 19.5603 141.588 19.4126C142.622 19.2281 143.471 19.1912 144.061 19.2096C144.707 19.2096 144.929 19.265 145.593 19.2281C146.663 19.1727 147.383 19.1173 147.771 18.5822C147.955 18.3423 148.103 17.9178 147.974 17.5487C147.697 16.7921 146.22 16.626 145.593 16.5522C145.593 16.5522 145.593 16.5522 145.575 16.5522C144.56 16.4784 143.415 16.4599 142.197 16.5153C141.404 16.5522 140.629 16.626 139.928 16.7183C138.765 16.9213 137.824 17.2534 137.159 17.5487C136.809 17.6964 135.406 18.1762 134.096 19.468C133.561 20.0032 133.026 20.5383 132.49 21.0551C131.918 21.6272 131.42 22.2731 130.885 23.1773C130.553 23.7679 130.11 24.6537 129.814 25.8348C128.467 25.0966 126.068 24.0078 122.876 23.7125C119.074 23.3434 116.195 24.3215 114.885 24.7829C114.22 25.0043 111.711 25.927 109.016 27.9755C100.527 34.4346 99.4753 44.8429 99.42 45.5072C99.2354 47.7033 99.014 50.656 100.49 54.0147C100.97 55.122 102.41 58.4069 105.824 60.4C109.81 62.7253 115.475 62.6514 116.749 62.2639C116.896 62.2085 117.616 61.9686 117.838 62.2454C118.004 62.4484 117.801 62.8729 117.69 63.0759C116.675 65.0505 116.177 66.0471 115.678 66.5269C113.833 68.3354 111.545 68.5938 110.88 68.6491H106.617C106.617 68.6491 104.476 68.6491 104.476 69.7195C104.476 70.7899 106.617 71.3066 106.617 71.3066C106.617 71.3066 110.345 71.8418 112.486 71.3066C113.408 71.0851 114.036 70.9559 114.737 70.6976C115.494 70.4392 117.265 69.8302 118.889 68.6491C121.307 66.8775 123.854 63.4265 124.481 62.2639C124.555 62.1163 124.813 61.6364 125.312 61.4519C125.699 61.3043 126.105 61.3781 126.345 61.4519C126.991 61.5811 130.516 62.3377 133.819 62.2823C134.779 62.2639 136.366 62.2454 138.433 61.7472C138.617 61.7103 138.765 61.6733 138.857 61.6364C141.385 60.9721 143.12 59.9755 144.227 59.3481C145.907 58.37 148.435 56.6537 150.889 53.7748C150.889 53.7748 155.152 47.9248 156.223 43.6802C156.758 41.5949 157.939 37.7564 156.241 33.5672ZM125.662 35.6156C125.588 36.0585 125.496 36.5199 125.035 38.6053C124.297 41.9824 123.909 43.6987 123.429 45.5072C123.171 46.4669 122.857 47.6849 122.359 49.235C121.049 53.3319 120.403 55.3988 119.166 56.6722C118.908 56.949 115.844 60.0124 112.504 59.0713C110.29 58.4438 109.109 56.2108 108.5 55.0851C107.761 53.7195 107.54 52.483 107.429 51.8925C107.152 50.3423 107.263 49.1612 107.429 47.648C107.595 46.0055 107.909 44.7875 108.5 42.3331C108.979 40.3584 109.256 39.2512 109.791 37.7379C110.345 36.1508 110.88 35.0066 111.009 34.7298C111.268 34.1577 112.264 32.0539 113.316 30.6514C114.885 28.566 118.797 25.152 122.377 26.4069C124.278 27.0712 125.699 28.9351 126.105 30.6514C126.363 31.6664 126.124 32.9951 125.662 35.6156ZM147.715 43.1266C147.715 43.1266 147.217 47.5188 145.058 52.1693C143.932 54.5868 142.936 55.8417 142.29 56.5984C141.533 57.4657 140.444 58.6837 138.654 59.6064C137.27 60.3262 134.963 61.5626 132.786 60.6768C130.848 59.8833 130.073 57.8164 129.851 57.2258C129.501 56.2846 129.279 55.1036 130.922 48.1831C131.641 45.1751 131.844 44.6768 133.062 39.6756C133.099 39.5095 133.302 38.6791 133.598 37.5534C134.889 32.5891 135.388 31.7033 135.738 31.1681C136.237 30.4115 136.975 29.3042 138.396 28.5107C138.765 28.3077 140.518 27.3296 142.4 27.7171C145.169 28.2708 146.516 31.3896 147.199 33.032C148.601 36.483 148.195 39.5464 147.715 43.1266Z" fill="#004C97"/>
<path d="M21.7635 64.1463C16.0611 58.6653 12.4994 50.9882 12.4994 42.4622C12.4994 25.8532 26.008 12.3815 42.6724 12.3815H42.6908C51.2168 12.5845 55.9596 16.3861 48.8546 25.761L21.7635 64.1463ZM34.7923 1.17961C29.256 2.23152 23.9227 4.27996 19.2352 7.38031C7.79346 14.9651 0.264038 27.9201 0.264038 42.6283C0.264038 55.2881 5.83728 66.6376 14.677 74.3885L7.95955 83.911C6.94455 85.3504 6.26174 87.0482 6.50165 88.7645C7.20292 94.0056 11.226 94.7253 14.6032 94.1348C16.3932 93.821 17.8142 92.5846 18.8477 91.1082L25.6943 81.3827C30.8984 83.6526 36.6562 84.9075 42.6908 84.9075C58.7462 84.9075 72.7347 76.0125 79.932 62.8913C82.0358 59.0528 78.917 54.8083 74.5248 54.8083C71.9412 54.8083 69.6528 56.3585 68.2687 58.5545C62.9354 67.0436 53.4683 72.6907 42.6724 72.6907C39.2583 72.6907 35.9734 72.1186 32.91 71.0851L63.2122 28.0124C71.0738 16.3307 63.489 6.05159 51.8812 2.04697C46.4187 0.201523 40.4394 0.0723434 34.7923 1.17961Z" fill="#004C97"/>
<path d="M83.2351 51.0805C87.1081 51.0805 90.2478 47.9408 90.2478 44.0678C90.2478 40.1948 87.1081 37.0551 83.2351 37.0551C79.3621 37.0551 76.2224 40.1948 76.2224 44.0678C76.2224 47.9408 79.3621 51.0805 83.2351 51.0805Z" fill="#FE5000"/>
</svg>
