<svg width="192" height="31" viewBox="0 0 192 31" fill="none" xmlns="http://www.w3.org/2000/svg">
<path d="M144.043 2.37826C144.221 2.42256 147.994 2.29702 147.197 3.40476C146.724 4.0694 142.544 11.1663 141.784 12.1559L139.457 15.42C139.28 15.2059 133.889 6.4252 132.346 3.91432C132.276 3.79095 132.257 3.64567 132.291 3.50833C132.325 3.37099 132.411 3.25201 132.53 3.17583C132.586 3.14484 132.645 3.12243 132.707 3.10936C133.764 2.90259 135.573 2.53334 135.809 2.43733V0.0224609H121.431V2.13455C122.307 2.23857 123.147 2.54661 123.884 3.03395C124.62 3.5213 125.231 4.17438 125.67 4.94083C125.67 4.94083 134.303 16.9413 134.369 19.1937C134.369 19.1937 134.458 23.5361 134.458 25.8402V26.8519C134.458 27.0478 134.38 27.2356 134.241 27.3741C134.103 27.5126 133.915 27.5904 133.719 27.5904H129.82V29.5991H144.981C145.033 28.9355 145.033 28.2688 144.981 27.6052H141.2C141.119 27.5981 141.042 27.5672 140.979 27.5166V27.5166C140.939 27.481 140.908 27.4377 140.887 27.3894C140.865 27.3411 140.854 27.2888 140.853 27.2359V18.9722C140.853 15.9222 149.39 4.49035 150.106 3.52292C150.919 2.41518 153.06 2.45949 153.06 2.45949V0.0372311H143.962C144.043 1.00466 144.043 2.23056 144.043 2.37826Z" fill="black"/>
<path d="M58.3778 25.9358C57.8018 24.7911 47.8321 0.509444 47.8321 0.509444L47.6622 0.132812H45.2252L39.9154 14.0017L35.3959 25.8176C35.0414 26.5044 35.13 27.2946 30.8984 28.0331V29.6061H41.9758V27.8706C41.0527 27.7377 40.4989 27.6565 40.3881 27.6269C39.6895 27.5991 39.0101 27.3904 38.4163 27.0214C38.3045 26.9166 38.2184 26.7875 38.1646 26.644C38.1108 26.5006 38.0908 26.3467 38.1061 26.1942C38.1702 25.6397 38.3145 25.0974 38.5345 24.5843C39.524 21.8002 40.1813 20.0426 40.4989 19.3263H49.0506L50.8008 23.7129L51.6944 25.9284C51.7681 26.1218 51.8056 26.327 51.8052 26.5339C51.8005 26.7262 51.721 26.909 51.5836 27.0435C51.1745 27.2558 50.7367 27.4075 50.2839 27.494L47.8026 28.0331C47.8026 28.3211 47.7509 29.0005 47.7435 29.6061H62.4321C62.4308 29.058 62.3962 28.5105 62.3287 27.9666C61.5976 27.9962 59.3969 28.07 58.3778 25.9358ZM47.5441 17.0738L41.3924 17.0074L44.627 8.3744C45.0775 9.29752 45.6609 10.649 46.3773 12.414C47.0936 14.179 47.6622 15.7224 48.1201 17.0517L47.5441 17.0738Z" fill="black"/>
<path d="M180.414 2.26717C182.091 2.43703 183.575 2.5478 184.107 3.51523C184.993 5.13991 185.17 21.8077 185.17 21.8077C176.057 12.7759 171.139 7.64341 169.662 6.13688C168.185 4.63035 169.662 6.13688 163.842 0.0295404H154.153L154.235 2.40749C158.666 2.73242 158.666 3.54477 158.931 4.23895C159.67 6.07041 159.825 23.3955 159.722 25.766C159.722 26.5858 159.766 27.5606 159.47 27.5606H155.165C155.165 27.9372 155.165 29.2886 155.202 29.6136H167.372V27.5458C167.203 27.5458 163.259 27.7821 162.897 27.0805C162.447 26.2017 161.989 8.04219 161.989 8.04219C161.989 7.97952 162.014 7.91941 162.058 7.87509C162.102 7.83077 162.162 7.80587 162.225 7.80587C162.282 7.80617 162.337 7.82716 162.38 7.86495L184.461 29.6136H187.452C187.371 25.7217 187.452 4.08387 187.452 4.00263C187.341 2.20071 188.434 2.27456 191.329 2.02347V0H180.436L180.414 2.26717Z" fill="black"/>
<path d="M91.3373 26.8443C90.392 25.7661 83.9524 15.2868 83.7825 14.9767C85.531 14.5261 87.1002 13.5521 88.2799 12.1852C89.2335 11.0292 89.7556 9.57768 89.7569 8.07915C89.7346 7.04 89.4788 6.01919 89.0084 5.09236C88.5379 4.16553 87.8649 3.35645 87.0393 2.72508C85.0133 0.987043 82.4192 0.0540405 79.7503 0.103427H64.2863L64.3306 2.5183C64.7294 2.59215 68.0231 3.01309 68.0231 3.01309C68.1043 3.87713 67.9788 25.7144 67.9418 26.2165C67.9191 26.5294 67.7973 26.8268 67.5941 27.0658C67.391 27.3048 67.117 27.473 66.8119 27.5458C65.8777 27.7243 64.9534 27.9511 64.0426 28.2252C63.9971 28.6965 63.9774 29.1698 63.9835 29.6432H78.6795V28.0037C77.0253 27.7231 74.1156 27.9372 74.0861 25.9433V15.8555C74.9045 15.789 75.7269 15.789 76.5453 15.8555C77.0675 15.9138 77.5659 16.1055 77.9926 16.412C78.4194 16.7185 78.7602 17.1295 78.9823 17.6057C79.1152 17.9011 79.2777 18.263 79.5288 18.7504C81.1239 21.9111 84.6466 29.6284 84.6466 29.6284H94.6236V27.7452C94.6384 27.2874 92.4155 28.0702 91.3373 26.8443ZM81.0796 12.4215C80.0162 13.3422 78.2315 13.8025 75.7256 13.8025C75.3932 13.8025 74.928 13.8025 74.2486 13.7582V2.72508C75.9062 2.67953 77.5649 2.75604 79.2112 2.95401C79.9576 3.17512 80.6363 3.58054 81.1848 4.13292C81.7334 4.68529 82.134 5.36684 82.3498 6.11476C82.6165 6.97297 82.7485 7.86731 82.7412 8.76595C82.7619 9.46171 82.6229 10.153 82.3348 10.7866C82.0468 11.4203 81.6174 11.9796 81.0796 12.4215V12.4215Z" fill="black"/>
<path d="M30.0788 16.0921C29.2665 16.0035 20.0058 15.9444 18.3811 15.937C17.5761 15.937 17.6426 16.7346 17.6426 16.9414C17.6426 17.03 17.6426 17.4879 18.4919 17.7463L20.4858 18.2854C20.6776 18.3432 20.8631 18.4199 21.0397 18.5144C21.2407 18.6251 21.4096 18.7861 21.5299 18.9815C21.6503 19.1769 21.718 19.4001 21.7265 19.6295C21.7265 20.2351 21.7265 21.1065 21.7265 22.2216C21.7425 23.4551 21.6809 24.6883 21.5419 25.9141C21.5046 26.3114 21.3416 26.6865 21.0766 26.9849C20.7136 27.3613 20.245 27.6188 19.7325 27.7234C18.7217 27.9691 17.6859 28.098 16.6456 28.1074C14.7763 28.112 12.9583 27.4964 11.4762 26.3572C9.94683 25.1849 8.78997 23.5945 8.14558 21.7785C7.41838 19.8577 7.04556 17.821 7.04523 15.7672C7.04523 11.3362 7.99296 8.01299 9.88843 5.79751C11.7839 3.58203 13.9772 2.46444 16.4684 2.44475C17.648 2.42292 18.8194 2.64414 19.9098 3.09462C21.1403 3.59473 22.269 4.31552 23.2404 5.22148C24.1366 6.24332 24.9398 7.34312 25.6405 8.50778C26.1777 8.61822 26.7242 8.67756 27.2726 8.68502C27.3759 8.36008 26.9698 2.94692 26.8664 2.51121C25.6293 1.80329 24.3064 1.25726 22.9302 0.886528C20.785 0.354917 18.5825 0.0895236 16.3724 0.0963404C14.1041 0.0661663 11.8501 0.459369 9.72596 1.25577C7.92194 1.90105 6.26602 2.90233 4.85658 4.20013C3.44713 5.49794 2.31291 7.0658 1.5213 8.81056C0.547646 10.8928 0.0290223 13.1586 0 15.457C0.00783191 17.47 0.354861 19.4673 1.02651 21.3649C1.53104 22.7754 2.28109 24.0855 3.24199 25.2346C4.26228 26.4456 5.4809 27.4745 6.84583 28.2772C8.02131 28.9566 9.3016 29.4358 10.6343 29.6951C12.3628 30.0395 14.1227 30.2004 15.885 30.1752C18.4532 30.191 21.0141 29.901 23.5136 29.3111C25.6848 28.7794 26.9796 28.3068 27.3981 27.8932C27.5458 27.7603 27.6197 27.4132 27.6197 26.8667C27.6197 26.719 27.7673 19.4375 27.7969 19.179C27.8707 18.5882 28.4541 18.374 29.0745 18.1673C30.5515 17.6651 30.5515 17.1998 30.5515 17.0374C30.5515 16.8749 30.5662 16.1438 30.0788 16.0921Z" fill="black"/>
<path d="M96.4687 1.98685C96.6754 2.17148 100.575 2.80658 100.641 3.91432C100.708 5.18453 100.833 26.0174 100.833 26.0174C100.827 26.2749 100.733 26.5226 100.567 26.7189C100.4 26.9152 100.171 27.0482 99.9174 27.0956C98.6915 27.3246 96.4317 27.6495 96.092 27.7455C95.9678 28.3677 95.9133 29.0018 95.9296 29.636H123.771C123.852 29.1634 123.771 22.9896 123.771 21.9483V21.2689C123.217 21.2394 122.663 21.2394 122.109 21.2689C121.837 22.1559 121.473 23.0122 121.024 23.8241C120.699 24.341 119.606 27.2212 112.11 27.3467L107.893 27.2729C107.665 27.2654 107.449 27.1709 107.288 27.0089C107.127 26.8469 107.035 26.6295 107.029 26.4014V26.4014L107.243 4.29095C107.243 3.78139 107.295 3.40476 107.782 3.25706C109.008 2.87304 111.578 2.31179 111.645 2.23794C111.711 2.16409 111.645 2.23794 111.645 0.0224609H96.4022C96.4391 0.760954 96.4539 1.72838 96.4687 1.98685Z" fill="black"/>
</svg>
