<?xml version="1.0" encoding="UTF-8"?>
<svg id="_Слой_1" data-name="Слой 1" xmlns="http://www.w3.org/2000/svg" viewBox="0 0 188.17 100.9">
  <defs>
    <style>
      .cls-1 {
        fill: #fff;
      }

      .cls-2 {
        fill: #1c00a1;
      }
    </style>
  </defs>
  <path class="cls-2" d="M12.17,0C5.47,0,0,5.64,0,12.54V88.36c0,6.9,5.47,12.54,12.17,12.54H176c6.69,0,12.17-5.65,12.17-12.54V12.54c0-6.9-5.47-12.54-12.17-12.54H12.17Z"/>
  <path class="cls-1" d="M40.02,25.24h19.64c2.05,0,3.93,.25,5.65,.74,1.71,.49,3.21,1.29,4.48,2.37,1.18,.99,2.12,2.23,2.8,3.74,.69,1.5,1.03,3.29,1.03,5.36,0,2.96-.79,5.46-2.36,7.47-1.57,2.02-3.8,3.46-6.67,4.3v.21c5.06,1.46,7.57,4.97,7.53,10.51,0,4.09-1.51,7.62-4.51,10.58-1.69,1.65-3.69,2.92-5.99,3.81-2.31,.89-5.12,1.34-8.45,1.34H30.58l9.44-50.43Zm1.92,42.04h11.29c2.74,0,4.92-.62,6.54-1.87,1.62-1.24,2.43-3.21,2.43-5.89,0-2.16-.64-3.77-1.92-4.83-1.28-1.06-2.94-1.59-5-1.59h-10.67l-2.66,14.18Zm14.23-21.66c1,0,1.98-.09,2.94-.28,.96-.19,1.8-.54,2.53-1.06,.73-.51,1.32-1.22,1.78-2.11,.45-.9,.68-2.02,.68-3.39,0-1.6-.45-2.88-1.34-3.84-.89-.97-2.36-1.45-4.41-1.45h-10.06l-2.26,12.13h10.13Z"/>
  <path class="cls-1" d="M94.76,76.69c-2.83,0-5.49-.33-7.97-.99-2.48-.66-4.63-1.67-6.43-3.03-1.8-1.37-3.19-3.09-4.18-5.18-.98-2.09-1.4-4.6-1.27-7.51h9.51c-.09,1.6,.11,2.94,.62,4.02,.5,1.08,1.23,1.97,2.19,2.65,.96,.68,2.1,1.16,3.42,1.45,1.32,.28,2.78,.42,4.38,.42,1.23,0,2.41-.12,3.53-.35,1.12-.23,2.11-.62,2.98-1.16,.87-.54,1.56-1.22,2.09-2.05,.52-.82,.79-1.82,.79-3,0-.89-.16-1.67-.48-2.33-.32-.66-.89-1.29-1.71-1.9-.82-.61-1.92-1.22-3.29-1.83-1.37-.61-3.08-1.32-5.13-2.12-2.19-.8-4.14-1.62-5.85-2.47-1.71-.85-3.16-1.81-4.35-2.89-1.18-1.08-2.09-2.34-2.7-3.77-.61-1.43-.92-3.14-.92-5.11,0-2.4,.42-4.55,1.27-6.45,.84-1.9,2.06-3.51,3.63-4.83,1.57-1.32,3.45-2.32,5.65-3,2.19-.68,4.63-1.02,7.32-1.02,2.51,0,4.89,.28,7.15,.84,2.26,.57,4.22,1.48,5.89,2.75,1.66,1.27,2.97,2.9,3.93,4.9,.96,2,1.37,4.41,1.24,7.23h-9.38c.09-2.5-.65-4.4-2.22-5.72-1.57-1.31-3.89-1.97-6.95-1.97-.91,0-1.85,.1-2.8,.28-.96,.19-1.83,.52-2.64,.99-.8,.47-1.46,1.08-1.98,1.83-.53,.76-.79,1.69-.79,2.82,0,.85,.15,1.57,.45,2.15,.3,.59,.82,1.14,1.57,1.66,.75,.52,1.78,1.03,3.08,1.52,1.3,.49,2.91,1.1,4.82,1.8,2.42,.84,4.56,1.75,6.43,2.71,1.87,.97,3.43,2.05,4.69,3.24,1.25,1.2,2.2,2.55,2.84,4.05,.64,1.51,.96,3.27,.96,5.29,0,2.68-.49,5.02-1.47,7.02-.98,2-2.33,3.67-4.04,5.01-1.71,1.34-3.75,2.35-6.13,3.03-2.37,.68-4.95,1.02-7.73,1.02"/>
  <path class="cls-1" d="M136.29,76.69c-2.83,0-5.49-.33-7.97-.99-2.48-.66-4.63-1.67-6.43-3.03-1.8-1.37-3.19-3.09-4.17-5.18-.98-2.09-1.4-4.6-1.27-7.51h9.51c-.09,1.6,.11,2.94,.62,4.02,.5,1.08,1.23,1.97,2.19,2.65,.96,.68,2.1,1.16,3.42,1.45,1.32,.28,2.78,.42,4.38,.42,1.23,0,2.41-.12,3.53-.35,1.12-.23,2.11-.62,2.98-1.16,.86-.54,1.56-1.22,2.09-2.05,.52-.82,.79-1.82,.79-3,0-.89-.16-1.67-.48-2.33-.32-.66-.89-1.29-1.71-1.9-.82-.61-1.91-1.22-3.28-1.83-1.37-.61-3.08-1.32-5.13-2.12-2.19-.8-4.14-1.62-5.85-2.47-1.71-.85-3.16-1.81-4.35-2.89-1.18-1.08-2.09-2.34-2.7-3.77-.62-1.43-.92-3.14-.92-5.11,0-2.4,.43-4.55,1.27-6.45,.85-1.9,2.05-3.51,3.63-4.83,1.57-1.32,3.46-2.32,5.65-3,2.19-.68,4.63-1.02,7.32-1.02,2.51,0,4.9,.28,7.15,.84,2.26,.57,4.22,1.48,5.88,2.75,1.66,1.27,2.98,2.9,3.93,4.9,.96,2,1.37,4.41,1.23,7.23h-9.38c.09-2.5-.65-4.4-2.22-5.72-1.57-1.32-3.89-1.97-6.94-1.97-.91,0-1.85,.1-2.8,.28-.96,.19-1.83,.52-2.64,.99-.8,.47-1.46,1.08-1.98,1.83-.52,.76-.79,1.69-.79,2.82,0,.85,.15,1.57,.45,2.15,.3,.59,.82,1.14,1.58,1.66,.75,.52,1.78,1.03,3.08,1.52,1.3,.49,2.91,1.1,4.82,1.8,2.42,.84,4.56,1.75,6.43,2.71,1.87,.97,3.43,2.05,4.69,3.24,1.25,1.2,2.2,2.55,2.84,4.05,.64,1.51,.96,3.27,.96,5.29,0,2.68-.49,5.02-1.47,7.02-.98,2-2.33,3.67-4.04,5.01-1.71,1.34-3.75,2.35-6.12,3.03-2.37,.68-4.95,1.02-7.73,1.02"/>
</svg>