<svg width="161" height="44" viewBox="0 0 161 44" fill="none" xmlns="http://www.w3.org/2000/svg">
<g clip-path="url(#clip0_6469_9496)">
<path d="M66.868 23.0012C66.434 22.3419 65.7747 21.8912 64.8983 21.6742C66.5425 21.1567 67.3771 19.6044 67.3771 17.0422C67.3771 13.1362 65.758 11.1499 62.5615 11.1499H52.0873C50.0759 11.1499 49.0577 12.2098 49.0577 14.313V29.4192C49.0577 30.571 49.3498 31.3889 49.934 31.8479C50.5015 32.2903 51.3027 32.5156 52.3043 32.5156H62.7785C64.6062 32.5156 65.8999 31.9648 66.6093 30.8881C67.302 29.8365 67.6609 28.3927 67.6609 26.5983C67.6609 25.0126 67.3938 23.8024 66.868 23.0012ZM52.3126 14.9724C52.3126 14.5217 52.3961 14.1962 52.5546 14.0543C52.7216 13.9041 53.0471 13.8206 53.5061 13.8206H61.4848C62.4363 13.8206 63.104 14.0793 63.4545 14.5884C63.8217 15.1226 64.0053 15.9405 64.0053 17.0088C64.0053 18.2774 63.8134 19.1787 63.4461 19.6795C63.0873 20.1636 62.3528 20.4139 61.2762 20.4139H52.3126V14.9724ZM63.6631 29.1021C63.2458 29.6029 62.4697 29.8532 61.3597 29.8532H53.5311C52.8634 29.8532 52.6214 29.7197 52.5213 29.6112C52.4211 29.4944 52.3043 29.2023 52.3043 28.4928V23.0847H61.6017C62.6199 23.0847 63.3293 23.3684 63.7049 23.9192C64.0971 24.4951 64.2974 25.3631 64.2974 26.4898C64.3141 27.7083 64.0971 28.5847 63.6631 29.1021Z" fill="#12536D"/>
<path d="M88.1836 24.5788C90.0114 24.5788 91.3384 23.9695 92.1229 22.7677C92.8908 21.5909 93.283 19.8883 93.283 17.7017C93.283 15.5902 92.8657 13.9544 92.0395 12.8527C91.2049 11.726 89.7944 11.1584 87.8498 11.1584H77.8596C75.6229 11.1584 74.4962 12.2935 74.4962 14.5302V32.5242H77.7511V15.0644C77.7511 14.5886 77.8513 14.2548 78.0516 14.0879C78.2603 13.9126 78.6108 13.8208 79.0949 13.8208H86.7648C88.0501 13.8208 88.893 14.1129 89.2853 14.6971C89.6942 15.2981 89.9029 16.3079 89.9029 17.7017C89.9029 19.1622 89.7276 20.2556 89.3854 20.9399C89.06 21.5909 88.3505 21.9081 87.2322 21.9081H81.9659C80.739 21.9081 80.4803 22.5841 80.4803 23.1516V23.6273C80.4803 24.0864 80.764 24.5704 81.3483 25.0879L89.6024 32.4574L89.6609 32.5075H94.0675L85.0539 24.5621H88.1836V24.5788Z" fill="#12536D"/>
<path d="M157.055 11.15V28.5764C157.055 28.8935 156.946 28.8935 156.879 28.8935C156.863 28.8935 156.729 28.8852 156.454 28.4762L146.196 12.5271C145.504 11.4504 144.519 10.908 143.259 10.908C142.499 10.908 141.832 11.1166 141.281 11.5339C140.705 11.9596 140.421 12.6523 140.421 13.5954V32.524H143.609V15.1811C143.609 14.7721 143.768 14.7721 143.843 14.7721C143.968 14.7721 144.135 14.9224 144.294 15.1894L154.459 31.0134C154.868 31.6561 155.31 32.1151 155.778 32.3655C156.245 32.6158 156.813 32.7494 157.455 32.7494C158.307 32.7494 158.991 32.5074 159.483 32.0233C159.984 31.5392 160.234 30.8298 160.234 29.9201V11.1416H157.055V11.15Z" fill="#12536D"/>
<path d="M105.234 28.1675H101.838L99.9515 32.5241H103.39L105.234 28.1675Z" fill="#FF7401"/>
<path d="M132.951 11.1499H129.697V32.5156H132.951V11.1499Z" fill="#FF7401"/>
<path d="M132.951 35.3198V37.9822H97.5812L98.7329 35.3198H132.951Z" fill="#FF7401"/>
<path d="M114.565 13.3366C114.223 12.5354 113.806 11.9261 113.322 11.5255C112.821 11.1166 112.178 10.9163 111.394 10.9163C110.593 10.9163 109.95 11.1166 109.483 11.5172C109.032 11.9011 108.623 12.5187 108.256 13.3449L103.574 24.1613H101.495C101.262 24.1613 101.045 24.3032 100.953 24.5119L100.302 26.0141C100.227 26.1894 100.244 26.3981 100.352 26.5566C100.461 26.7235 100.644 26.8237 100.845 26.8237H116.969L119.406 32.5157H122.844L114.565 13.3366ZM106.829 24.1613L110.843 14.8138C110.86 14.7721 110.893 14.7053 110.943 14.5968C110.985 14.4883 111.018 14.4049 111.043 14.3465C111.052 14.3131 111.077 14.263 111.135 14.1795C111.177 14.1128 111.219 14.0543 111.26 14.0043C111.285 13.9709 111.319 13.9458 111.344 13.9292C111.36 13.9208 111.385 13.9125 111.411 13.9125C111.411 13.9125 111.602 13.9375 112.003 14.8138L115.959 24.1697H106.829V24.1613Z" fill="#FF7401"/>
<path d="M16.1578 39.3095C12.4939 38.1577 9.27237 35.7374 7.11911 32.5659C7.06069 32.9916 6.86873 33.3755 6.45978 33.534L6.78527 34.3436C8.52958 36.5636 10.7663 38.3664 13.3285 39.6016L12.9363 40.2526C14.2967 40.9119 15.7489 41.421 17.2678 41.7548C17.176 41.0538 17.3096 40.311 17.61 39.7017C17.1092 39.5849 16.6252 39.4597 16.1578 39.3095Z" fill="#FF7401"/>
<path d="M7.55311 12.6525C6.97724 12.4272 6.8437 11.9431 6.87709 11.3589C6.65175 11.6427 6.43475 11.9264 6.2261 12.2269L5.58346 11.8346C4.62367 13.1867 3.83915 14.6722 3.25493 16.2413H4.48179V17.0592H2.07815V17.7603H2.76252C2.64568 18.1776 2.54552 18.6032 2.45372 19.0288H3.15478V19.6631H1.30197V20.2056H2.25341C2.16995 20.7815 2.11153 21.3741 2.08649 21.9666H3.43854V23.1351H0V24.1449H2.10319C2.13657 24.6958 2.19499 25.2466 2.27845 25.7807H3.38847V26.3399L3.83915 25.2216C3.92261 25.0213 4.06449 24.8543 4.23976 24.7375C3.77238 20.4393 4.9742 16.0744 7.55311 12.6525Z" fill="#FF7401"/>
<path d="M0.984833 27.308H2.57057C2.62064 27.5333 2.67907 27.7503 2.73749 27.9673L3.27998 26.6069H0.984833V27.308Z" fill="#FF7401"/>
<path d="M31.0888 37.0645C29.069 38.4667 26.7572 39.4181 24.3285 39.8438C24.6039 40.4614 24.6957 41.2208 24.5789 41.9136C26.3983 41.6048 28.1343 41.0372 29.7451 40.2527L29.3528 39.6017C31.2807 38.6753 33.0167 37.4234 34.5023 35.9211C34.4689 35.7375 34.4856 35.5372 34.5607 35.362L35.2868 33.5342C35.1783 33.4925 35.0781 33.4257 34.9947 33.3506C33.893 34.7777 32.5743 36.038 31.0888 37.0645Z" fill="#FF7401"/>
<path d="M40.3862 20.022C39.9272 17.0174 38.8005 14.2633 37.0812 11.8262L36.4302 12.2185C35.2284 10.5326 33.7595 9.04704 32.0736 7.84521C32.8164 8.81335 33.2254 9.58952 33.4757 10.7663C34.7861 12.0766 35.8877 13.6039 36.7223 15.2731H36.3968V15.9742H38.8005V16.7921H37.39C37.5903 17.3262 37.7739 17.8771 37.9241 18.4279H35.4871V19.4378H38.9257V20.6062H38.3581C38.4332 21.1821 38.4833 21.7747 38.5 22.3672H37.0144V22.9097H39.1093V23.544H38.4917C38.475 23.9696 38.4416 24.3953 38.3999 24.8126H37.5569V25.5137H39.4932V26.3316H38.3331L39.5099 29.2693C40.5615 26.3566 40.8536 23.0933 40.3862 20.022Z" fill="#FF7401"/>
<path d="M20.9317 38.6084C17.368 38.7169 17.368 43.8914 20.9317 43.9999C24.4954 43.8914 24.4871 38.7169 20.9317 38.6084Z" fill="#FF7401"/>
<path d="M25.0379 29.9451C24.9962 30.062 24.871 30.1872 24.9878 30.304C25.0963 30.4042 25.2382 30.3291 25.3634 30.2957C25.9476 30.1371 26.3649 29.8033 26.5569 29.2023C27.1828 27.2494 28.1343 23.0931 27.5334 21.1735C27.4749 21.0233 27.4249 20.9482 27.2579 21.0483C25.9142 21.8829 24.6123 22.7259 23.9279 24.2699C23.3771 25.5301 22.9097 26.8071 22.5007 28.1174C22.3755 28.5263 22.1752 28.7099 21.7246 28.6849C21.4325 28.6682 21.132 28.6599 20.8315 28.6599C20.5311 28.6599 20.239 28.6682 19.9385 28.6849C19.4878 28.7099 19.2875 28.518 19.1623 28.1174C18.7534 26.8071 18.286 25.5301 17.7352 24.2699C17.0508 22.7175 15.7488 21.8746 14.4051 21.0483C14.2382 20.9398 14.1881 21.0233 14.1297 21.1735C14.0045 21.524 13.9294 21.8746 13.9378 22.2418C13.9795 24.6204 14.3801 26.9322 15.1145 29.2023C15.3065 29.8116 15.7238 30.1371 16.308 30.2957C16.4332 30.3291 16.5751 30.4125 16.6836 30.304C16.7921 30.1872 16.6752 30.062 16.6335 29.9451C16.3414 29.1857 16.041 28.4262 15.7572 27.6583C15.6988 27.5081 15.5903 27.3495 15.6821 27.1075C16.0326 27.9421 16.3664 28.7266 16.6836 29.5195C17.1593 30.6796 17.151 30.6796 18.4279 30.6879C20.0387 30.6879 21.6494 30.6879 23.2519 30.6879C24.5205 30.6879 24.5205 30.6796 24.9962 29.5195C25.3217 28.7266 25.6555 27.9421 26.0061 27.1075C26.0979 27.3495 25.9894 27.5081 25.9309 27.6583C25.6305 28.4262 25.33 29.1773 25.0379 29.9451Z" fill="#12536D"/>
<path d="M18.9621 26.2312C19.2208 26.8154 19.4294 27.2661 19.6214 27.7168C19.6965 27.8921 19.8217 27.9505 19.997 27.9505C20.2724 27.9505 20.5478 27.9505 20.8316 27.9505C21.107 27.9505 21.3824 27.9505 21.6662 27.9505C21.8414 27.9505 21.9666 27.8921 22.0417 27.7168C22.2337 27.2661 22.4423 26.8154 22.7011 26.2312C21.4241 26.6735 20.239 26.6735 18.9621 26.2312Z" fill="#12536D"/>
<path d="M19.6715 35.6622C19.563 36.355 19.5963 37.0644 19.6631 37.7654C19.179 37.9407 18.7451 38.2078 18.3695 38.55C16.6085 36.3967 15.0645 33.5757 14.981 30.7047C14.981 30.3625 15.1062 30.204 15.4317 30.3876C17.368 31.4976 20.0971 33.0333 19.6715 35.6622Z" fill="#12536D"/>
<path d="M27.0076 30.8216C26.8824 33.7093 25.3467 36.3884 23.5607 38.5417C23.327 38.3497 23.0683 38.1828 22.7929 38.0409C22.7929 38.0409 22.7929 38.0409 22.7845 38.0409C22.6009 37.9324 22.4006 37.8406 22.1919 37.7738C22.2504 36.9476 22.2504 36.1297 22.1502 35.3034C21.9332 32.9499 24.7875 31.5394 26.4734 30.4628C26.849 30.2207 27.0159 30.371 27.0076 30.8216Z" fill="#12536D"/>
<path d="M21.8164 37.5901C21.8164 37.6151 21.8164 37.6318 21.808 37.6569C21.2488 37.5233 20.6229 37.515 20.0637 37.6569C20.0387 37.1728 20.0387 36.6804 20.0554 36.1963C20.0721 35.7707 20.3475 35.5787 20.9233 35.5453C21.4074 35.5203 21.7663 35.7456 21.808 36.1296C21.8331 36.3966 21.8164 36.6721 21.8164 36.9391H21.8247C21.8164 37.1561 21.8331 37.3731 21.8164 37.5901Z" fill="#12536D"/>
<path d="M18.9454 15.7988C18.7451 14.8223 18.4279 13.8542 17.9021 13.0029C17.5015 12.3937 16.8338 12.1349 16.1161 12.2852C14.4886 12.6023 14.3551 14.6137 15.4317 15.6069C16.0159 16.1994 16.7587 16.3413 17.5933 16.3413C17.9188 16.333 18.2777 16.3079 18.6449 16.2328C18.9788 16.1577 18.9954 16.1243 18.9454 15.7988ZM16.5918 13.3368C15.7655 13.4786 15.5736 14.4885 16.041 15.0811C15.2648 14.5636 15.198 13.2199 16.258 13.0029C16.6836 12.9111 17.0842 13.0697 17.3096 13.4453C17.0926 13.3201 16.8422 13.2783 16.5918 13.3368Z" fill="#12536D"/>
<path d="M26.9742 13.6455C26.7906 12.1766 24.6039 11.7092 23.8277 12.9945C23.3019 13.8458 22.9931 14.8223 22.7845 15.7904C22.7344 16.1242 22.7511 16.1493 23.085 16.2244C23.4438 16.2995 23.8111 16.3245 24.1282 16.3329C25.7223 16.4414 27.2162 15.3063 26.9742 13.6455ZM26.006 13.3951C25.0546 13.1614 24.3285 13.9126 23.8194 14.6387C23.9529 14.2381 24.0865 13.8374 24.3285 13.4786C24.7124 12.8276 25.7306 12.861 26.1563 13.4368C26.1062 13.4201 26.0561 13.4118 26.006 13.3951Z" fill="#12536D"/>
<path d="M32.4992 11.0917C32.3073 10.0651 31.9818 9.44753 31.3558 8.58789C31.0554 8.19563 30.6548 7.90352 30.2041 7.71156C29.6449 7.44449 29.4446 7.61976 29.0273 8.00367C28.9355 7.94525 28.8437 7.89517 28.7519 7.83675C28.151 6.85193 27.3581 5.99229 26.3983 5.34965L26.8741 4.47332L26.9074 4.40656C27.3331 4.34813 27.6085 3.84738 27.4249 3.44677L27.9841 2.42021C28.7602 2.67059 29.5948 2.05299 29.5781 1.23508C29.5781 0.550714 29.0273 -0.000120808 28.3429 -0.000120808C27.3247 -0.0251587 26.7322 1.23508 27.3748 2.00291L26.6988 3.02947C26.2731 3.0712 25.981 3.51354 26.1146 3.92249C25.981 4.12279 25.6305 4.64859 25.497 4.85724C22.7261 3.22977 19.0706 3.22143 16.283 4.81551C16.1495 4.60686 15.8323 4.13114 15.6988 3.93084C15.7572 3.73888 15.7322 3.52188 15.6153 3.35496C15.5068 3.18804 15.3232 3.0712 15.1146 3.04616L14.4552 2.00291C15.0979 1.23508 14.5053 -0.0251587 13.4871 -0.000120808C12.8027 -0.000120808 12.2519 0.550714 12.2519 1.23508C12.2352 2.05299 13.0698 2.67059 13.846 2.42021L14.4052 3.44677C14.2299 3.83903 14.4886 4.33979 14.9226 4.40656C14.931 4.42325 15.3816 5.2495 15.415 5.29958C14.4219 5.95891 13.6039 6.82689 12.9947 7.83675C12.9029 7.88683 12.8111 7.94525 12.7193 8.00367C12.2435 7.55299 12.0432 7.46118 11.459 7.74495C10.4074 8.21232 9.76479 9.4058 9.40592 10.4073H9.92337V11.0917H7.91199V11.6842H9.15554C9.08877 13.5621 9.88164 15.6569 11.6009 16.6585C11.9681 16.8755 12.2686 16.8921 12.569 16.6C12.6525 16.5166 12.7109 16.5249 12.7944 16.6C14.4636 17.9187 16.5167 18.6031 18.6032 18.8785V19.8466C17.8938 19.8299 17.0759 19.9468 16.692 19.2457C16.3998 19.1622 16.1161 19.0704 15.8323 18.9619C15.39 19.2624 14.981 19.6129 14.5804 19.9802C14.9143 20.2472 17.6017 22.3588 17.8604 22.5591C19.6131 22.5841 22.0334 22.5591 23.8027 22.5674C23.8194 22.509 26.8574 20.2639 27.1495 20.0386C26.7405 19.663 26.3149 19.2874 25.8558 18.9703C25.5637 19.0788 25.2716 19.1706 24.9712 19.2541C24.5789 19.9635 23.7109 19.8216 23.0015 19.8466V18.8952C25.1381 18.6448 27.2496 17.9521 28.9605 16.6C29.044 16.5249 29.1024 16.5166 29.1859 16.6C29.4863 16.8921 29.7868 16.8755 30.154 16.6585C32.0152 15.5651 32.8748 13.1031 32.4992 11.0917ZM28.4598 0.450562C28.7018 0.450562 28.9272 0.55906 29.069 0.734325C28.2929 0.250259 27.4416 1.23508 28.0258 1.93615C27.3498 1.51885 27.6669 0.442216 28.4598 0.450562ZM13.6958 0.609136C13.0197 0.592444 12.6358 1.43539 13.0781 1.9278C12.0766 1.21005 13.2785 -0.158694 14.1214 0.725979C14.0046 0.650866 13.8543 0.609136 13.6958 0.609136ZM26.7656 3.27985C26.8907 3.27985 26.9992 3.33827 27.0744 3.42173C26.6904 3.17135 26.2398 3.6888 26.5402 4.03933C26.2064 3.83068 26.3649 3.2715 26.7656 3.27985ZM14.6722 3.85572C14.4719 3.43008 15.0561 3.06285 15.3566 3.42173C14.956 3.1797 14.5303 3.68046 14.8225 4.03933C14.7557 3.98926 14.7056 3.93084 14.6722 3.85572ZM10.1487 10.207C10.1737 9.47257 10.6077 8.663 11.3422 8.42932C10.783 8.90504 10.4659 9.55602 10.1487 10.207ZM11.8596 13.2032C11.9347 14.2047 12.0182 15.2229 12.4856 16.141C12.569 16.3246 12.3687 16.3663 12.2686 16.4331C12.1517 16.5166 12.0516 16.4748 11.9932 16.3413C11.8346 15.9991 11.6927 15.6486 11.6009 15.2897C11.1085 13.3284 11.1252 11.2753 11.6176 9.31399C11.7261 8.90504 11.8096 8.48774 12.0182 8.11217C12.0432 8.06209 12.0599 8.00367 12.1184 7.98698C12.302 8.08713 12.5023 8.16225 12.6608 8.30413C12.7109 8.3542 12.6525 8.41263 12.6275 8.4627C12.5357 8.63797 12.4522 8.81323 12.3854 8.9885C11.8263 10.3322 11.7595 11.7677 11.8596 13.2032ZM29.1609 12.7525C29.1358 13.4202 29.044 14.1046 28.8854 14.789C28.5933 16.0408 28.5099 16.0909 27.3915 16.7169C23.302 18.8034 18.453 18.8034 14.3551 16.7169C13.2367 16.0909 13.1449 16.0408 12.8612 14.789C12.4439 12.9779 12.4772 11.1084 13.0448 9.36407C14.4469 10.616 16.5835 9.12203 15.8323 7.37772C15.7071 7.09396 15.4651 6.53478 15.3399 6.25936C16.8923 5.05754 18.9537 4.38152 20.8733 4.3231C22.8012 4.38152 24.8627 5.05754 26.4067 6.25936C26.2982 6.50974 26.0228 7.12735 25.9143 7.37772C25.1631 9.11369 27.2914 10.6076 28.7018 9.35572C29.0524 10.4574 29.2026 11.5924 29.1609 12.7525ZM30.4461 13.6038C30.3376 14.5302 30.1791 15.4984 29.7618 16.3497C29.695 16.4832 29.5948 16.5249 29.4863 16.4415C29.3862 16.3663 29.1859 16.3246 29.2694 16.1493C30.0121 14.622 30.0706 11.8345 29.7284 10.182C29.6032 9.59775 29.3945 9.01354 29.1275 8.47939C29.1024 8.42932 29.044 8.3709 29.0941 8.32082C29.2443 8.17059 29.4446 8.09548 29.6282 8.00367C29.695 8.02036 29.7033 8.07879 29.7284 8.12886C29.937 8.50443 30.0205 8.92173 30.129 9.33068C30.4795 10.7161 30.6047 12.1683 30.4461 13.6038ZM31.5395 10.182C31.2307 9.53933 30.9135 8.90504 30.3627 8.42932C31.0888 8.65466 31.5228 9.45587 31.5478 10.1903C31.5478 10.1987 31.5478 10.1987 31.5478 10.207C31.5478 10.1987 31.5478 10.1903 31.5395 10.182Z" fill="#12536D"/>
<path d="M21.9666 24.2616L22.8847 22.8928C21.6578 22.8928 20.2056 22.8928 18.9537 22.8928L19.7382 24.2616H21.9666Z" fill="#12536D"/>
<path d="M17.7435 22.8929C17.635 22.8011 17.4932 22.6926 17.393 22.5757C17.8854 23.3435 18.2693 24.2282 18.6616 25.0628C18.7367 25.2548 18.8369 25.3967 18.962 25.5052C19.1457 25.6637 19.3376 25.7055 19.5045 25.7472H22.1669C22.5091 25.6971 22.8847 25.4634 23.0099 25.0712C23.4105 24.2199 23.8027 23.3018 24.3202 22.5256C24.195 22.6508 24.0698 22.8011 23.9196 22.9012C23.6942 22.9012 23.4689 22.9012 23.2268 22.9012L22.2337 24.7874H19.4127L18.6282 22.9012H17.7435V22.8929Z" fill="#12536D"/>
<path d="M13.846 27.1828C13.412 26.9908 12.9112 27.2412 12.786 27.7002C11.4173 27.9673 9.19725 30.5712 10.0903 31.5811C11.1001 32.3322 13.0698 30.4127 13.5288 29.4111C13.679 29.1107 13.5372 28.7351 13.2367 28.6099C14.1798 28.9855 14.7724 27.6084 13.846 27.1828ZM11.4674 30.7298C11.2003 31.3307 10.2989 30.9468 10.5493 30.3376C10.8164 29.7366 11.7094 30.1206 11.4674 30.7298ZM13.8877 28.0424C13.6874 28.4931 13.003 28.2093 13.195 27.742C13.3953 27.2913 14.0713 27.5834 13.8877 28.0424Z" fill="#12536D"/>
<path d="M9.92336 31.8648C9.78982 31.7396 9.72306 31.556 9.72306 31.339C9.70636 31.3306 9.69802 31.3223 9.69802 31.3223L9.32245 33.8511L9.65629 33.993L10.8247 31.9733C10.4408 32.0734 10.1237 32.0484 9.92336 31.8648Z" fill="#12536D"/>
<path d="M30.8551 29.0856C30.3293 28.4764 29.6449 27.9088 28.8687 27.7002C28.7435 27.2495 28.2428 26.9908 27.8088 27.1827C26.874 27.6084 27.4666 28.9855 28.418 28.6099C28.1176 28.7351 27.9757 29.1107 28.1259 29.4111C28.585 30.421 30.5546 32.3405 31.5645 31.5811C32.0235 31.1554 31.698 30.0704 30.8551 29.0856ZM28.3763 28.1759C27.9256 28.5515 27.4499 27.8003 27.9757 27.55C28.368 27.3747 28.6851 27.9005 28.3763 28.1759ZM30.8467 30.9885C30.2375 31.2389 29.8536 30.3375 30.4545 30.0704C31.0637 29.8284 31.4476 30.7131 30.8467 30.9885Z" fill="#12536D"/>
<path d="M31.94 31.3306C31.9317 31.9399 31.4393 32.1485 30.8384 31.9733L32.0068 33.993L32.3407 33.8511L31.9651 31.3223C31.9651 31.3223 31.9567 31.3223 31.94 31.3306Z" fill="#12536D"/>
<path d="M10.566 21.7997C10.7329 22.2336 11.0835 23.135 11.2504 23.5773L11.9181 23.5356C12.0099 22.9848 12.8111 22.9347 12.9697 23.4688L13.5622 23.4271C13.5038 22.7344 13.437 22.0333 13.4704 21.3323L10.566 21.7997Z" fill="#12536D"/>
<path d="M10.0318 22.05L7.40287 24.4787C7.80347 24.9962 7.09406 25.6472 6.61 25.2048L6.13428 25.6472C6.36796 25.8725 7.12745 26.5903 7.48633 26.9241L10.7913 23.811C10.6244 23.3854 10.2655 22.5675 10.0318 22.05Z" fill="#12536D"/>
<path d="M5.4666 27.9672C6.20105 27.4831 6.16767 26.3898 5.39984 25.9475C5.04931 25.7471 4.79058 25.5969 4.79058 25.5969C3.8141 28.0339 2.78755 30.5962 1.81107 33.0332C3.14642 32.8913 4.73216 32.7244 6.05917 32.5742C6.34293 31.2638 6.84369 28.9604 7.12745 27.625L5.4666 27.9672ZM4.04779 32.0484C3.85583 32.0734 3.04627 32.1569 2.85431 32.1736C3.09635 31.5726 3.46357 30.6546 3.7056 30.0537C3.65553 30.4543 3.53868 31.3223 3.48861 31.7145C3.76402 31.7479 4.92412 31.8898 5.22457 31.9232L4.04779 32.0484Z" fill="#12536D"/>
<path d="M2.48709 33.5673V37.3313L3.305 37.6568L4.20636 38.7919H4.44005L3.40515 36.6553C3.65553 36.6553 3.86418 36.4717 3.89756 36.2213L4.15629 34.3184H5.03261L5.72533 35.7122L5.16615 37.2228H5.33307L6.23444 35.7373L5.24961 33.2668L2.48709 33.5673Z" fill="#12536D"/>
<path d="M13.8961 33.7844C14.0964 34.0765 14.5387 34.6942 14.739 34.9946C14.9477 34.9278 15.3733 34.786 15.5819 34.7192L14.8558 33.3755L13.8961 33.7844Z" fill="#12536D"/>
<path d="M11.8346 36.5386L13.0615 37.2647L14.2883 35.3618C14.0713 35.0781 13.654 34.5272 13.3869 34.1851L11.8346 36.5386Z" fill="#12536D"/>
<path d="M27.1995 33.3755L26.4734 34.7192C26.6821 34.786 27.1077 34.9278 27.3164 34.9946C27.525 34.6942 27.959 34.0765 28.1593 33.7844L27.1995 33.3755Z" fill="#12536D"/>
<path d="M27.7671 35.3618L28.9856 37.2564L30.2124 36.5303L28.6684 34.1851C28.4014 34.5272 27.9841 35.0697 27.7671 35.3618Z" fill="#12536D"/>
<path d="M28.2678 21.3323C28.3012 22.0333 28.2344 22.7344 28.176 23.4271L28.7686 23.4688C28.9272 22.9347 29.7284 22.9848 29.8202 23.5356L30.4879 23.5773C30.6548 23.135 31.0053 22.2336 31.1722 21.7997L28.2678 21.3323Z" fill="#12536D"/>
<path d="M35.1115 25.2131C34.6275 25.6555 33.9181 24.9961 34.3187 24.487L31.6897 22.0583C31.456 22.5758 31.1055 23.3854 30.9218 23.8194L34.2269 26.9324C34.5857 26.5986 35.3452 25.8808 35.5789 25.6555L35.1115 25.2131Z" fill="#12536D"/>
<path d="M39.2929 31.4724C38.5334 29.5696 37.6988 27.5165 36.9393 25.6052C36.9393 25.6052 36.6806 25.7555 36.33 25.9558C35.5539 26.3897 35.5205 27.4831 36.2633 27.9755L34.6108 27.6416C34.9029 28.977 35.3953 31.2721 35.6791 32.5908C36.5554 32.6826 37.5569 32.7911 38.4332 32.8829H38.4416L39.9355 33.0415L39.2929 31.4724ZM38.8672 32.1735C38.258 32.1067 37.1313 31.9899 36.5053 31.9231C36.6389 31.9064 38.1662 31.7228 38.2413 31.7145C38.2246 31.5559 38.0493 30.2539 38.0243 30.0536C38.2663 30.6545 38.6419 31.5893 38.8672 32.1735Z" fill="#12536D"/>
<path d="M35.5038 35.7458L36.4052 37.2313H36.5721L36.0129 35.7207L36.7056 34.3269H37.5819L37.8407 36.2298C37.874 36.4802 38.0827 36.6638 38.3331 36.6638L37.2982 38.8004H37.5319L38.4332 37.6653L39.2511 37.3398V33.5758L36.4886 33.2837L35.5038 35.7458Z" fill="#12536D"/>
</g>
<defs>
<clipPath id="clip0_6469_9496">
<rect width="160.243" height="44" fill="white"/>
</clipPath>
</defs>
</svg>
