<svg id="_Слой_1" data-name="Слой_1" xmlns="http://www.w3.org/2000/svg" version="1.1" viewBox="0 0 363.24 92.72">
        <!-- Generator: Adobe Illustrator 29.0.1, SVG Export Plug-In . SVG Version: 2.1.0 Build 192)  -->
        <g>
            <polygon points="133.46 59.18 143.99 24.05 152.01 24.05 162.53 59.18 172.05 59.18 158.8 14.94 137.2 14.94 123.94 59.18 133.46 59.18"></polygon>
            <path d="M212.71,14.94h-33.42v9.13h33.42c2.33,0,4.22,1.89,4.22,4.22s-1.89,4.22-4.22,4.22h-23.55v9.13h23.55c2.33,0,4.22,1.89,4.22,4.22s-1.89,4.22-4.22,4.22h-33.42v9.13h33.42c7.35,0,13.34-5.99,13.34-13.34,0-3.36-1.25-6.43-3.3-8.78,2.05-2.35,3.3-5.42,3.3-8.78,0-7.36-5.99-13.34-13.34-13.34"></path>
            <path d="M281.46,28.24c0-7.34-5.95-13.3-13.3-13.3h-32.54v44.24h32.54c7.34,0,13.3-5.95,13.3-13.3,0-3.39-1.28-6.47-3.37-8.82,2.09-2.35,3.37-5.43,3.37-8.82ZM272.53,28.23c0,2.36-1.87,4.27-4.21,4.36-.05,0-.1,0-.16,0h-23.62v-8.72h23.62c2.42,0,4.37,1.96,4.37,4.37ZM268.16,50.26h-23.62v-8.72h23.62c.05,0,.1,0,.16,0,2.34.09,4.21,2,4.21,4.36s-1.96,4.37-4.37,4.37Z"></path>
            <path d="M307.77,59.18h11.75c12.2,0,22.12-9.92,22.12-22.12s-9.92-22.12-22.12-22.12h-11.75c-12.2,0-22.12,9.92-22.12,22.12s9.92,22.12,22.12,22.12M307.77,24.05h11.75c7.17,0,13.01,5.83,13.01,13.01s-5.84,13.01-13.01,13.01h-11.75c-7.17,0-13.01-5.83-13.01-13.01s5.83-13.01,13.01-13.01"></path>
        </g>
        <g>
            <path d="M124.71,88.43v-14.24h9.15v2.12h-6.71v12.13h-2.44Z"></path>
            <path d="M134.68,92.5v-14.85h2.08v1.81c.33-.62.81-1.12,1.45-1.48.64-.37,1.37-.55,2.19-.55,1.41,0,2.52.44,3.34,1.32.81.88,1.22,2.21,1.22,3.99v.41c0,1.22-.19,2.24-.57,3.06-.38.82-.91,1.43-1.59,1.84-.68.41-1.48.61-2.4.61-.77,0-1.48-.17-2.12-.51-.64-.34-1.09-.81-1.36-1.42v5.78h-2.24ZM139.87,86.7c.84,0,1.52-.29,2.03-.87s.77-1.48.77-2.69v-.41c0-1.14-.25-1.98-.75-2.53-.5-.55-1.19-.82-2.05-.82-.5,0-.98.11-1.43.32-.45.22-.82.54-1.1.96-.28.42-.42.94-.42,1.57v1.42c0,.68.14,1.25.42,1.7.28.45.64.79,1.09,1.02.45.22.93.34,1.45.34Z"></path>
            <path d="M149.53,92.72c-.2,0-.41-.02-.61-.06v-1.95c.2.04.41.06.61.06.3,0,.54-.07.73-.21.19-.14.37-.38.53-.72.16-.34.35-.81.57-1.4l-4.58-10.78h2.44l3.3,8.34,2.97-8.34h2.28l-4.17,10.78c-.39,1-.77,1.82-1.12,2.46-.35.64-.75,1.1-1.2,1.39-.45.29-1.03.44-1.75.44Z"></path>
            <path d="M160.62,88.43v-10.78h9.36v10.78h-2.24v-8.87h-4.88v8.87h-2.24Z"></path>
            <path d="M173.84,88.43v-10.78h9.36v10.78h-2.24v-8.87h-4.88v8.87h-2.24Z"></path>
            <path d="M190.22,88.65c-.77,0-1.43-.15-1.98-.44-.55-.29-.97-.69-1.25-1.21s-.43-1.09-.43-1.73c0-1.07.32-1.87.96-2.39s1.57-.78,2.81-.78h3.36v-.59c0-.81-.18-1.37-.54-1.68-.36-.3-.93-.46-1.7-.46-.69,0-1.2.11-1.53.32-.33.22-.52.52-.57.9h-2.18c.04-.62.24-1.17.59-1.65.35-.47.85-.85,1.5-1.12.65-.27,1.41-.41,2.29-.41s1.65.14,2.31.41c.66.27,1.17.7,1.53,1.27.36.58.54,1.34.54,2.29v4.29c0,.57,0,1.07.02,1.5.01.43.05.85.1,1.25h-2.03c-.04-.31-.07-.58-.09-.79-.02-.22-.03-.49-.03-.81-.26.5-.7.93-1.33,1.29-.63.36-1.41.54-2.33.54ZM190.83,86.7c.52,0,.99-.09,1.41-.26.43-.17.77-.44,1.04-.79.26-.35.4-.78.4-1.28v-.59h-2.95c-.57,0-1.03.12-1.37.37-.35.24-.52.6-.52,1.08,0,.45.16.81.48,1.08.32.27.83.41,1.52.41Z"></path>
            <path d="M205.78,88.43v-10.78h2.24v4.37h1.22l3.78-4.37h2.52l-4.58,5.15,4.78,5.64h-2.73l-3.78-4.58h-1.22v4.58h-2.24Z"></path>
            <path d="M222.87,88.65c-.99,0-1.88-.21-2.69-.62-.8-.41-1.43-1.03-1.9-1.85-.47-.82-.7-1.83-.7-3.04v-.41c0-1.14.23-2.11.7-2.9.47-.79,1.1-1.39,1.9-1.8.8-.41,1.7-.61,2.69-.61s1.9.2,2.7.61,1.42,1.01,1.89,1.8c.47.79.7,1.76.7,2.9v.41c0,1.21-.23,2.22-.7,3.04-.47.82-1.1,1.44-1.89,1.85-.79.41-1.69.62-2.7.62ZM222.87,86.7c.52,0,1-.12,1.46-.37.46-.25.83-.63,1.12-1.15s.43-1.2.43-2.04v-.41c0-.77-.14-1.41-.43-1.9s-.66-.86-1.12-1.1c-.46-.24-.95-.35-1.46-.35s-1,.12-1.46.35c-.46.24-.83.6-1.12,1.1s-.43,1.13-.43,1.9v.41c0,.84.14,1.52.43,2.04s.66.9,1.12,1.15c.46.24.95.37,1.46.37Z"></path>
            <path d="M231.42,88.43v-10.78h2.52l3.44,6.31,3.44-6.31h2.4v10.78h-2.24v-7.43l-2.85,5.19h-1.63l-2.85-5.19v7.43h-2.24Z"></path>
            <path d="M247.08,88.43v-10.78h9.36v10.78h-2.24v-8.87h-4.88v8.87h-2.24Z"></path>
            <path d="M263.46,88.65c-.77,0-1.43-.15-1.98-.44-.55-.29-.97-.69-1.25-1.21s-.43-1.09-.43-1.73c0-1.07.32-1.87.96-2.39s1.57-.78,2.81-.78h3.36v-.59c0-.81-.18-1.37-.54-1.68-.36-.3-.93-.46-1.7-.46-.69,0-1.2.11-1.53.32-.33.22-.52.52-.57.9h-2.18c.04-.62.24-1.17.59-1.65.35-.47.85-.85,1.5-1.12.65-.27,1.41-.41,2.29-.41s1.65.14,2.31.41c.66.27,1.17.7,1.53,1.27.36.58.54,1.34.54,2.29v4.29c0,.57,0,1.07.02,1.5.01.43.05.85.1,1.25h-2.03c-.04-.31-.07-.58-.09-.79-.02-.22-.03-.49-.03-.81-.26.5-.7.93-1.33,1.29-.63.36-1.41.54-2.33.54ZM264.07,86.7c.52,0,.99-.09,1.41-.26.43-.17.77-.44,1.04-.79.26-.35.4-.78.4-1.28v-.59h-2.95c-.57,0-1.03.12-1.37.37-.35.24-.52.6-.52,1.08,0,.45.16.81.48,1.08.32.27.83.41,1.52.41Z"></path>
            <path d="M272.92,88.43v-10.78h2.24v4.33h5.09v-4.33h2.24v10.78h-2.24v-4.54h-5.09v4.54h-2.24Z"></path>
            <path d="M286.34,88.43v-10.78h2.24v7.63l5.19-7.63h2.14v10.78h-2.24v-7.63l-5.19,7.63h-2.14Z"></path>
            <path d="M299.77,88.43v-10.78h2.24v7.63l5.19-7.63h2.14v10.78h-2.24v-7.63l-5.19,7.63h-2.14ZM304.55,76.42c-1.13,0-1.95-.25-2.47-.74-.52-.5-.78-1.2-.78-2.11h2.08c0,.49.1.84.3,1.06.2.22.49.32.88.32s.69-.11.88-.32c.2-.22.3-.57.3-1.06h2.07c0,.91-.26,1.61-.79,2.11-.53.5-1.35.74-2.46.74Z"></path>
            <path d="M319.71,88.43v-14.24h2.44v5.86h6.92v-5.86h2.44v14.24h-2.44v-6.27h-6.92v6.27h-2.44Z"></path>
            <path d="M341.07,88.65c-.77,0-1.49-.09-2.16-.26-.66-.18-1.26-.45-1.78-.82-.52-.37-.94-.86-1.26-1.45-.32-.6-.52-1.32-.6-2.16h2.58c.11.79.43,1.41.96,1.86.53.45,1.28.68,2.26.68.43,0,.85-.07,1.26-.21.41-.14.78-.38,1.11-.71s.61-.77.82-1.32c.22-.55.35-1.22.41-2.02h-5.33v-2.03h5.33c-.07-1-.27-1.8-.6-2.39-.33-.59-.76-1.02-1.27-1.28-.52-.26-1.09-.4-1.73-.4-.79,0-1.48.2-2.08.61-.6.41-.98,1.05-1.16,1.93h-2.56c.07-.79.26-1.47.57-2.05.31-.58.73-1.07,1.24-1.46s1.11-.69,1.79-.88c.68-.2,1.41-.3,2.2-.3.88,0,1.7.14,2.44.41.75.27,1.4.69,1.97,1.26.57.57,1.01,1.3,1.32,2.19.31.89.47,1.95.47,3.18v.41c0,1.29-.16,2.39-.47,3.31-.31.92-.75,1.66-1.32,2.25-.57.58-1.23,1.01-1.97,1.28-.75.27-1.56.41-2.44.41Z"></path>
            <path d="M351.24,88.43v-14.24h2.44v5.96h1.42l5.17-5.96h2.77l-6,6.77,6.21,7.47h-2.97l-5.17-6.37h-1.42v6.37h-2.44Z"></path>
        </g>
        <g>
            <polygon points="28.8 12.09 0 88.25 27.93 88.25 42.82 47.32 28.8 12.09"></polygon>
            <polygon points="96.6 88.25 68.67 88.25 33.61 0 61.53 0 96.6 88.25"></polygon>
        </g>
    </svg>