<svg preserveAspectRatio="xMidYMid meet" viewBox="0 0 240 55" fill="#000" xmlns="http://www.w3.org/2000/svg" class="header__logo" data-testid="logo"><path d="M26.92 39.407H0v-.957c4.322-.132 6.516.099 6.516-2.623V2.986C6.516.956 4.272.924 0 .956V0h16.347v.957c-2.887.05-4.866.05-4.866 1.798v33.072c0 1.93.824 2.524 5.327 2.524h.693c4.272 0 6.021.099 6.021-2.524V2.755c0-1.749-1.336-1.749-4.685-1.798V0h15.704v.957c-4.404 0-6.07-.182-6.07 2.029v32.429c0 2.293 1.055 2.936 3.991 2.936h3.91L30.07 54.797h-.874l1.287-5.609c1.451-6.284 1.666-9.781-3.563-9.781Zm15.205-.957h2.111c4.636 0 5.097-1.238 5.097-3.943V19.48c0-2.293-.511-3.349-5.229-3.349h-1.517v-.956H56.41c6.928 0 10.293 2.854 10.293 6.07 0 1.98-1.188 3.76-4.223 4.734 4.14.742 6.202 3.448 6.202 6.301 0 3.58-3.216 7.16-11.843 7.16H42.142v-.99h-.017Zm15.258.082c4.635 0 7.027-2.936 7.027-6.07 0-3.167-2.474-6.021-7.44-5.972v-.643c3.86-.23 5.691-2.474 5.691-4.784 0-2.474-2.16-5.047-6.07-5.047-1.699 0-2.623.462-2.623 2.524v16.99c.017 2.639 1.337 3.002 3.415 3.002Zm34.689-.411c2.441 0 5.048-.824 7.852-2.853l1.154-.825.512.693-1.237.923c-3.679 2.706-6.714 3.91-10.112 3.91-7.769 0-12.487-5.84-12.487-12.817 0-6.845 4.553-12.586 11.481-12.586 6.301 0 9.7 4.372 9.831 9.37l-16.165.05c-.05.692-.1 1.418-.1 2.11 0 6.285 2.986 12.025 9.271 12.025Zm-.825-15.192c2.524 0 3.085-1.055 3.085-2.474 0-2.623-1.748-5.047-4.866-5.047-3.81 0-5.79 3.629-6.433 7.57l8.214-.049Zm41.882 5.047-.776.099c-2.243-7.308-3.727-11.992-6.928-11.992-1.187 0-2.16.462-2.16 2.342v17.172c0 2.936 1.748 2.622 7.851 2.853v.957h-20.223v-.957c6.103-.23 7.852.1 7.852-2.853V18.425c0-1.88-.957-2.342-2.161-2.342-3.216 0-4.586 4.684-6.845 11.992l-.776-.1c.594-4.271 1.007-8.544 1.336-12.816h21.411c.363 4.272.858 8.545 1.419 12.817Zm25.303-11.86v-.957h12.585v.957c-3.398 0-4.734 0-4.734 2.16v18.046c0 2.293 1.749 1.98 4.734 2.112v.956h-12.585v-.956c2.573-.05 3.299-.231 3.299-2.343v-9.039h-9.601v9.056c0 2.111.743 2.293 3.299 2.342v.957h-12.585v-.957c2.985-.132 4.734.231 4.734-2.111V18.277c0-2.161-1.336-2.161-4.734-2.161v-.957h12.585v.957c-2.573.05-3.299-.28-3.299 2.573v7.307h9.601V18.69c0-2.837-.726-2.524-3.299-2.573Zm21.625 11.117c0-7.356 5.097-12.684 12.124-12.684s12.124 5.328 12.124 12.684c0 8.083-6.021 12.685-12.124 12.685-6.103 0-12.124-4.602-12.124-12.684Zm12.124 11.712c4.685 0 6.928-5.79 6.928-11.712 0-6.202-2.21-11.76-6.928-11.76s-6.928 5.558-6.928 11.76c0 5.939 2.243 11.712 6.928 11.712Zm24.874-3.892V18.245c0-2.16-1.385-2.029-4.371-2.111v-.957h13.13v.957c-3.497.05-4.272-.05-4.272 2.061v15.67l8.825-14.746c1.699-2.804 3.761-3.942 7.39-3.942H240v.957h-.775c-2.293 0-3.86.412-3.86 3.299V36.34c0 2.062 1.154 1.98 4.585 2.111v.957h-13.41v-.956c3.629 0 4.272-.05 4.272-2.112V20.538l-8.676 14.466c-1.798 2.986-4.173 4.404-8.033 4.404h-1.237v-.956c2.54-.05 4.189-.149 4.189-3.398Zm5.147-31.786h4.503c-.511 1.106-.742 2.21-.742 3.036 0 1.336.544 2.391 2.062 2.391 2.804 0 5.377-3.447 9.649-6.202l.412.742c-4.684 3.036-7.719 7.44-12.074 7.44-3.084 0-4.454-2.112-4.454-4.553 0-.841.182-1.897.644-2.854Z"></path></svg>