<svg width="627" height="531" viewBox="0 0 627 531" fill="none" xmlns="http://www.w3.org/2000/svg">
<circle opacity="0.1" cx="231" cy="353" r="136" fill="url(#paint0_linear_7778_20039)"/>
<circle cx="295" cy="84" r="83" stroke="#1D1D1D" stroke-opacity="0.1" stroke-width="2" stroke-dasharray="8 8"/>
<g opacity="0.7">
<g opacity="0.3" filter="url(#filter0_f_7778_20039)">
<ellipse cx="404.613" cy="335.654" rx="234" ry="87.3476" transform="rotate(-10 404.613 335.654)" fill="url(#paint1_linear_7778_20039)"/>
</g>
<g opacity="0.5" filter="url(#filter1_f_7778_20039)">
<ellipse cx="303.984" cy="364.396" rx="130.08" ry="33.7343" transform="rotate(-10 303.984 364.396)" fill="url(#paint2_linear_7778_20039)"/>
</g>
<g filter="url(#filter2_f_7778_20039)">
<ellipse cx="303.983" cy="381.284" rx="187.605" ry="10.4478" transform="rotate(-10 303.983 381.284)" fill="url(#paint3_linear_7778_20039)"/>
</g>
</g>
<path d="M4.16756 136.187C1.86588 123.134 10.5819 110.686 23.6354 108.384L478.564 28.168C491.617 25.8664 504.065 34.5824 506.367 47.6359L553.42 314.487C555.722 327.541 547.006 339.988 533.952 342.29L79.0236 422.506C65.9701 424.808 53.5223 416.092 51.2206 403.038L4.16756 136.187Z" fill="url(#paint4_linear_7778_20039)"/>
<g clip-path="url(#clip0_7778_20039)">
<path d="M106.918 149.549C106.376 148.976 105.649 148.646 104.748 148.585C106.277 147.79 106.83 146.116 106.385 143.593C105.706 139.746 103.767 138.071 100.619 138.626L90.3039 140.445C88.3231 140.794 87.5044 142.015 87.8696 144.086L90.4928 158.963C90.6927 160.097 91.1224 160.852 91.7775 161.202C92.4132 161.539 93.2414 161.622 94.2277 161.448L104.543 159.629C106.343 159.312 107.521 158.545 108.033 157.362C108.532 156.206 108.635 154.721 108.323 152.954C108.048 151.393 107.575 150.247 106.918 149.549ZM91.1896 144.17C91.1113 143.726 91.137 143.391 91.2685 143.224C91.4068 143.047 91.7128 142.908 92.1649 142.829L100.022 141.443C100.959 141.278 101.662 141.417 102.096 141.857C102.55 142.32 102.873 143.093 103.058 144.145C103.279 145.394 103.246 146.316 102.971 146.872C102.702 147.411 102.022 147.786 100.962 147.973L92.1345 149.529L91.1896 144.17ZM104.821 156.114C104.497 156.68 103.776 157.061 102.683 157.254L94.9736 158.613C94.3161 158.729 94.0545 158.64 93.937 158.55C93.8181 158.453 93.6523 158.185 93.5291 157.487L92.59 152.161L101.746 150.546C102.749 150.369 103.497 150.526 103.962 151.003C104.449 151.502 104.797 152.322 104.992 153.431C105.22 154.629 105.159 155.529 104.821 156.114Z" fill="white"/>
<path d="M128.183 147.401C129.983 147.084 131.184 146.254 131.748 144.934C132.3 143.642 132.39 141.897 132.011 139.743C131.644 137.664 130.949 136.125 129.944 135.184C128.926 134.219 127.439 133.905 125.524 134.243L115.685 135.978C113.483 136.366 112.57 137.68 112.959 139.882L116.083 157.603L119.289 157.038L116.257 139.843C116.174 139.375 116.215 139.028 116.383 138.829C116.558 138.62 116.887 138.469 117.364 138.385L124.918 137.053C126.183 136.83 127.064 136.971 127.552 137.479C128.059 137.999 128.44 138.958 128.682 140.33C128.936 141.769 128.953 142.876 128.735 143.609C128.527 144.307 127.884 144.742 126.782 144.937L121.596 145.851C120.388 146.064 120.25 146.775 120.349 147.334L120.431 147.802C120.511 148.254 120.875 148.682 121.54 149.09L130.948 154.914L131.015 154.953L135.354 154.188L125.098 147.928L128.18 147.385L128.183 147.401Z" fill="white"/>
<path d="M193.675 122.218L196.701 139.379C196.756 139.692 196.649 139.71 196.583 139.722C196.567 139.725 196.434 139.74 196.092 139.385L183.221 125.459C182.352 124.519 181.288 124.156 180.046 124.375C179.299 124.507 178.677 124.828 178.207 125.335C177.714 125.854 177.555 126.585 177.719 127.514L181.006 146.155L184.145 145.602L181.134 128.522C181.063 128.12 181.219 128.092 181.293 128.079C181.416 128.057 181.607 128.176 181.809 128.412L194.568 142.23C195.082 142.792 195.598 143.167 196.101 143.333C196.605 143.498 197.187 143.531 197.82 143.419C198.658 143.272 199.29 142.914 199.691 142.352C200.1 141.788 200.224 141.046 200.066 140.15L196.805 121.657L193.673 122.209L193.675 122.218Z" fill="white"/>
<path d="M145.597 147.975L142.252 148.565L141.151 153.183L144.537 152.586L145.597 147.975Z" fill="white"/>
<path d="M169.938 126.403L166.732 126.968L170.443 148.009L173.648 147.444L169.938 126.403Z" fill="white"/>
<path d="M174.136 150.206L174.598 152.828L139.765 158.97L140.437 156.148L174.136 150.206Z" fill="white"/>
<path d="M152.211 131.749C151.735 131.019 151.219 130.492 150.672 130.181C150.108 129.866 149.441 129.78 148.668 129.916C147.879 130.055 147.281 130.364 146.89 130.84C146.513 131.296 146.217 131.976 145.999 132.853L143.267 144.318L141.22 144.679C140.99 144.72 140.801 144.897 140.747 145.118L140.366 146.711C140.323 146.896 140.375 147.099 140.51 147.236C140.646 147.382 140.844 147.449 141.041 147.414L156.921 144.614L160.309 149.796L163.695 149.199L152.211 131.749ZM146.472 143.753L148.802 133.85C148.811 133.806 148.833 133.735 148.863 133.619C148.885 133.505 148.904 133.417 148.918 133.355C148.921 133.321 148.937 133.267 148.98 133.175C149.009 133.102 149.04 133.037 149.073 132.981C149.091 132.943 149.12 132.913 149.142 132.892C149.157 132.881 149.18 132.868 149.205 132.864C149.205 132.864 149.398 132.855 149.945 133.649L155.465 142.176L146.473 143.761L146.472 143.753Z" fill="white"/>
<path d="M59.8096 174.415C56.0014 173.917 52.4085 172.093 49.7372 169.344C49.7536 169.773 49.6312 170.184 49.256 170.412L49.7171 171.152C51.8204 173.036 54.3362 174.423 57.074 175.194L56.8007 175.903C58.255 176.317 59.7735 176.566 61.3274 176.631C61.1152 175.956 61.1177 175.202 61.3078 174.549C60.7944 174.521 60.2959 174.482 59.8096 174.415Z" fill="white"/>
<path d="M46.706 149.657C46.0997 149.536 45.8841 149.082 45.8156 148.501C45.6429 148.819 45.4785 149.137 45.3252 149.469L44.6242 149.194C43.9138 150.692 43.3992 152.291 43.0963 153.938L44.3045 153.725L44.4465 154.531L42.0794 154.948L42.2011 155.638L42.8751 155.519C42.8325 155.951 42.8078 156.387 42.7913 156.822L43.4817 156.701L43.5918 157.325L41.7672 157.647L41.8614 158.181L42.7984 158.016C42.8162 158.598 42.8615 159.191 42.9398 159.779L44.2713 159.545L44.4742 160.695L41.0879 161.292L41.2632 162.287L43.3345 161.922C43.463 162.458 43.6162 162.991 43.7911 163.502L44.8843 163.309L44.9814 163.86L45.231 162.68C45.2784 162.469 45.3892 162.28 45.5415 162.134C44.3348 157.982 44.7604 153.475 46.706 149.657Z" fill="white"/>
<path d="M42.7838 165.231L44.3455 164.956C44.4339 165.169 44.5292 165.372 44.6244 165.576L44.9224 164.142L42.6621 164.541L42.7838 165.231Z" fill="white"/>
<path d="M74.1247 169.612C72.3792 171.343 70.2677 172.682 67.9498 173.523C68.3283 174.083 68.5506 174.815 68.5558 175.518C70.2939 174.898 71.905 174.037 73.3551 172.985L72.8557 172.412C74.5935 171.165 76.0857 169.63 77.2878 167.893C77.2231 167.718 77.2047 167.518 77.2483 167.332L77.6459 165.406C77.5318 165.384 77.4216 165.335 77.3264 165.276C76.4893 166.873 75.4095 168.343 74.1247 169.612Z" fill="white"/>
<path d="M80.3203 151.214C79.3465 148.334 77.7587 145.818 75.6423 143.716L75.0694 144.216C73.593 142.764 71.8885 141.556 70.0195 140.665C70.9192 141.49 71.4567 142.183 71.9076 143.299C73.4255 144.361 74.7757 145.674 75.8875 147.173L75.5669 147.23L75.6887 147.92L78.0558 147.503L78.1978 148.308L76.8088 148.553C77.0988 149.044 77.3753 149.555 77.6188 150.071L75.2188 150.494L75.3942 151.489L78.7805 150.892L78.9834 152.043L78.4245 152.141C78.5985 152.695 78.7507 153.27 78.87 153.851L77.407 154.109L77.5012 154.643L79.5642 154.279L79.6744 154.904L79.0662 155.011C79.1236 155.433 79.1647 155.858 79.196 156.276L78.3659 156.423L78.4876 157.113L80.3945 156.777L80.5365 157.582L79.394 157.784L81.0631 160.473C81.5929 157.422 81.3139 154.157 80.3203 151.214Z" fill="white"/>
<path d="M64.39 172.896C60.8993 173.622 61.7978 178.718 65.3262 178.206C68.817 177.48 67.9102 172.385 64.39 172.896Z" fill="white"/>
<path d="M66.927 163.652C66.9062 163.774 66.8047 163.919 66.94 164.014C67.0643 164.094 67.1909 163.995 67.3084 163.94C67.8562 163.683 68.2092 163.281 68.2939 162.656C68.5712 160.624 68.7865 156.366 67.8614 154.58C67.7778 154.442 67.7154 154.377 67.5684 154.504C66.39 155.56 65.2542 156.616 64.8484 158.255C64.5247 159.592 64.2862 160.931 64.111 162.292C64.0587 162.717 63.8933 162.932 63.4452 162.986C63.1546 163.02 62.8573 163.064 62.5614 163.116C62.2655 163.168 61.9793 163.227 61.6863 163.296C61.2468 163.399 61.0162 163.245 60.8233 162.872C60.1931 161.652 59.511 160.476 58.7497 159.331C57.8062 157.921 56.3776 157.317 54.9109 156.736C54.7276 156.658 54.6928 156.749 54.6614 156.907C54.5989 157.274 54.5858 157.633 54.6578 157.993C55.112 160.328 55.9079 162.535 57.0254 164.643C57.3203 165.21 57.7877 165.458 58.3906 165.513C58.5197 165.524 58.6739 165.581 58.7619 165.456C58.8485 165.322 58.7117 165.219 58.6503 165.111C58.2307 164.414 57.803 163.718 57.3902 163.011C57.3066 162.873 57.1722 162.736 57.2206 162.482C57.7107 163.243 58.1757 163.957 58.6257 164.683C59.2956 165.743 59.2874 165.744 60.5464 165.531C62.1327 165.251 63.719 164.972 65.2971 164.693C66.5464 164.473 66.545 164.465 66.812 163.24C66.9949 162.402 67.1874 161.572 67.3877 160.689C67.5201 160.911 67.4408 161.086 67.4094 161.244C67.2468 162.053 67.0814 162.845 66.927 163.652Z" fill="white"/>
<path d="M60.2988 161.049C60.6551 161.579 60.9388 161.987 61.2061 162.398C61.3105 162.557 61.444 162.593 61.6166 162.563C61.8878 162.515 62.159 162.467 62.4385 162.418C62.7097 162.37 62.9809 162.322 63.2604 162.273C63.433 162.242 63.5461 162.163 63.5897 161.977C63.7005 161.5 63.8277 161.02 63.981 160.4C62.8003 161.057 61.6332 161.263 60.2988 161.049Z" fill="white"/>
<path d="M62.6345 170.214C62.6479 170.915 62.804 171.608 62.9915 172.286C62.5452 172.543 62.1642 172.881 61.8537 173.284C59.7456 171.469 57.7352 168.959 57.1544 166.146C57.095 165.809 57.1908 165.631 57.5432 165.755C59.6428 166.512 62.5971 167.551 62.6345 170.214Z" fill="white"/>
<path d="M69.0199 164.173C69.3981 167.038 68.351 169.943 66.966 172.374C66.7025 172.225 66.4187 172.106 66.1228 172.014C66.1228 172.014 66.1228 172.014 66.1146 172.015C65.915 171.941 65.7018 171.885 65.4847 171.855C65.3987 171.032 65.2567 170.226 65.0146 169.43C64.3922 167.15 66.9583 165.265 68.4316 163.912C68.7594 163.608 68.9499 163.727 69.0199 164.173Z" fill="white"/>
<path d="M65.0816 171.74C65.0859 171.764 65.0888 171.781 65.0849 171.807C64.5111 171.773 63.8932 171.873 63.3671 172.11C63.2584 171.637 63.1729 171.153 63.1053 170.673C63.0478 170.251 63.2857 170.014 63.847 169.881C64.3194 169.772 64.712 169.932 64.8197 170.303C64.8908 170.561 64.9222 170.836 64.9685 171.099L64.9767 171.097C65.0062 171.312 65.0603 171.523 65.0816 171.74Z" fill="white"/>
<path d="M58.4713 150.778C58.1044 149.851 57.624 148.953 56.9584 148.206C56.458 147.675 55.7556 147.537 55.0748 147.809C53.5271 148.404 53.7449 150.408 54.9776 151.199C55.6559 151.681 56.412 151.692 57.234 151.547C57.5531 151.482 57.9021 151.395 58.2507 151.258C58.5665 151.126 58.5771 151.09 58.4713 150.778ZM55.7259 148.762C54.9369 149.045 54.9232 150.073 55.4863 150.576C54.6321 150.201 54.333 148.889 55.3392 148.491C55.7424 148.327 56.1645 148.414 56.4516 148.744C56.2162 148.659 55.9623 148.661 55.7259 148.762Z" fill="white"/>
<path d="M66.0033 147.263C65.5674 145.849 63.3328 145.768 62.7916 147.169C62.4216 148.098 62.287 149.114 62.2497 150.103C62.2583 150.441 62.2791 150.462 62.6209 150.478C62.9874 150.49 63.3534 150.451 63.6672 150.404C65.2559 150.234 66.53 148.857 66.0033 147.263ZM65.0063 147.185C64.0288 147.12 63.4441 147.986 63.0689 148.789C63.1308 148.372 63.1927 147.954 63.3688 147.558C63.6338 146.851 64.6424 146.707 65.1615 147.2C65.1093 147.192 65.0586 147.193 65.0063 147.185Z" fill="white"/>
<path d="M71.0012 143.789C70.6339 142.811 70.2061 142.26 69.4404 141.522C69.0764 141.188 68.6311 140.969 68.154 140.859C67.5569 140.693 67.3901 140.9 67.0458 141.351C66.9452 141.309 66.8461 141.276 66.7456 141.234C65.9828 140.369 65.0527 139.66 63.9959 139.194L64.3122 138.248L64.3335 138.176C64.7425 138.045 64.9268 137.504 64.6764 137.141L65.0488 136.033C65.8567 136.145 66.5714 135.392 66.4129 134.589C66.294 133.915 65.6559 133.468 64.982 133.587C63.9749 133.739 63.6101 135.083 64.3764 135.728L63.8889 136.856C63.4769 136.971 63.2661 137.458 63.4686 137.837C63.3719 138.058 63.118 138.636 63.0227 138.865C60.0113 137.744 56.4099 138.37 53.9415 140.424C53.7737 140.242 53.3788 139.828 53.2125 139.654C53.2367 139.455 53.1744 139.246 53.0303 139.102C52.8945 138.956 52.6934 138.873 52.4835 138.884L51.6531 137.972C52.1526 137.104 51.3502 135.966 50.3518 136.167C49.6778 136.286 49.231 136.924 49.3499 137.598C49.4754 138.406 50.4046 138.87 51.1255 138.488L51.8545 139.402C51.75 139.819 52.0917 140.267 52.5307 140.257C52.5418 140.272 53.1291 141.008 53.1707 141.051C52.3071 141.873 51.6524 142.87 51.2277 143.97C51.146 144.036 51.0658 144.109 50.9855 144.183C50.4387 143.821 50.2255 143.766 49.6995 144.147C48.745 144.789 48.3194 146.076 48.1399 147.125L48.6494 147.035L48.7683 147.709L46.7875 148.058L46.8904 148.642L48.115 148.426C48.3754 150.287 49.5199 152.212 51.387 152.9C51.7863 153.05 52.0851 153.014 52.3303 152.674C52.398 152.578 52.457 152.576 52.5522 152.635C54.425 153.644 56.5658 153.961 58.6684 153.87L58.8365 154.824C58.135 154.931 57.3498 155.188 56.85 154.564C56.5478 154.532 56.2524 154.491 55.9541 154.434C55.5707 154.806 55.2288 155.223 54.8981 155.654C55.2732 155.859 58.2864 157.472 58.576 157.624C60.3064 157.344 62.6856 156.899 64.4295 156.6C64.4358 156.54 67.0378 153.801 67.2863 153.529C66.8183 153.23 66.3339 152.934 65.8268 152.701C65.558 152.859 65.2863 153 65.0049 153.134C64.7417 153.901 63.8623 153.912 63.168 154.06L63.0028 153.123C65.0634 152.506 67.0226 151.457 68.4728 149.828C68.5419 149.74 68.598 149.721 68.6947 149.789C69.0413 150.024 69.3343 149.956 69.6583 149.678C71.3013 148.278 71.7203 145.704 71.0012 143.789ZM65.1753 134.011C65.4136 133.969 65.6544 134.037 65.8246 134.185C64.9761 133.843 64.3088 134.96 65.0059 135.549C64.2676 135.256 64.393 134.14 65.1753 134.011ZM50.6631 136.731C49.9944 136.832 49.7627 137.729 50.2838 138.137C49.1729 137.604 50.1188 136.047 51.1026 136.772C50.9744 136.718 50.8192 136.703 50.6631 136.731ZM63.9981 137.091C64.1214 137.07 64.2384 137.108 64.3268 137.177C63.9053 136.998 63.5513 137.585 63.9081 137.878C63.5431 137.731 63.6021 137.153 63.9981 137.091ZM52.1885 139.758C51.9173 139.374 52.4289 138.911 52.7871 139.212C52.3506 139.043 52.0183 139.611 52.3683 139.913C52.2939 139.876 52.2344 139.827 52.1885 139.758ZM48.8366 146.799C48.7337 146.071 49.0205 145.199 49.7032 144.841C49.2352 145.406 49.0359 146.103 48.8366 146.799ZM51.0418 149.452C51.2897 150.426 51.5487 151.414 52.1684 152.237C52.2825 152.403 52.0924 152.479 52.0054 152.562C51.9048 152.665 51.799 152.641 51.7182 152.52C51.5026 152.21 51.3021 151.89 51.1493 151.552C50.3238 149.706 49.9837 147.681 50.1281 145.664C50.1639 145.243 50.1737 144.817 50.3139 144.411C50.3299 144.357 50.3362 144.297 50.3908 144.27C50.589 144.337 50.7993 144.376 50.9801 144.489C51.0381 144.529 50.9907 144.597 50.9748 144.651C50.9148 144.839 50.8631 145.026 50.8277 145.21C50.5104 146.631 50.6939 148.056 51.0418 149.452ZM68.0019 146.004C68.0932 146.666 68.1216 147.356 68.0843 148.058C68.014 149.341 67.9405 149.405 66.9478 150.216C63.2828 152.981 58.5074 153.823 54.1095 152.479C52.8994 152.057 52.8003 152.024 52.3035 150.84C51.578 149.129 51.2863 147.282 51.5423 145.466C53.1405 146.455 54.9852 144.613 53.9425 143.026C53.77 142.768 53.4345 142.259 53.2634 142.01C54.5835 140.557 56.4962 139.533 58.3765 139.142C60.2853 138.865 62.4328 139.172 64.1621 140.088C64.0987 140.353 63.9347 141.009 63.8713 141.275C63.433 143.115 65.7884 144.217 66.96 142.739C67.4965 143.763 67.8416 144.855 68.0019 146.004ZM69.4155 146.619C69.4695 147.551 69.4815 148.532 69.2183 149.442C69.1758 149.585 69.0844 149.644 68.963 149.581C68.8514 149.524 68.6469 149.518 68.6986 149.331C69.1649 147.697 68.7384 144.942 68.1144 143.374C67.8897 142.821 67.5828 142.281 67.227 141.802C67.1937 141.757 67.126 141.709 67.1666 141.651C67.2885 141.477 67.4727 141.369 67.6376 141.246C67.7062 141.251 67.7246 141.307 67.7579 141.352C68.0286 141.686 68.1833 142.082 68.3611 142.466C68.9469 143.77 69.3224 145.178 69.4155 146.619ZM69.898 143.06C69.4823 142.48 69.0598 141.911 68.4348 141.538C69.189 141.634 69.7555 142.347 69.9077 143.066C69.9091 143.075 69.9091 143.075 69.9106 143.083C69.9091 143.075 69.9077 143.066 69.898 143.06Z" fill="white"/>
<path d="M62.9157 158.588L63.5822 157.08C62.374 157.293 60.9438 157.546 59.7109 157.763L60.7212 158.975L62.9157 158.588Z" fill="white"/>
<path d="M58.5203 157.973C58.3975 157.902 58.2389 157.819 58.12 157.722C58.7383 158.392 59.27 159.197 59.8012 159.951C59.9085 160.127 60.0318 160.249 60.1739 160.334C60.3823 160.458 60.5786 160.466 60.7502 160.478L63.3721 160.016C63.7004 159.907 64.0297 159.612 64.0849 159.204C64.3316 158.296 64.5584 157.324 64.9333 156.469C64.8317 156.615 64.7345 156.784 64.6039 156.909C64.382 156.948 64.1601 156.987 63.9218 157.029L63.2712 159.059L60.4931 159.549L59.393 157.828L58.5218 157.981L58.5203 157.973Z" fill="white"/>
<path d="M55.4263 162.874C54.9656 162.761 54.5159 163.094 54.4723 163.568C53.1707 164.069 51.4366 167.019 52.4914 167.858C53.6164 168.423 55.2228 166.19 55.5009 165.124C55.5967 164.802 55.3917 164.457 55.0741 164.386C56.0681 164.592 56.4125 163.133 55.4263 162.874ZM53.6998 166.781C53.5411 167.419 52.5868 167.197 52.7275 166.554C52.8862 165.916 53.8323 166.139 53.6998 166.781ZM55.6167 163.714C55.4977 164.192 54.7744 164.032 54.8823 163.538C55.0013 163.06 55.7178 163.23 55.6167 163.714Z" fill="white"/>
<path d="M52.3754 168.167C52.2222 168.067 52.1246 167.897 52.0869 167.684C52.069 167.678 52.0593 167.672 52.0593 167.672L52.1286 170.227L52.482 170.309L53.2819 168.117C52.9213 168.282 52.6046 168.313 52.3754 168.167Z" fill="white"/>
<path d="M72.5079 161.795C71.8843 161.286 71.1118 160.846 70.3111 160.775C70.1096 160.353 69.5715 160.186 69.1775 160.45C68.3308 161.031 69.1535 162.285 70.0253 161.75C69.7511 161.925 69.6766 162.32 69.8767 162.589C70.5042 163.504 72.7772 165.053 73.6398 164.129C74.018 163.63 73.509 162.618 72.5079 161.795ZM69.9088 161.329C69.5302 161.778 68.9313 161.12 69.4056 160.783C69.7615 160.542 70.1651 161.005 69.9088 161.329ZM72.8301 163.67C72.2736 164.023 71.739 163.202 72.2844 162.834C72.8424 162.49 73.3741 163.295 72.8301 163.67Z" fill="white"/>
<path d="M73.9653 163.817C74.0629 164.419 73.6142 164.71 72.9919 164.642L74.4934 166.428L74.7975 166.23L73.9885 163.805C73.9885 163.805 73.9803 163.806 73.9653 163.817Z" fill="white"/>
<path d="M51.2608 158.143C51.5006 158.541 52.0023 159.368 52.2435 159.774L52.8938 159.617C52.8886 159.059 53.6689 158.871 53.9178 159.369L54.4941 159.225C54.3163 158.553 54.1288 157.874 54.04 157.178L51.2608 158.143Z" fill="white"/>
<path d="M50.7778 158.482L48.6105 161.33C49.0949 161.77 48.5093 162.535 47.9558 162.183L47.5641 162.701C47.8334 162.883 48.7059 163.458 49.1173 163.724L51.8316 160.084C51.5933 159.694 51.0978 158.951 50.7778 158.482Z" fill="white"/>
<path d="M47.3104 165.102C47.9497 164.498 47.7269 163.427 46.8939 163.125C46.514 162.988 46.2331 162.885 46.2331 162.885C45.6946 165.455 45.1286 168.156 44.5901 170.726C45.8806 170.354 47.4132 169.915 48.694 169.536C48.7459 168.196 48.839 165.841 48.8866 164.477L47.3104 165.102ZM46.6219 169.368C46.4372 169.426 45.6544 169.648 45.4682 169.698C45.6023 169.064 45.8045 168.096 45.9385 167.463C45.9587 167.866 45.9944 168.741 46.0132 169.136C46.2902 169.121 47.4573 169.059 47.759 169.04L46.6219 169.368Z" fill="white"/>
<path d="M45.349 171.135L46.0027 174.841L46.8647 175.02L47.9494 175.981L48.1796 175.941L46.7894 174.016C47.036 173.973 47.2096 173.756 47.199 173.503L47.1233 171.584L47.9863 171.432L48.9106 172.685L48.6222 174.269L48.7866 174.24L49.4163 172.621L48.0174 170.359L45.349 171.135Z" fill="white"/>
<path d="M56.6218 169.367C56.8698 169.62 57.4126 170.151 57.6621 170.413C57.856 170.311 58.2505 170.097 58.4444 169.995L57.496 168.798L56.6218 169.367Z" fill="white"/>
<path d="M55.0688 172.437L56.4032 172.939L57.2809 170.852C57.018 170.611 56.5114 170.141 56.1889 169.85L55.0688 172.437Z" fill="white"/>
<path d="M69.6526 166.654L69.1708 168.104C69.3879 168.133 69.8317 168.199 70.0488 168.228C70.2021 167.896 70.5223 167.213 70.6688 166.89L69.6526 166.654Z" fill="white"/>
<path d="M70.5559 168.512L72.0849 170.166L73.167 169.238L71.2392 167.197C71.0356 167.58 70.7189 168.187 70.5559 168.512Z" fill="white"/>
<path d="M68.6119 154.609C68.7665 155.293 68.8225 155.995 68.8852 156.688L69.4761 156.626C69.5395 156.072 70.3372 155.982 70.5233 156.509L71.188 156.434C71.2756 155.969 71.4643 155.021 71.5533 154.565L68.6119 154.609Z" fill="white"/>
<path d="M76.0254 157.242C75.6255 157.762 74.8124 157.236 75.1185 156.665L72.1077 154.729C71.9674 155.28 71.7628 156.138 71.6574 156.597L75.4527 159.089C75.7482 158.698 76.3715 157.859 76.5625 157.597L76.0254 157.242Z" fill="white"/>
<path d="M81.2314 162.68C80.153 160.938 78.9745 159.061 77.8947 157.311C77.8947 157.311 77.666 157.504 77.3556 157.762C76.6666 158.324 76.8235 159.407 77.6406 159.763L75.9552 159.721C76.4747 160.985 77.3582 163.16 77.8667 164.409C78.7456 164.348 79.7508 164.28 80.6297 164.219L80.6379 164.217L82.1367 164.114L81.2314 162.68ZM80.9339 163.445C80.3223 163.485 79.1924 163.565 78.5644 163.608C78.693 163.569 80.1652 163.123 80.2378 163.101C80.1938 162.948 79.7951 161.696 79.7357 161.503C80.0784 162.053 80.6106 162.908 80.9339 163.445Z" fill="white"/>
<path d="M78.242 167.546L79.3876 168.853L79.552 168.824L78.739 167.433L79.1792 165.941L80.0422 165.788L80.6274 167.617C80.7038 167.858 80.9411 168.003 81.1877 167.959L80.5395 170.243L80.7697 170.203L81.4603 168.928L82.2092 168.466L81.5556 164.759L78.7843 164.951L78.242 167.546Z" fill="white"/>
</g>
<path d="M62.677 238.583L59.2207 218.981L60.3754 219.817L52.1188 221.273L51.5076 217.807L70.1638 214.517L70.775 217.984L62.5184 219.439L63.286 218.264L66.7423 237.866L62.677 238.583ZM76.4303 236.158L73.463 219.329L81.6881 217.879C83.726 217.52 85.3894 217.616 86.6783 218.169C87.9881 218.718 88.7653 219.685 89.0098 221.072C89.2506 222.438 88.8933 223.605 87.9379 224.575C86.9788 225.524 85.5958 226.158 83.789 226.477L84.0895 225.416C86.1274 225.057 87.7067 225.168 88.8275 225.751C89.9656 226.308 90.6606 227.301 90.9125 228.73C91.1755 230.222 90.8244 231.486 89.8591 232.522C88.8901 233.538 87.2711 234.246 85.0021 234.646L76.4303 236.158ZM79.6748 232.629L84.1813 231.834C85.2527 231.645 86.032 231.334 86.5189 230.902C87.0022 230.448 87.1808 229.864 87.0549 229.15C86.9215 228.394 86.5713 227.882 86.0041 227.613C85.4369 227.345 84.6175 227.305 83.5461 227.494L78.9135 228.311L79.6748 232.629ZM78.4523 225.696L82.5806 224.968C83.5891 224.79 84.3139 224.478 84.7552 224.032C85.2137 223.561 85.3837 222.989 85.2652 222.317C85.1429 221.624 84.7895 221.155 84.205 220.912C83.6415 220.665 82.8556 220.63 81.8471 220.808L77.7188 221.536L78.4523 225.696ZM103.166 231.671C101.443 231.975 99.8446 231.877 98.3704 231.379C96.8924 230.86 95.6499 230.018 94.6429 228.852C93.6359 227.686 92.986 226.274 92.6934 224.614C92.397 222.933 92.5245 221.384 93.0759 219.965C93.6236 218.525 94.5049 217.319 95.7198 216.347C96.9347 215.375 98.4036 214.737 100.126 214.433C101.87 214.125 103.479 214.221 104.953 214.719C106.449 215.213 107.687 216.035 108.67 217.183C109.673 218.327 110.325 219.751 110.625 221.452C110.917 223.112 110.79 224.662 110.242 226.101C109.716 227.537 108.836 228.754 107.604 229.751C106.389 230.723 104.91 231.363 103.166 231.671ZM102.571 228.299C103.538 228.128 104.362 227.766 105.044 227.213C105.727 226.659 106.207 225.946 106.487 225.074C106.787 224.198 106.843 223.224 106.654 222.153C106.461 221.06 106.076 220.164 105.498 219.464C104.937 218.74 104.241 218.235 103.411 217.948C102.58 217.661 101.692 217.601 100.747 217.768C99.7804 217.938 98.9561 218.3 98.2739 218.854C97.6126 219.403 97.1318 220.116 96.8314 220.993C96.5272 221.848 96.4715 222.822 96.6641 223.914C96.8531 224.985 97.2385 225.881 97.8205 226.602C98.4024 227.323 99.0981 227.828 99.9075 228.119C100.738 228.405 101.626 228.466 102.571 228.299ZM115.685 229.236L112.717 212.408L116.657 211.713L118.613 222.806L125.953 210.074L129.546 209.44L132.513 226.269L128.574 226.963L126.618 215.87L119.309 228.597L115.685 229.236ZM120.529 208.983C118.849 209.279 117.488 209.119 116.448 208.5C115.403 207.861 114.738 206.787 114.45 205.278L117.065 204.817C117.22 205.57 117.557 206.128 118.075 206.491C118.615 206.851 119.295 206.959 120.115 206.814C120.913 206.673 121.504 206.342 121.889 205.819C122.294 205.293 122.441 204.649 122.328 203.889L125.007 203.417C125.253 204.933 124.984 206.172 124.2 207.134C123.434 208.07 122.21 208.687 120.529 208.983ZM157.821 199.061L161.918 198.338L165.808 220.398L161.711 221.12L157.821 199.061ZM150.303 223.132L146.206 223.854L142.317 201.794L146.413 201.072L150.303 223.132ZM160.359 211.611L148.29 213.739L147.673 210.241L159.743 208.112L160.359 211.611ZM171.404 219.411L167.514 197.351L176.59 195.751C178.544 195.407 180.27 195.427 181.768 195.813C183.286 196.195 184.528 196.908 185.491 197.951C186.455 198.994 187.08 200.324 187.365 201.942C187.65 203.56 187.518 205.024 186.97 206.334C186.417 207.622 185.492 208.706 184.196 209.585C182.917 210.438 181.3 211.037 179.346 211.382L172.539 212.582L174.039 210.401L175.501 218.689L171.404 219.411ZM185.837 216.866L178.848 209.845L183.228 209.073L190.249 216.088L185.837 216.866ZM174.117 210.842L171.945 209.21L178.563 208.043C180.369 207.725 181.656 207.097 182.422 206.161C183.21 205.22 183.481 204.057 183.237 202.67C182.988 201.262 182.335 200.262 181.278 199.669C180.241 199.072 178.819 198.932 177.012 199.251L170.394 200.418L171.867 198.079L174.117 210.842ZM202.691 213.894L198.802 191.835L218.309 188.395L222.198 210.455L218.165 211.166L214.708 191.564L215.832 192.406L202.501 194.757L203.269 193.581L206.725 213.183L202.691 213.894ZM237.873 207.691L237.273 204.287L236.924 203.601L235.874 197.645C235.67 196.49 235.166 195.658 234.362 195.15C233.554 194.621 232.446 194.481 231.038 194.729C230.093 194.896 229.184 195.207 228.311 195.665C227.46 196.118 226.765 196.663 226.227 197.299L224.178 194.704C224.959 193.851 225.939 193.148 227.12 192.593C228.317 192.013 229.588 191.605 230.933 191.368C233.37 190.938 235.354 191.195 236.885 192.138C238.433 193.057 239.422 194.734 239.852 197.171L241.591 207.035L237.873 207.691ZM232.617 208.845C231.357 209.067 230.217 209.052 229.197 208.798C228.174 208.524 227.333 208.055 226.675 207.391C226.033 206.702 225.627 205.875 225.457 204.909C225.29 203.963 225.361 203.073 225.669 202.239C225.998 201.401 226.638 200.671 227.589 200.048C228.541 199.426 229.868 198.964 231.57 198.664L236.454 197.803L236.915 200.419L232.314 201.23C230.97 201.467 230.105 201.847 229.721 202.37C229.333 202.871 229.194 203.437 229.305 204.068C229.431 204.782 229.815 205.299 230.456 205.619C231.098 205.939 231.923 206.011 232.931 205.833C233.897 205.662 234.72 205.29 235.399 204.715C236.098 204.137 236.54 203.388 236.724 202.467L237.803 204.714C237.599 205.768 237.051 206.655 236.16 207.376C235.29 208.092 234.109 208.582 232.617 208.845ZM255.518 204.807C254.152 205.048 252.847 204.953 251.601 204.523C250.376 204.089 249.317 203.301 248.422 202.159C247.545 200.992 246.934 199.432 246.59 197.478C246.241 195.503 246.271 193.83 246.679 192.458C247.108 191.083 247.826 189.992 248.832 189.187C249.834 188.36 251.05 187.821 252.478 187.569C254.138 187.276 255.661 187.376 257.048 187.868C258.455 188.356 259.64 189.177 260.601 190.328C261.583 191.477 262.228 192.923 262.536 194.666C262.843 196.41 262.733 198 262.207 199.436C261.697 200.847 260.865 202.023 259.709 202.963C258.575 203.9 257.178 204.514 255.518 204.807ZM247.229 212.345L243.184 189.403L246.934 188.742L247.634 192.712L248.297 197.21L249.401 201.629L251.168 211.65L247.229 212.345ZM254.482 201.513C255.427 201.346 256.231 200.988 256.892 200.438C257.574 199.885 258.066 199.17 258.366 198.294C258.666 197.417 258.722 196.444 258.533 195.372C258.341 194.28 257.955 193.384 257.377 192.684C256.795 191.964 256.089 191.46 255.258 191.173C254.449 190.882 253.572 190.821 252.626 190.987C251.681 191.154 250.867 191.514 250.185 192.068C249.502 192.621 249.011 193.336 248.711 194.212C248.407 195.067 248.351 196.041 248.543 197.134C248.732 198.205 249.118 199.101 249.7 199.822C250.282 200.542 250.988 201.046 251.818 201.333C252.649 201.62 253.537 201.68 254.482 201.513ZM270.507 201.937L267.962 187.503L269.043 188.288L262.204 189.493L261.615 186.153L277.372 183.374L277.961 186.715L271.154 187.915L271.901 186.809L274.446 201.242L270.507 201.937ZM282.882 199.755L279.914 182.926L283.854 182.232L285.059 189.07L293.537 187.575L292.331 180.737L296.27 180.042L299.237 196.871L295.298 197.565L294.126 190.916L285.648 192.411L286.821 199.06L282.882 199.755ZM312.087 194.832C310.218 195.162 308.514 195.083 306.977 194.596C305.457 194.084 304.193 193.246 303.186 192.08C302.2 190.911 301.561 189.496 301.268 187.837C300.972 186.156 301.078 184.61 301.588 183.199C302.114 181.763 302.964 180.562 304.137 179.597C305.331 178.629 306.768 177.996 308.449 177.7C310.088 177.411 311.611 177.511 313.018 177.999C314.426 178.487 315.612 179.318 316.577 180.491C317.542 181.664 318.18 183.133 318.492 184.897C318.521 185.065 318.544 185.256 318.56 185.47C318.597 185.68 318.622 185.882 318.634 186.074L304.61 188.547L304.149 185.932L316.093 183.826L314.693 184.917C314.544 183.947 314.194 183.131 313.644 182.47C313.095 181.809 312.415 181.333 311.606 181.043C310.817 180.748 309.95 180.685 309.005 180.851C308.038 181.022 307.225 181.382 306.563 181.932C305.923 182.478 305.46 183.166 305.173 183.996C304.903 184.802 304.857 185.709 305.035 186.718L305.146 187.348C305.324 188.356 305.713 189.209 306.312 189.904C306.911 190.6 307.668 191.084 308.583 191.356C309.497 191.628 310.5 191.668 311.593 191.475C312.538 191.308 313.363 191.011 314.068 190.584C314.772 190.156 315.363 189.576 315.84 188.842L318.379 190.896C317.779 191.912 316.943 192.763 315.873 193.45C314.82 194.112 313.558 194.573 312.087 194.832ZM333.319 191.089C331.953 191.329 330.648 191.235 329.402 190.804C328.177 190.371 327.118 189.583 326.223 188.441C325.346 187.274 324.735 185.714 324.391 183.76C324.042 181.785 324.072 180.112 324.48 178.74C324.909 177.364 325.627 176.274 326.633 175.468C327.635 174.642 328.851 174.102 330.279 173.851C331.939 173.558 333.462 173.658 334.849 174.15C336.256 174.638 337.441 175.458 338.402 176.61C339.384 177.758 340.029 179.204 340.337 180.948C340.644 182.692 340.534 184.282 340.008 185.718C339.498 187.129 338.666 188.304 337.51 189.245C336.376 190.181 334.979 190.796 333.319 191.089ZM325.03 198.627L320.985 175.684L324.735 175.023L325.435 178.994L326.098 183.491L327.202 187.911L328.969 197.932L325.03 198.627ZM332.283 187.794C333.229 187.628 334.032 187.269 334.693 186.72C335.375 186.166 335.867 185.451 336.167 184.575C336.468 183.699 336.523 182.725 336.334 181.654C336.142 180.561 335.756 179.665 335.178 178.966C334.596 178.245 333.89 177.741 333.059 177.455C332.25 177.164 331.373 177.102 330.427 177.269C329.482 177.436 328.668 177.796 327.986 178.349C327.303 178.903 326.812 179.618 326.512 180.494C326.208 181.349 326.152 182.323 326.344 183.415C326.533 184.487 326.919 185.383 327.501 186.103C328.083 186.824 328.789 187.327 329.619 187.614C330.45 187.901 331.338 187.961 332.283 187.794Z" fill="white"/>
<defs>
<filter id="filter0_f_7778_20039" x="73.6602" y="140.497" width="661.904" height="390.314" filterUnits="userSpaceOnUse" color-interpolation-filters="sRGB">
<feFlood flood-opacity="0" result="BackgroundImageFix"/>
<feBlend mode="normal" in="SourceGraphic" in2="BackgroundImageFix" result="shape"/>
<feGaussianBlur stdDeviation="50" result="effect1_foregroundBlur_7778_20039"/>
</filter>
<filter id="filter1_f_7778_20039" x="111.742" y="260.219" width="384.482" height="208.355" filterUnits="userSpaceOnUse" color-interpolation-filters="sRGB">
<feFlood flood-opacity="0" result="BackgroundImageFix"/>
<feBlend mode="normal" in="SourceGraphic" in2="BackgroundImageFix" result="shape"/>
<feGaussianBlur stdDeviation="32" result="effect1_foregroundBlur_7778_20039"/>
</filter>
<filter id="filter2_f_7778_20039" x="87.2188" y="315.111" width="433.529" height="132.345" filterUnits="userSpaceOnUse" color-interpolation-filters="sRGB">
<feFlood flood-opacity="0" result="BackgroundImageFix"/>
<feBlend mode="normal" in="SourceGraphic" in2="BackgroundImageFix" result="shape"/>
<feGaussianBlur stdDeviation="16" result="effect1_foregroundBlur_7778_20039"/>
</filter>
<linearGradient id="paint0_linear_7778_20039" x1="95" y1="166.844" x2="468.979" y2="198.289" gradientUnits="userSpaceOnUse">
<stop stop-color="#1677FF"/>
<stop offset="1" stop-color="#91CAFF"/>
</linearGradient>
<linearGradient id="paint1_linear_7778_20039" x1="170.613" y1="216.093" x2="787.335" y2="355.01" gradientUnits="userSpaceOnUse">
<stop stop-color="#1677FF"/>
<stop offset="1" stop-color="#91CAFF"/>
</linearGradient>
<linearGradient id="paint2_linear_7778_20039" x1="173.903" y1="318.221" x2="499.868" y2="423.905" gradientUnits="userSpaceOnUse">
<stop stop-color="#1677FF"/>
<stop offset="1" stop-color="#91CAFF"/>
</linearGradient>
<linearGradient id="paint3_linear_7778_20039" x1="116.378" y1="366.983" x2="274.796" y2="606.163" gradientUnits="userSpaceOnUse">
<stop stop-color="#1677FF"/>
<stop offset="1" stop-color="#91CAFF"/>
</linearGradient>
<linearGradient id="paint4_linear_7778_20039" x1="-10.2134" y1="54.6287" x2="689.001" y2="26.0079" gradientUnits="userSpaceOnUse">
<stop stop-color="#1677FF"/>
<stop offset="1" stop-color="#91CAFF"/>
</linearGradient>
<clipPath id="clip0_7778_20039">
<rect width="160.243" height="44" fill="white" transform="translate(37.0703 138.509) rotate(-10)"/>
</clipPath>
</defs>
</svg>
