<svg width="80" height="80" viewBox="0 0 80 80" fill="none" xmlns="http://www.w3.org/2000/svg">
<path d="M30.5326 36.2334C30.1992 36.2001 29.7992 36.2001 29.4326 36.2334C21.4992 35.9667 15.1992 29.4667 15.1992 21.4667C15.1992 13.3001 21.7992 6.66675 29.9992 6.66675C38.1659 6.66675 44.7992 13.3001 44.7992 21.4667C44.7659 29.4667 38.4659 35.9667 30.5326 36.2334Z" stroke="#12536D" stroke-width="2.5" stroke-linecap="round" stroke-linejoin="round"/>
<path d="M54.7009 13.3333C61.1676 13.3333 66.3676 18.5666 66.3676 24.9999C66.3676 31.2999 61.3676 36.4333 55.1342 36.6666C54.8676 36.6333 54.5676 36.6333 54.2676 36.6666" stroke="#12536D" stroke-width="2.5" stroke-linecap="round" stroke-linejoin="round"/>
<path d="M13.8664 48.5333C5.79974 53.9333 5.79974 62.7333 13.8664 68.0999C23.0331 74.2333 38.0664 74.2333 47.2331 68.0999C55.2997 62.6999 55.2997 53.8999 47.2331 48.5333C38.0997 42.4333 23.0664 42.4333 13.8664 48.5333Z" stroke="#12536D" stroke-width="2.5" stroke-linecap="round" stroke-linejoin="round"/>
<path d="M61.1328 66.6667C63.5328 66.1667 65.7995 65.2001 67.6661 63.7667C72.8661 59.8667 72.8661 53.4334 67.6661 49.5334C65.8328 48.1334 63.5995 47.2001 61.2328 46.6667" stroke="#12536D" stroke-width="2.5" stroke-linecap="round" stroke-linejoin="round"/>
</svg>
