<?xml version="1.0" encoding="UTF-8"?> <svg xmlns="http://www.w3.org/2000/svg" width="83" height="22" viewBox="0 0 83 22" fill="none"> <path fill-rule="evenodd" clip-rule="evenodd" d="M80.5362 10.9388C80.5646 10.4672 80.4187 10.0013 80.1252 9.62641C79.9991 9.47384 79.8389 9.35174 79.6569 9.26958C79.475 9.18742 79.2762 9.1474 79.0759 9.1526C78.8505 9.14889 78.6272 9.19611 78.4234 9.29061C78.2196 9.3851 78.0408 9.52432 77.9008 9.69748C77.5695 10.1329 77.4059 10.6691 77.439 11.2113V15.7598H74.9825V10.9388C75.0117 10.4663 74.8639 9.99963 74.5667 9.62641C74.4407 9.47488 74.2812 9.35347 74.1002 9.27137C73.9193 9.18928 73.7216 9.14866 73.5222 9.1526C73.2961 9.14906 73.0722 9.19632 72.8676 9.29078C72.6631 9.38523 72.4834 9.52436 72.3423 9.69748C72.0073 10.1313 71.8418 10.6683 71.8756 11.2113V15.7598H69.4191V6.99442H71.4066L71.8756 8.06759C71.959 7.94677 72.0511 7.83197 72.1513 7.72408C72.3903 7.50459 72.6587 7.31809 72.9492 7.16973C73.3435 6.94046 73.7938 6.82012 74.2523 6.82148C74.5882 6.8183 74.9221 6.87282 75.2388 6.98258C75.5046 7.06707 75.7545 7.19351 75.9787 7.35688C76.1527 7.48788 76.3145 7.63375 76.4622 7.79278C76.5729 7.90742 76.6643 8.03856 76.733 8.1813L76.8056 8.33766L76.924 8.17656C77.0356 8.0487 77.1551 7.92765 77.2819 7.8141C77.4678 7.639 77.6693 7.48044 77.8839 7.3403C78.1465 7.1825 78.4295 7.05981 78.7253 6.97547C79.0747 6.86673 79.4394 6.81237 79.8061 6.81438C80.2447 6.79478 80.6823 6.87188 81.0865 7.03998C81.4907 7.20808 81.8513 7.4629 82.1417 7.78568C82.7155 8.43479 83.0016 9.39029 83 10.6522V15.7598H80.5362V10.9388ZM66.5274 14.5706C66.0928 15.0026 65.5749 15.3457 65.0038 15.5799C64.4326 15.8141 63.8197 15.9347 63.2005 15.9347C62.5814 15.9347 61.9684 15.8141 61.3973 15.5799C60.8262 15.3457 60.3082 15.0026 59.8736 14.5706C59.4274 14.1627 59.0715 13.6692 58.8283 13.1209C58.585 12.5725 58.4594 11.981 58.4594 11.383C58.4594 10.7851 58.585 10.1936 58.8283 9.64519C59.0715 9.09683 59.4274 8.60338 59.8736 8.19552C60.3082 7.76346 60.8262 7.42037 61.3973 7.18618C61.9684 6.952 62.5814 6.83141 63.2005 6.83141C63.8197 6.83141 64.4326 6.952 65.0038 7.18618C65.5749 7.42037 66.0928 7.76346 66.5274 8.19552C66.9731 8.60374 67.3283 9.09732 67.5712 9.64563C67.8141 10.1939 67.9394 10.7853 67.9394 11.383C67.9394 11.9808 67.8141 12.5721 67.5712 13.1204C67.3283 13.6688 66.9731 14.1623 66.5274 14.5706ZM61.6604 13.026C61.8553 13.2365 62.093 13.4048 62.3583 13.5199C62.6235 13.635 62.9104 13.6945 63.2005 13.6945C63.4907 13.6945 63.7776 13.635 64.0428 13.5199C64.3081 13.4048 64.5458 13.2365 64.7407 13.026C64.9559 12.8056 65.1242 12.5455 65.2359 12.2608C65.3475 11.9761 65.4003 11.6725 65.3911 11.3676C65.3997 11.0628 65.3467 10.7594 65.2351 10.4748C65.1235 10.1901 64.9554 9.92999 64.7407 9.70932C64.5466 9.49746 64.3091 9.32801 64.0438 9.21202C63.7784 9.09602 63.4911 9.03607 63.2005 9.03607C62.91 9.03607 62.6227 9.09602 62.3573 9.21202C62.0919 9.32801 61.8545 9.49746 61.6604 9.70932C61.446 9.93011 61.2783 10.1903 61.1671 10.475C61.0559 10.7596 61.0033 11.063 61.0124 11.3676C61.0028 11.6723 61.0551 11.9759 61.1663 12.2606C61.2776 12.5453 61.4455 12.8055 61.6604 13.026ZM50.669 8.19552C51.1135 7.75663 51.6435 7.40969 52.2274 7.17529C52.8114 6.94089 53.4375 6.82379 54.0685 6.83096C54.5164 6.82829 54.9622 6.89137 55.391 7.01811C55.7533 7.11809 56.0993 7.26805 56.4186 7.46349C56.6721 7.62006 56.9145 7.7934 57.1439 7.9823C57.312 8.11553 57.4637 8.26737 57.5961 8.43479L57.7314 8.6172L56.1816 10.1357C56.1095 10.0225 56.0286 9.91481 55.9398 9.81356C55.7329 9.60427 55.4929 9.42908 55.229 9.29474C54.8818 9.08652 54.4828 8.97588 54.0757 8.97493C53.7624 8.97284 53.4522 9.03499 53.1649 9.15739C52.8775 9.27979 52.6195 9.45972 52.4074 9.68563C51.9578 10.1437 51.7067 10.7546 51.7067 11.3901C51.7067 12.0257 51.9578 12.6366 52.4074 13.0947C52.6189 13.3201 52.8761 13.4998 53.1625 13.6221C53.449 13.7445 53.7584 13.8069 54.0709 13.8054C54.4737 13.8054 54.8701 13.7069 55.2242 13.5187C55.5231 13.3761 55.7927 13.181 56.0196 12.943L56.2614 12.6445L57.7121 14.1631L57.5646 14.3597C57.4331 14.5137 57.2883 14.6564 57.1318 14.7861C56.9086 14.9868 56.6656 15.1654 56.4065 15.3192C56.085 15.499 55.7434 15.6421 55.3886 15.7456C54.9608 15.8778 54.5146 15.9441 54.066 15.9422C53.435 15.9494 52.809 15.8323 52.225 15.5979C51.6411 15.3635 51.1111 15.0165 50.6666 14.5777C50.2148 14.173 49.8541 13.6806 49.6072 13.1318C49.3604 12.583 49.2329 11.9899 49.2329 11.3901C49.2329 10.7904 49.3604 10.1973 49.6072 9.64847C49.8541 9.09968 50.2148 8.60727 50.6666 8.20262L50.669 8.19552ZM44.0104 7.14367C44.3574 7.29169 44.675 7.4986 44.9485 7.75488L45.2193 8.07707V3.25374H47.6758V15.7598H45.6883L45.2193 14.6843C45.1951 14.7174 45.1588 14.7624 45.1081 14.8193C45.0573 14.8762 44.9509 14.9733 44.7865 15.1154C44.6211 15.2609 44.4422 15.391 44.2522 15.5039C44.0244 15.634 43.7806 15.7351 43.5268 15.8048C43.2206 15.8926 42.903 15.9365 42.5839 15.9351C42.0148 15.9366 41.4518 15.8196 40.9324 15.5917C40.4131 15.3637 39.9491 15.0302 39.5713 14.6132C39.1514 14.1837 38.8222 13.6771 38.6027 13.1226C38.3832 12.568 38.2777 11.9765 38.2922 11.3819C38.278 10.7873 38.3836 10.1958 38.6031 9.64129C38.8226 9.08679 39.1516 8.58019 39.5713 8.15051C39.9496 7.73427 40.4137 7.40143 40.933 7.17396C41.4524 6.9465 42.015 6.82959 42.5839 6.83096C43.0774 6.82786 43.5652 6.93479 44.0104 7.14367ZM44.5834 13.1183C45.0175 12.6424 45.2456 12.0196 45.2193 11.3819C45.2447 10.7455 45.0147 10.1247 44.5786 9.65246C44.3835 9.4392 44.1448 9.26862 43.878 9.15183C43.6112 9.03505 43.3222 8.97468 43.0299 8.97468C42.7377 8.97468 42.4487 9.03505 42.1819 9.15183C41.9151 9.26862 41.6764 9.4392 41.4813 9.65246C41.0452 10.1247 40.8152 10.7455 40.8406 11.3819C40.8156 12.0203 41.0454 12.6432 41.4813 13.1183C41.6759 13.3323 41.9145 13.5035 42.1814 13.6207C42.4483 13.7379 42.7375 13.7985 43.0299 13.7985C43.3224 13.7985 43.6116 13.7379 43.8785 13.6207C44.1454 13.5035 44.3839 13.3323 44.5786 13.1183H44.5834ZM31.9914 15.7598L28.6186 6.99442H31.1718L33.2632 12.8033L35.3643 6.99442H37.9102L34.5446 15.7598H31.9914ZM5.8283 10.548C5.87438 10.4296 5.92766 10.3141 5.98788 10.2021C6.07195 10.0608 6.19189 9.94332 6.33604 9.86094C6.51747 9.76922 6.72828 9.75051 6.92357 9.80882C7.32493 9.93201 7.56913 10.2116 7.90762 10.548C7.22038 10.6729 6.51554 10.6729 5.8283 10.548ZM0.00621251 11.3676C-0.0559358 9.53769 0.349018 7.72148 1.18436 6.08365C2.01971 4.44583 3.25903 3.03817 4.78998 1.9883C6.32094 0.938422 8.0951 0.279529 9.95165 0.0713484C11.8082 -0.136832 13.6884 0.112282 15.4219 0.796108C17.1553 1.47993 18.6872 2.57685 19.8786 3.98741C21.07 5.39797 21.8832 7.07758 22.2446 8.87397C22.606 10.6704 22.5042 12.5267 21.9482 14.2748C21.3923 16.0228 20.3999 17.6073 19.061 18.8845C18.841 19.0954 18.766 19.1593 18.8917 18.8845C19.5059 17.5603 19.5034 15.7456 19.3511 14.1655C19.182 12.4225 18.4686 10.773 17.3081 9.44162C16.8056 8.85861 16.4959 8.13974 16.4199 7.38031C16.3439 6.62089 16.5052 5.85676 16.8825 5.18923C17.0078 4.96923 17.1458 4.75646 17.296 4.55196C17.325 4.51139 17.3424 4.46393 17.3463 4.41454C17.3503 4.36514 17.3406 4.31561 17.3184 4.27111C17.2962 4.2266 17.2622 4.18874 17.22 4.16147C17.1778 4.13421 17.1289 4.11852 17.0784 4.11606C16.9841 4.11606 16.8874 4.11606 16.7907 4.11606C15.0604 4.11441 13.4003 4.78585 12.1751 5.98285L12.2065 5.99943L12.3782 6.11552C12.5942 6.27707 12.78 6.47428 12.927 6.6983C12.5242 6.58655 12.1137 6.50342 11.6987 6.44955C11.5658 6.43296 11.4328 6.41638 11.2998 6.40454C11.0338 6.38085 10.7679 6.369 10.4971 6.369H10.4657C8.56768 6.369 6.9816 6.81201 5.72917 7.63406C5.24736 7.94526 4.89094 8.41089 4.72094 8.95123C4.60721 9.32295 4.58321 9.71548 4.65083 10.0978C4.70479 10.3929 4.81031 10.6766 4.96272 10.9365C4.62223 10.8161 4.31741 10.6151 4.07539 10.3513C3.5072 10.5882 2.97287 10.8512 2.47722 11.1165C2.30879 11.2036 2.17824 11.3475 2.10971 11.5216C2.07452 11.6115 2.06059 11.7081 2.06896 11.8041C2.07733 11.9 2.1078 11.9929 2.15806 12.0757C2.20832 12.1584 2.27708 12.2289 2.35916 12.2819C2.44124 12.3349 2.53451 12.369 2.63196 12.3816H7.40955C7.40955 12.3697 7.40955 12.3603 7.40955 12.3484C7.41277 12.0107 7.49551 11.6783 7.65133 11.3771C7.75857 11.7196 7.88778 12.0551 8.03818 12.3816C8.83075 14.1154 10.1674 15.5562 11.8535 16.4942C11.9058 16.523 11.9663 16.5345 12.0258 16.5268C12.0854 16.5192 12.1408 16.4928 12.1838 16.4518C12.2267 16.4107 12.255 16.3571 12.2644 16.299C12.2737 16.2409 12.2636 16.1814 12.2355 16.1294C11.7684 15.2312 11.524 14.2378 11.5222 13.2297C11.2363 12.9717 10.9742 12.6895 10.7389 12.3863C13.3815 12.4834 15.8163 14.3526 16.3893 16.8093L16.4038 16.8827C16.51 17.4568 16.4959 18.046 16.3623 18.6145C16.2287 19.183 15.9784 19.7189 15.6267 20.1896C15.275 20.6604 14.8292 21.056 14.3164 21.3526C13.8037 21.6491 13.2347 21.8403 12.6441 21.9145C12.1581 21.9742 11.6687 22.0027 11.1789 21.9998C5.3254 21.9714 0.19722 17.1007 0.00621251 11.3676Z" fill="#161616"></path> </svg> 