<svg width="150" height="22" xmlns="http://www.w3.org/2000/svg">
 <defs>
  <clipPath id="logotype_white_svg__a">
   <path id="svg_1" d="m0,0l150,0l0,22l-150,0l0,-22z" fill="#fff"/>
  </clipPath>
 </defs>
 <g>
  <title>Layer 1</title>
  <g id="svg_2" clip-path="url(#logotype_white_svg__a)" fill="#fff">
   <path stroke="#fff" fill="#000" id="svg_3" d="m14.16054,8.68477l0.003,0l0,-8.755l4.758,0l0,21.655l-4.758,0l0,-8.524l-0.003,0l0,-4.375l0,-0.001zm15.578,-0.039l0.003,0l0,-8.78l4.758,0l0,21.719l-4.758,0l0,-8.549l-0.003,0l0,-4.39zm44.037,0.06l-7.904,0l0,7.631c0,0.968 -0.156,1.806 -0.468,2.513a4.92,4.92 0 0 1 -1.262,1.755a5.155,5.155 0 0 1 -1.84,1.03a7.196,7.196 0 0 1 -2.213,0.336c-0.311,0 -0.605,-0.015 -0.88,-0.047a5.691,5.691 0 0 1 -0.725,-0.125l0.64,-3.2c0.02,0 0.071,0.006 0.155,0.016s0.172,0.018 0.265,0.023c0.094,0.006 0.18,0.01 0.257,0.016c0.078,0.005 0.133,0.008 0.163,0.008c0.718,0 1.248,-0.219 1.59,-0.655c0.343,-0.437 0.515,-1.056 0.515,-1.858l0,-10.737l15.526,0l0,16.061l-3.82,0l0,-12.768l0.001,0.001zm6.52,4.276c0,-1.176 0.218,-2.281 0.654,-3.318a8.234,8.234 0 0 1 1.832,-2.707a8.673,8.673 0 0 1 2.798,-1.826c1.08,-0.447 2.261,-0.671 3.538,-0.671c1.29,0 2.476,0.224 3.562,0.671a8.696,8.696 0 0 1 2.806,1.826a8.368,8.368 0 0 1 2.502,6.025c0,0.26 -0.01,0.468 -0.031,0.623l-0.062,0.454l-13.873,0a5.224,5.224 0 0 0 3.397,3.987a5.043,5.043 0 0 0 1.73,0.305c0.936,0 1.761,-0.208 2.479,-0.625c0.717,-0.415 1.262,-0.962 1.637,-1.639l4.1,0a7.712,7.712 0 0 1 -1.138,2.038a8.363,8.363 0 0 1 -1.8,1.724c-0.702,0.5 -1.497,0.897 -2.385,1.193c-0.889,0.297 -1.863,0.445 -2.922,0.445c-1.279,0 -2.458,-0.224 -3.539,-0.671a8.695,8.695 0 0 1 -2.798,-1.826a8.257,8.257 0 0 1 -1.832,-2.7a8.37,8.37 0 0 1 -0.655,-3.308zm8.854,-5.479c-0.644,0 -1.239,0.097 -1.785,0.289a5.013,5.013 0 0 0 -1.465,0.804a4.955,4.955 0 0 0 -1.1,1.225a5.408,5.408 0 0 0 -0.67,1.553l9.867,0a5.711,5.711 0 0 0 -0.654,-1.553a4.91,4.91 0 0 0 -1.06,-1.225a4.774,4.774 0 0 0 -1.411,-0.804a4.976,4.976 0 0 0 -1.722,-0.289zm11.768,-2.045l12.065,0l0,3.293l-8.247,0l0,12.765l-3.819,0l0,-16.059l0.001,0l0,0.001zm15.183,-0.075l3.788,0l0,8.288l6.61,-8.288l4.442,0l-5.627,6.93l6.126,9.13l-4.536,0l-4.318,-6.617l-2.697,3.262l0,3.356l-3.788,0l0,-16.06l0,-0.001zm-63.345,-0.22l0,1.488c-0.544,-0.406 -0.815,-0.615 -1.107,-0.817c-0.4,-0.275 -0.84,-0.515 -1.317,-0.718a8.69,8.69 0 0 0 -1.535,-0.484a8.015,8.015 0 0 0 -1.723,-0.18c-1.29,0 -2.461,0.224 -3.515,0.672a8.253,8.253 0 0 0 -2.713,1.825a8.092,8.092 0 0 0 -1.746,2.708a8.904,8.904 0 0 0 -0.616,3.316c0,1.177 0.208,2.281 0.624,3.317a8.235,8.235 0 0 0 1.746,2.708a8.083,8.083 0 0 0 2.705,1.819c1.054,0.442 2.22,0.663 3.5,0.663c0.602,0 1.176,-0.06 1.722,-0.18a8.523,8.523 0 0 0 1.528,-0.483a8.105,8.105 0 0 0 1.317,-0.71c0.404,-0.27 0.834,-0.563 1.155,-0.875l0,2.265l3.139,0l0,-16.335l-3.164,0l0,0.001zm-0.6,9.927a5.17,5.17 0 0 1 -1.1,1.654a4.895,4.895 0 0 1 -1.628,1.078a5.22,5.22 0 0 1 -1.995,0.381a5.263,5.263 0 0 1 -2.011,-0.381a4.972,4.972 0 0 1 -1.637,-1.078a5.054,5.054 0 0 1 -1.107,-1.662a5.444,5.444 0 0 1 -0.405,-2.122c0,-0.759 0.133,-1.46 0.398,-2.099a4.896,4.896 0 0 1 2.72,-2.731a5.262,5.262 0 0 1 2.01,-0.383a5.172,5.172 0 0 1 3.648,1.467a5.004,5.004 0 0 1 1.107,1.647c0.27,0.64 0.405,1.34 0.405,2.099c0,0.78 -0.135,1.49 -0.406,2.13l0.001,0z"/>
   <path stroke="#fff" fill="#000" id="svg_4" d="m2.72254,17.88877l-2.991,-1.685c2.488,-4.43 5.4,-7.069 8.903,-8.066c3.264,-0.928 6.878,-0.373 11.048,1.697c4.31,2.14 7.125,0.842 8.727,-0.623c2.24,-2.046 3.26,-5.546 2.324,-7.968l3.2,-1.24c1.435,3.712 0.055,8.761 -3.21,11.746c-3.335,3.048 -7.915,3.472 -12.566,1.162c-6.928,-3.439 -11.544,-1.95 -15.435,4.977zm129.291,-4.888c0,-1.177 0.218,-2.284 0.656,-3.321a8.244,8.244 0 0 1 1.834,-2.712a8.71,8.71 0 0 1 2.802,-1.829c1.082,-0.448 2.264,-0.672 3.543,-0.672c1.29,0 2.479,0.224 3.567,0.672a8.682,8.682 0 0 1 2.81,1.83a8.374,8.374 0 0 1 1.842,2.71a8.377,8.377 0 0 1 0.663,3.322c0,0.26 -0.01,0.469 -0.031,0.625a44.81,44.81 0 0 1 -0.063,0.453l-13.893,0a5.219,5.219 0 0 0 1.865,3.134c0.463,0.37 0.976,0.657 1.538,0.86a5.055,5.055 0 0 0 1.732,0.305c0.936,0 1.763,-0.209 2.482,-0.625c0.718,-0.417 1.264,-0.963 1.639,-1.641l4.105,0a7.72,7.72 0 0 1 -1.139,2.04a8.413,8.413 0 0 1 -1.803,1.727c-0.703,0.5 -1.499,0.9 -2.389,1.196c-0.89,0.297 -1.865,0.445 -2.927,0.445c-1.279,0 -2.46,-0.224 -3.543,-0.672a8.698,8.698 0 0 1 -2.802,-1.83a8.278,8.278 0 0 1 -1.834,-2.703a8.445,8.445 0 0 1 -0.654,-3.314zm8.867,-5.485c-0.645,0 -1.241,0.096 -1.787,0.288a4.922,4.922 0 0 0 -2.567,2.031a5.374,5.374 0 0 0 -0.672,1.556l9.88,0a5.684,5.684 0 0 0 -0.655,-1.556a4.79,4.79 0 0 0 -2.474,-2.031a4.971,4.971 0 0 0 -1.725,-0.288z"/>
  </g>
 </g>
</svg>