  <svg xmlns="http://www.w3.org/2000/svg" xmlns:xlink="http://www.w3.org/1999/xlink" xmlns:xodm="http://www.corel.com/coreldraw/odm/2003" xml:space="preserve" width="387.35mm" height="59.0021mm" version="1.1" style="shape-rendering:geometricPrecision; text-rendering:geometricPrecision; image-rendering:optimizeQuality; fill-rule:evenodd; clip-rule:evenodd" viewBox="0 0 38735 5900.21"> <defs> <style type="text/css"> .fil0 {fill:black} .fil1 {fill:black;fill-rule:nonzero} </style> </defs> <g id="Слой_x0020_1"> <metadata id="CorelCorpID_0Corel-Layer"/> <g id="_2473583249968"> <g> <path class="fil0" d="M820.21 5900.21c-529.17,-846.67 -820.21,-1852.08 -820.21,-2936.88 0,-1084.79 291.04,-2090.21 820.21,-2963.33l1111.25 0c-608.54,820.21 -1005.42,1852.08 -1005.42,2963.33 0,1111.25 396.88,2143.13 1005.42,2936.88l-1111.25 0z"/> <polygon class="fil0" points="3280.83,0 6032.5,5900.21 5000.62,5900.21 2248.96,0 "/> <path class="fil0" d="M7461.25 5900.21c529.17,-846.67 820.21,-1852.08 820.21,-2936.88 0,-1084.79 -291.04,-2090.21 -820.21,-2963.33l-1111.25 0c608.54,820.21 1005.42,1852.08 1005.42,2963.33 0,1111.25 -396.88,2143.13 -1005.42,2936.88l1111.25 0z"/> </g> <g> <path class="fil1" d="M31776.46 5397.5c-846.67,0 -1587.5,-370.42 -1957.92,-1164.17 -185.21,-370.42 -264.58,-793.75 -264.58,-1270 0,-476.25 79.38,-899.58 264.58,-1270 396.88,-793.75 1084.79,-1164.17 1957.92,-1164.17 873.13,0 1587.5,370.42 1957.92,1164.17 185.21,370.42 264.58,793.75 264.58,1270 0,476.25 -79.38,899.58 -264.58,1270 -370.42,793.75 -1084.79,1164.17 -1957.92,1164.17zm1296.46 -2434.17c0,-291.04 -26.46,-608.54 -158.75,-873.13 -238.13,-476.25 -635,-661.46 -1137.71,-661.46 -502.71,0 -899.58,185.21 -1111.25,661.46 -132.29,264.58 -185.21,582.08 -185.21,873.13 0,291.04 52.92,608.54 185.21,873.13 211.67,476.25 608.54,661.46 1111.25,661.46 502.71,0 899.58,-185.21 1137.71,-661.46 132.29,-264.58 158.75,-582.08 158.75,-873.13z"/> <polygon class="fil0" points="16615.83,635 19949.58,635 19949.58,1561.04 17541.87,1561.04 17541.87,2513.54 19711.46,2513.54 19711.46,3413.12 17541.87,3413.12 17541.87,4365.62 19949.58,4365.62 19949.58,5291.66 16615.83,5291.66 "/> <polygon class="fil0" points="12356.04,5291.66 11430,5291.66 11430,635 12858.75,635 14552.08,4286.25 14552.08,635 15504.58,635 15504.58,5291.66 14049.37,5291.66 12356.04,1640.41 "/> <polygon class="fil0" points="35401.25,5291.66 36512.5,3624.79 37623.75,5291.66 38735,5291.66 37173.96,2936.87 38708.54,635 37570.83,635 36512.5,2248.95 35427.71,635 34316.46,635 35851.04,2936.87 34290,5291.66 "/> <path class="fil0" d="M27172.71 635c1058.33,0 1799.17,502.71 1799.17,1587.5 0,687.92 -291.04,1137.71 -793.75,1375.83l793.75 1693.33 -1031.88 0 -687.92 -1481.67c-370.42,0 -714.38,0 -1084.79,0l0 1481.67 -926.04 0 0 -4656.67 1931.46 0 0 0.01zm873.12 1587.5c0,-555.63 -423.33,-687.92 -873.13,-687.92l-1005.42 0 0 1375.83 1005.42 0c449.79,0 873.13,-132.29 873.13,-687.92l0 0.01z"/> <polygon class="fil0" points="23045.21,5291.66 22145.63,5291.66 22145.63,3545.41 20478.75,635 21537.08,635 22595.42,2460.62 23653.75,635 24738.54,635 23045.21,3545.41 "/> </g> </g> </g> </svg>