<svg xmlns="http://www.w3.org/2000/svg" width="193.125" height="90" viewBox="0 0 193.125 90">
  <metadata><?xpacket begin="﻿" id="W5M0MpCehiHzreSzNTczkc9d"?>
<x:xmpmeta xmlns:x="adobe:ns:meta/" x:xmptk="Adobe XMP Core 5.6-c142 79.160924, 2017/07/13-01:06:39        ">
   <rdf:RDF xmlns:rdf="http://www.w3.org/1999/02/22-rdf-syntax-ns#">
      <rdf:Description rdf:about=""/>
   </rdf:RDF>
</x:xmpmeta>
                                                                                                    
                                                                                                    
                                                                                                    
                                                                                                    
                                                                                                    
                                                                                                    
                                                                                                    
                                                                                                    
                                                                                                    
                                                                                                    
                                                                                                    
                                                                                                    
                                                                                                    
                                                                                                    
                                                                                                    
                                                                                                    
                                                                                                    
                                                                                                    
                                                                                                    
                                                                                                    
                           
<?xpacket end="w"?></metadata>
<defs>
    <style>
      .cls-1 {
        fill: #a3003a;
        fill-rule: evenodd;
      }
    </style>
  </defs>
  <path class="cls-1" d="M164.869,90.305h-6.82a0.091,0.091,0,0,1-.083-0.052,0.092,0.092,0,0,1,.009-0.1c0.06-.078.109-0.151,0.152-0.216a0.821,0.821,0,0,1,.276-0.3,2.112,2.112,0,0,0,.971-1.1,7.837,7.837,0,0,0,.491-3.249c0.025-8.406.025-16.132,0-23.62a23.639,23.639,0,0,0-.345-3.4,1.961,1.961,0,0,0-1.173-1.579,0.57,0.57,0,0,1-.229-0.29,2.006,2.006,0,0,0-.108-0.2,0.1,0.1,0,0,1,0-.094,0.092,0.092,0,0,1,.081-0.048h6.648a0.093,0.093,0,0,1,.085.056,0.447,0.447,0,0,1,.032.368,0.458,0.458,0,0,1-.3.227,1.58,1.58,0,0,0-.935.924,6.443,6.443,0,0,0-.493,2.574c-0.027,1.278-.031,2.578-0.036,3.834q0,0.65,0,1.3a0.765,0.765,0,0,0,.015.128,0.046,0.046,0,0,1,0,.016h8.08V65.409c0-.109,0-0.212,0-0.315q-0.012-.759-0.02-1.518c-0.013-1.228-.027-2.5-0.089-3.744a9.539,9.539,0,0,0-.4-1.993l-0.044-.16a1.51,1.51,0,0,0-.953-1,0.593,0.593,0,0,1-.247-0.269c-0.037-.06-0.079-0.128-0.132-0.2a0.092,0.092,0,0,1,.074-0.148h6.834a0.093,0.093,0,0,1,.083.052,0.09,0.09,0,0,1-.01.1c-0.057.074-.1,0.146-0.143,0.208a0.622,0.622,0,0,1-.253.274,1.707,1.707,0,0,0-1.132,1.432l-0.053.463a36.556,36.556,0,0,0-.307,3.964c-0.026,6.737-.021,14.054.018,22.369a18.562,18.562,0,0,0,.348,3.121,1.954,1.954,0,0,0,1.213,1.649,0.439,0.439,0,0,1,.2.3,1.893,1.893,0,0,0,.073.181,0.092,0.092,0,0,1-.084.132H169.37a0.092,0.092,0,0,1-.074-0.148c0.053-.07.1-0.139,0.135-0.2a0.593,0.593,0,0,1,.267-0.284,1.6,1.6,0,0,0,1.121-1.37l0.013-.1a23.359,23.359,0,0,0,.317-3.168c0.029-4.071.03-8.21,0.031-12.213q0-2.22,0-4.44a1.463,1.463,0,0,0-.013-0.166c0-.013,0-0.026-0.005-0.04h-8.082l0,4.906q0,5.964.018,11.926a10.284,10.284,0,0,0,.411,3.366,1.884,1.884,0,0,0,1.116,1.316,0.477,0.477,0,0,1,.222.288c0.028,0.059.058,0.125,0.095,0.188a0.093,0.093,0,0,1,0,.093A0.091,0.091,0,0,1,164.869,90.305Zm19.9,0h-6.737a0.093,0.093,0,0,1-.078-0.043,0.091,0.091,0,0,1,0-.089,1.844,1.844,0,0,0,.071-0.182,0.509,0.509,0,0,1,.209-0.325,2.079,2.079,0,0,0,1.2-1.577,14,14,0,0,0,.334-2.625c0.029-8.523.029-16.366,0-23.976a21.118,21.118,0,0,0-.337-3.175l-0.014-.086a1.955,1.955,0,0,0-1.169-1.536,0.583,0.583,0,0,1-.23-0.288c-0.031-.06-0.066-0.126-0.109-0.193a0.093,0.093,0,0,1,0-.094,0.092,0.092,0,0,1,.081-0.048h6.786a0.094,0.094,0,0,1,.082.048,0.092,0.092,0,0,1,0,.095c-0.041.062-.074,0.125-0.1,0.183a0.523,0.523,0,0,1-.235.281,1.722,1.722,0,0,0-1.155,1.414,23.561,23.561,0,0,0-.338,3.129c-0.037,1.724-.033,3.478-0.028,5.174q0,1.052,0,2.1c0,0.037,0,.074.007,0.117a0.188,0.188,0,0,0,.016-0.018l0.289-.43a85.378,85.378,0,0,0,4.96-8.012,4.863,4.863,0,0,0,.665-2.423,1.1,1.1,0,0,0-.529-1.055,0.535,0.535,0,0,1-.188-0.293c-0.021-.056-0.045-0.117-0.075-0.179a0.09,0.09,0,0,1,0-.09,0.092,0.092,0,0,1,.078-0.044H195a0.094,0.094,0,0,1,.083.05,0.091,0.091,0,0,1-.008.1c-0.044.062-.081,0.124-0.115,0.182a0.487,0.487,0,0,1-.252.267,4.585,4.585,0,0,0-2.757,1.984c-1.114,1.574-2.191,3.217-3.232,4.807q-0.418.639-.838,1.277a0.429,0.429,0,0,0,.012.343c3.182,5.827,4.823,12.108,6.124,18.027,0.38,1.726.817,3.469,1.24,5.154l0.011,0.043a1.834,1.834,0,0,0,1.027,1.39,0.478,0.478,0,0,1,.2.292c0.024,0.059.05,0.124,0.083,0.188a0.092,0.092,0,0,1-.082.135h-6.16a0.093,0.093,0,0,1-.074-0.037,0.089,0.089,0,0,1-.014-0.082,1.279,1.279,0,0,0,.034-0.156,0.43,0.43,0,0,1,.151-0.325,1.644,1.644,0,0,0,.792-1.755,33.2,33.2,0,0,0-.447-4.017,59.994,59.994,0,0,0-5.066-15.245c-0.049-.1-0.1-0.2-0.17-0.336-0.19.283-.374,0.564-0.557,0.841-0.494.752-.962,1.462-1.469,2.161a2.794,2.794,0,0,0-.534,1.759c0.014,1.814.015,3.659,0.016,5.443,0,2.094,0,4.259.025,6.389a19.991,19.991,0,0,0,.349,3.169,1.831,1.831,0,0,0,1.2,1.589,0.429,0.429,0,0,1,.2.284,1.842,1.842,0,0,0,.082.186,0.1,0.1,0,0,1,0,.091A0.093,0.093,0,0,1,184.772,90.3ZM137.008,74.453a10.118,10.118,0,0,0-8.571-6.542c-0.325-.036-0.645-0.059-0.984-0.084l-0.369-.027V67.688c0-.117,0-0.223,0-0.328l-0.008-1.91q-0.009-2.328-.015-4.655a8.243,8.243,0,0,1,.035-0.881,0.868,0.868,0,0,1,.9-0.935,18.173,18.173,0,0,1,2.353-.082A5.128,5.128,0,0,1,134.5,61.09a11.606,11.606,0,0,1,1.749,4.224c0.026,0.1.055,0.208,0.083,0.311l0.048,0.171a0.092,0.092,0,0,0,.1.067c0.065-.011.129-0.023,0.191-0.035a0.093,0.093,0,0,0,.074-0.1c-0.271-2.246-.575-4.511-0.869-6.7-0.148-1.105-.3-2.2-0.437-3.289a0.092,0.092,0,0,0-.043-0.066,0.09,0.09,0,0,0-.078-0.009c-0.117.039-.228,0.079-0.337,0.119a4.128,4.128,0,0,1-.662.2,5.291,5.291,0,0,1-.92.052h-0.087q-3.879,0-7.756,0h-3.3a0.091,0.091,0,0,0-.068.03l-0.114.123a0.092,0.092,0,0,0-.008.115,1.128,1.128,0,0,1,.069.115,0.57,0.57,0,0,0,.234.27,1.86,1.86,0,0,1,1.151,1.486l0.021,0.146a21.456,21.456,0,0,1,.316,3.116c0.029,8.471.019,16.783,0,23.8a12.926,12.926,0,0,1-.179,2.2,2.592,2.592,0,0,1-1.39,2.242,0.457,0.457,0,0,0-.192.321,1.9,1.9,0,0,1-.068.2,0.092,0.092,0,0,0,.085.128l1.457,0,1.38,0c0.6,0,1.2,0,1.793-.007,0.427,0,.855,0,1.28,0,1.213,0,2.464,0,3.691-.1a6.089,6.089,0,0,0,5.132-3.331,10.354,10.354,0,0,0,1.11-3.541A16.207,16.207,0,0,0,137.008,74.453Zm-2.826,9.588a8.439,8.439,0,0,1-1.17,2.054,4.392,4.392,0,0,1-3.939,1.7l-0.29-.015c-0.285-.014-0.579-0.028-0.864-0.064a0.785,0.785,0,0,1-.737-0.775,13.84,13.84,0,0,1-.092-1.414q-0.008-6.26-.005-12.52V70.618c0-.078.005-0.155,0.01-0.249l0-.063h0.06a6.653,6.653,0,0,1,5.893,3.169,10.794,10.794,0,0,1,1.625,4.679A11.373,11.373,0,0,1,134.182,84.041ZM50.8,90.4H45.067a0.185,0.185,0,0,1-.155-0.084A0.183,0.183,0,0,1,44.9,90.14a1.727,1.727,0,0,0,.059-0.166,0.5,0.5,0,0,1,.253-0.37,1.59,1.59,0,0,0,.977-1.5l0.013-.107a27.026,27.026,0,0,0,.236-2.984c0.022-4.345.023-8.762,0.025-13.034v-3.53c0-.048,0-0.095-0.007-0.146H39.718v0.292q0,2.1,0,4.209c0,4.006,0,8.149.027,12.223a22.962,22.962,0,0,0,.367,3.374,1.458,1.458,0,0,0,.877,1.21,0.521,0.521,0,0,1,.249.346,1.847,1.847,0,0,0,.074.179,0.185,0.185,0,0,1-.166.267H35.383a0.187,0.187,0,0,1-.151-0.077,0.184,0.184,0,0,1-.024-0.167,1.648,1.648,0,0,0,.043-0.166,0.52,0.52,0,0,1,.205-0.382A2.523,2.523,0,0,0,36.6,87.4a36.553,36.553,0,0,0,.177-3.678c0.017-7.347.027-13.976-.008-20.718-0.009-1.472-.159-2.976-0.305-4.429l-0.039-.394a1.7,1.7,0,0,0-.9-1.368,0.652,0.652,0,0,1-.251-0.351c-0.026-.059-0.053-0.124-0.09-0.19a0.185,0.185,0,0,1,.162-0.273h5.773a0.185,0.185,0,0,1,.174.247,1.56,1.56,0,0,0-.043.15,0.5,0.5,0,0,1-.221.378,2.076,2.076,0,0,0-1.093,1.871,23.938,23.938,0,0,0-.192,2.824c-0.021.941-.016,1.863-0.011,2.84q0,0.549,0,1.1h6.718l-0.033-1.452c-0.038-1.675-.076-3.408-0.152-5.111a3.845,3.845,0,0,0-.4-1.375,1.51,1.51,0,0,0-.378-0.432c-0.092-.083-0.184-0.167-0.264-0.256a3.44,3.44,0,0,1-.231-0.3c-0.042-.058-0.089-0.122-0.144-0.2a0.185,0.185,0,0,1,.148-0.3H50.81a0.185,0.185,0,0,1,.167.264,1.781,1.781,0,0,0-.066.171,0.567,0.567,0,0,1-.244.366,1.791,1.791,0,0,0-.987,1.629l-0.032.356c-0.112,1.25-.228,2.542-0.234,3.809-0.028,7.1-.028,14.114,0,20.852a41.729,41.729,0,0,0,.281,4.426A1.973,1.973,0,0,0,50.7,89.606a0.522,0.522,0,0,1,.219.375,1.669,1.669,0,0,0,.051.168A0.185,0.185,0,0,1,50.8,90.4ZM157.25,90.17c-0.023-.062-0.04-0.125-0.056-0.183a0.547,0.547,0,0,0-.165-0.326,2.894,2.894,0,0,1-1.1-1.947c-0.6-3.047-1.383-7.059-2.136-11.068-1.076-5.719-1.946-10.426-2.739-14.813-0.194-1.066-.342-2.22-0.48-3.74a1.587,1.587,0,0,1,.592-1.387,0.678,0.678,0,0,0,.178-0.33c0.021-.063.044-0.132,0.075-0.2a0.093,0.093,0,0,0-.008-0.087,0.092,0.092,0,0,0-.077-0.041h-1.2c-1.613,0-3.169,0-4.725.007a0.351,0.351,0,0,0-.313.224,0.444,0.444,0,0,0,.141.394,1.55,1.55,0,0,1,.669,1.63,24.675,24.675,0,0,1-.375,2.769l-0.014.071c-1.5,7.482-3.053,15.218-4.624,22.816-0.244,1.184-.6,2.368-0.944,3.513q-0.148.491-.293,0.982a1.928,1.928,0,0,1-.994,1.178,0.7,0.7,0,0,0-.251.323c-0.035.066-.072,0.138-0.119,0.212a0.092,0.092,0,0,0,.077.142h5.771a0.1,0.1,0,0,0,.081-0.048,0.093,0.093,0,0,0,0-.094c-0.043-.069-0.077-0.135-0.108-0.2a0.581,0.581,0,0,0-.224-0.288,2.038,2.038,0,0,1-1.054-1.336,5.468,5.468,0,0,1-.108-2.7c0.434-2.534.906-5.12,1.362-7.621q0.264-1.442.528-2.9l0.212,0.015a4.636,4.636,0,0,1,.478.047,5.524,5.524,0,0,1,3.044,1.656,13.294,13.294,0,0,1,3.723,10.481,2.788,2.788,0,0,1-1.14,2.365,0.428,0.428,0,0,0-.138.333,1.5,1.5,0,0,1-.026.156,0.09,0.09,0,0,0,.016.079,0.1,0.1,0,0,0,.073.036h6.306a0.091,0.091,0,0,0,.076-0.04A0.089,0.089,0,0,0,157.25,90.17ZM145.11,72.363l2.429-12.01,0.743,4.018q1.069,5.789,2.14,11.576C149.292,74.242,147.754,72.585,145.11,72.363ZM81.618,90.146c-0.025-.062-0.042-0.125-0.06-0.185a0.776,0.776,0,0,0-.208-0.4,2.281,2.281,0,0,1-.756-1.346c-0.347-1.833-.657-3.486-0.931-5.17q-0.575-3.5-1.124-7.008Q78.267,74.321,78,72.61l-0.471-2.947q-0.6-3.743-1.183-7.486c-0.215-1.386-.371-2.641-0.477-3.835a1.824,1.824,0,0,1,.523-1.57,0.662,0.662,0,0,0,.16-0.385c0.01-.054.02-0.11,0.036-0.166a0.185,0.185,0,0,0-.178-0.236H71.065a0.185,0.185,0,0,0-.17.258c0.026,0.06.046,0.12,0.065,0.176a0.75,0.75,0,0,0,.212.376,1.217,1.217,0,0,1,.473.986,9.107,9.107,0,0,1-.055,1.613c-0.346,2.219-.725,4.526-1.128,6.858L70.1,68.386C69.2,73.56,68.281,78.911,67.336,84.167a43.258,43.258,0,0,1-1.092,4.385,1.874,1.874,0,0,1-.466.662c-0.108.118-.217,0.236-0.309,0.358-0.077.1-.146,0.211-0.229,0.343l-0.12.189a0.185,0.185,0,0,0,.156.285h5a0.184,0.184,0,0,0,.163-0.271,1.919,1.919,0,0,1-.08-0.178,0.57,0.57,0,0,0-.243-0.337,1.829,1.829,0,0,1-.9-1.347,9.334,9.334,0,0,1,.052-3.694c0.278-1.861.591-3.749,0.894-5.575q0.158-.952.315-1.9c0.075-.45.156-0.9,0.237-1.351l0.088-.5a4.06,4.06,0,0,1,2.459,1.144,10.794,10.794,0,0,1,2.819,4.592,14.388,14.388,0,0,1,.861,6.492,2.866,2.866,0,0,1-.909,2.141,0.567,0.567,0,0,0-.169.393,1.377,1.377,0,0,1-.032.165,0.185,0.185,0,0,0,.178.235h5.433A0.185,0.185,0,0,0,81.618,90.146Zm-6.24-14.712a21.821,21.821,0,0,0-1.355-1.749A4.218,4.218,0,0,0,71.206,72.3L73.171,61.01l2.315,14.573ZM34.712,90.157a1.869,1.869,0,0,1-.046-0.182,0.669,0.669,0,0,0-.185-0.4,2.6,2.6,0,0,1-.849-1.63c-0.256-1.332-.526-2.764-0.762-4.2q-0.64-3.953-1.261-7.91l-0.476-3.005q-0.27-1.7-.543-3.4c-0.4-2.507-.818-5.1-1.208-7.652-0.2-1.3-.317-2.612-0.4-3.613a1.682,1.682,0,0,1,.479-1.367,0.723,0.723,0,0,0,.164-0.409c0.01-.055.02-0.113,0.036-0.171a0.185,0.185,0,0,0-.179-0.233H24.158a0.185,0.185,0,0,0-.164.271l0.1,0.2c0.067,0.129.121,0.233,0.181,0.337,0.049,0.086.11,0.17,0.17,0.255a1.162,1.162,0,0,1,.233.434,5.635,5.635,0,0,1,.043,1.584c-0.327,2.205-.7,4.506-1.135,7.034l-0.366,2.123c-0.889,5.163-1.809,10.5-2.753,15.744-0.273,1.5-.666,2.933-1.153,4.645a1.67,1.67,0,0,1-.425.6,4.255,4.255,0,0,0-.3.347,4.032,4.032,0,0,0-.228.357l-0.118.2a0.185,0.185,0,0,0,.158.281h4.941a0.185,0.185,0,0,0,.167-0.264c-0.029-.061-0.051-0.122-0.072-0.178a0.561,0.561,0,0,0-.23-0.346,1.885,1.885,0,0,1-.88-1.316,9.279,9.279,0,0,1,.043-3.758l0.029-.2c0.23-1.582.5-3.186,0.759-4.737q0.134-.8.266-1.594c0.116-.7.238-1.4,0.36-2.1l0.112-.649a0.512,0.512,0,0,1,.087,0,2.04,2.04,0,0,1,.285.04,4.894,4.894,0,0,1,3.112,2.237,14.8,14.8,0,0,1,2.658,10,2.69,2.69,0,0,1-.909,2.087,0.527,0.527,0,0,0-.149.411,1.371,1.371,0,0,1-.017.158,0.185,0.185,0,0,0,.182.22h5.382a0.186,0.186,0,0,0,.15-0.076A0.184,0.184,0,0,0,34.712,90.157Zm-10.4-17.865Q25.3,66.636,26.274,61l2.3,14.455A5.963,5.963,0,0,0,24.313,72.292ZM7.854,90.4H3.663a0.185,0.185,0,0,1-.185-0.185c0-.338,0-0.673-0.009-1.007-0.009-.7-0.019-1.42.016-2.127l0.032-.628c0.1-1.9.2-3.867,0.392-5.794,0.329-3.21.71-6.338,1.131-9.3a71.226,71.226,0,0,1,2.5-10.969,5.569,5.569,0,0,0,.118-2.906,1.423,1.423,0,0,0-.249-0.456c-0.065-.093-0.129-0.185-0.183-0.281s-0.1-.2-0.156-0.315l-0.085-.181a0.185,0.185,0,0,1,.167-0.264H17.68a0.185,0.185,0,0,1,.168.262c-0.029.062-.05,0.126-0.07,0.185a0.623,0.623,0,0,1-.231.371,2.129,2.129,0,0,0-1.014,1.8,29.427,29.427,0,0,0-.249,3.312c-0.024,8.384-.023,15.892,0,22.951a23.414,23.414,0,0,0,.331,3.336,1.8,1.8,0,0,0,.915,1.373,0.619,0.619,0,0,1,.245.369c0.021,0.058.044,0.121,0.074,0.182a0.185,0.185,0,0,1-.167.265H11.962a0.185,0.185,0,0,1-.18-0.228,1.159,1.159,0,0,0,.019-0.121,0.425,0.425,0,0,1,.179-0.373A2.328,2.328,0,0,0,13.117,87.6a14.831,14.831,0,0,0,.181-2.341c0.016-8.585.016-16.164,0-23.172a11.172,11.172,0,0,0-.251-2.218,1.5,1.5,0,0,0-.874-1.113,1.629,1.629,0,0,0-1.521.189,2.887,2.887,0,0,0-1.177,1.5c-0.493,1.432-1.052,3.056-1.455,4.657a65.425,65.425,0,0,0-1.8,11.268C6,79.423,5.9,81.968,5.9,84.372A14.6,14.6,0,0,0,6.364,87.5c0.042,0.186.083,0.372,0.123,0.558a2.118,2.118,0,0,0,1.161,1.523,0.621,0.621,0,0,1,.262.34,2.232,2.232,0,0,0,.1.2A0.184,0.184,0,0,1,7.854,90.4Zm53.886,0H55.968a0.185,0.185,0,0,1-.158-0.281,1.782,1.782,0,0,0,.093-0.18,0.526,0.526,0,0,1,.274-0.325,1.234,1.234,0,0,0,.879-1.1l0.038-.3a26.591,26.591,0,0,0,.279-3.227c0.022-6.608.022-13.323,0.023-19.818V59.224c0-.069-0.005-0.138-0.012-0.218a4.063,4.063,0,0,0-2.264.672,5.786,5.786,0,0,0-2.207,3.178c-0.2.586-.356,1.2-0.507,1.8-0.069.27-.137,0.541-0.21,0.81-0.02.077-.043,0.155-0.067,0.234l-0.034.114a0.185,0.185,0,0,1-.218.129c-0.049-.011-0.1-0.02-0.146-0.029a0.184,0.184,0,0,1-.15-0.2c0.377-3.334.754-6.669,1.119-9.906a0.185,0.185,0,0,1,.082-0.133,0.187,0.187,0,0,1,.155-0.023c0.132,0.039.257,0.085,0.379,0.13a1.977,1.977,0,0,0,.641.166c3.456,0.023,6.665.023,9.808,0a1.964,1.964,0,0,0,.651-0.176c0.121-.047.243-0.094,0.367-0.132a0.185,0.185,0,0,1,.238.156l1.118,9.926a0.185,0.185,0,0,1-.158.2l-0.167.026a0.184,0.184,0,0,1-.206-0.142l-0.1-.457c-0.067-.3-0.135-0.606-0.211-0.907a9.945,9.945,0,0,0-1.615-3.752A4.2,4.2,0,0,0,60.351,59c-0.007.1-.013,0.2-0.013,0.3v5.959c0,6.535,0,13.293.021,19.939a20.79,20.79,0,0,0,.283,3.073,1.473,1.473,0,0,0,.958,1.369,0.48,0.48,0,0,1,.25.353c0.017,0.051.035,0.105,0.058,0.156A0.185,0.185,0,0,1,61.74,90.4Z" transform="translate(-3.469 -1)"/>
  <path id="Shape_49_copy_2" data-name="Shape 49 copy 2" class="cls-1" d="M109.5,90.195c0.016,0.05.034,0.1,0.051,0.147,0.48-.059.968-0.093,1.441-0.189a0.752,0.752,0,0,0,.645-0.775,7.3,7.3,0,0,0-.15-1.816,25.57,25.57,0,0,0-1.084-3.077,5.1,5.1,0,0,1-.135-3.78c0.851-2.507,1.637-5.035,2.466-7.549,0.774-2.349,1.58-4.69,2.354-7.037a5.11,5.11,0,0,0-.241-4.393c-0.763-1.306-1.514-2.616-2.272-3.928a2.46,2.46,0,0,1-.1-0.24,0.762,0.762,0,0,0-.239.386c-0.153.861-.3,1.721-0.445,2.583-0.452,2.686-.838,5.385-1.368,8.053q-1.326,6.636-2.82,13.237a3.594,3.594,0,0,0,1.029,3.758,7.365,7.365,0,0,1,1.3,1.841,2.216,2.216,0,0,1-.31,2.6c-0.044.056-.08,0.116-0.121,0.175m-16.015.04a9.582,9.582,0,0,1-.582-1.179,2.712,2.712,0,0,1,.623-2.488c0.447-.626.975-1.194,1.478-1.778a2.372,2.372,0,0,0,.543-2.16c-0.5-2.3-1-4.607-1.475-6.918-0.648-3.165-1.3-6.331-1.892-9.509-0.506-2.719-.925-5.456-1.385-8.183-0.026-.147-0.08-0.286-0.142-0.514a3.683,3.683,0,0,0-.267.338c-0.725,1.245-1.463,2.483-2.158,3.744a6.347,6.347,0,0,0-.592,1.5,5.483,5.483,0,0,0,.307,3.049c1.56,4.756,3.1,9.518,4.713,14.257a5.346,5.346,0,0,1-.145,4.271c-0.148.3-.262,0.617-0.4,0.921a9.482,9.482,0,0,0-.784,3.21,1.15,1.15,0,0,0,1.216,1.441c0.311,0.027.629,0,.943,0M109.039,5.2c-0.434.6-.809,1.173-1.235,1.7a8.865,8.865,0,0,0-1.777,2.878c-0.1.318-.281,0.352-0.566,0.229-0.48-.207-0.973-0.379-1.458-0.576a6.419,6.419,0,0,0-4.961-.015c-0.486.195-.978,0.367-1.456,0.579a0.387,0.387,0,0,1-.619-0.275A5.283,5.283,0,0,0,96.394,8.5C95.623,7.4,94.8,6.334,93.989,5.234c-0.46.7-.96,1.415-1.406,2.16a2.123,2.123,0,0,0-.265,1.766c0.643,2.04,1.592,2.581,3.2,2.708,0.362,0.028.725,0.045,1.084,0.1a0.822,0.822,0,0,1,.275.227,1.179,1.179,0,0,1-.256.2,0.89,0.89,0,0,1-.382.059c-0.791-.07-1.589-0.112-2.373-0.242-0.75-.123-0.96-0.045-1.083.705a7.337,7.337,0,0,0,.478,3.81c0.237,0.638.43,1.3,0.6,1.953a0.951,0.951,0,0,1-.383,1.043c-0.322.248-.645,0.5-0.943,0.776s-0.262.444,0.079,0.648a5.976,5.976,0,0,1,2.257,2.488q0.456,0.894.892,1.8c1.211,2.491,3.053,3.973,5.953,3.889a5.584,5.584,0,0,0,4.934-2.843c0.554-.922,1.007-1.9,1.507-2.857a6.038,6.038,0,0,1,2.229-2.458c0.369-.223.4-0.386,0.087-0.674-0.287-.266-0.6-0.51-0.909-0.747a0.966,0.966,0,0,1-.4-1.077c0.176-.658.372-1.314,0.608-1.952a7.32,7.32,0,0,0,.481-3.724c-0.131-.845-0.3-0.888-1.151-0.754a23.806,23.806,0,0,1-2.551.2,0.975,0.975,0,0,1-.4-0.253,1.487,1.487,0,0,1,.425-0.223c0.343-.056.694-0.062,1.04-0.091a3.234,3.234,0,0,0,3.047-2.5,2.086,2.086,0,0,0-.091-1.659c-0.485-.855-1.024-1.677-1.53-2.5M95.248,26.144c-0.3.452-.579,0.82-0.807,1.217a34.161,34.161,0,0,0-3.007,7.622,25.888,25.888,0,0,0-1.189,6.7,66.2,66.2,0,0,0,.606,11.258c0.529,3.56.949,7.142,1.618,10.675,1.176,6.192,2.493,12.361,3.775,18.535a3.425,3.425,0,0,1-.793,3.323c-0.472.494-.9,1.037-1.353,1.544a2,2,0,0,0-.44,1.8,1.772,1.772,0,0,0,1.692,1.434c1.524,0.01,3.053,0,4.577,0,1,0,1.137-.152,1.174-1.171,0-.088,0-0.175,0-0.263,0-1.182-.009-2.364-0.009-3.546q-0.012-13.747-.023-27.5c0-.523.108-0.612,0.564-0.536,0.339,0.057.3,0.3,0.3,0.53q-0.018,15.543-.034,31.087a5.151,5.151,0,0,0,.093.91,0.557,0.557,0,0,0,.607.505c1.8,0,3.6.017,5.4,0.018a0.776,0.776,0,0,0,.454-0.119,2.1,2.1,0,0,0,.5-3.036c-0.534-.654-1.083-1.3-1.641-1.929a2.969,2.969,0,0,1-.6-2.709c0.185-.944.414-1.876,0.6-2.818,1.367-6.722,2.927-13.4,3.9-20.2a106.136,106.136,0,0,0,1.5-12.892,49.648,49.648,0,0,0-.1-6.469,37.032,37.032,0,0,0-3.459-11.587c-0.373-.8-0.873-1.532-1.376-2.408-1.416,2.6-3.389,4.044-6.287,4.034s-4.87-1.447-6.257-4M109.272,0.993a0.156,0.156,0,0,0,.047.066c1.3,0.353,1.161,1.724.553,2.56a1.026,1.026,0,0,0-.109,1.219c0.411,0.688.827,1.371,1.212,2.074a3.407,3.407,0,0,1,.374,2.935,1.483,1.483,0,0,1-.217.476,1.868,1.868,0,0,0-.264,1.918,6.8,6.8,0,0,1-.379,4.778c-0.175.365-.306,0.754-0.448,1.137a1.191,1.191,0,0,0,.154,1.082,0.888,0.888,0,0,0,1.164.494c0.907-.223,1.146.019,0.966,0.945a3.958,3.958,0,0,0-.008.654,0.511,0.511,0,0,1-.594.579,1.714,1.714,0,0,0-1.993.8,19.877,19.877,0,0,0-1.475,2.46,0.436,0.436,0,0,0,.034.394c2.365,3.152,3.354,6.881,4.375,10.588a30.4,30.4,0,0,1,.913,9.058,79.385,79.385,0,0,1-.984,10.487,1.459,1.459,0,0,0,.247,1.03q1.3,2.173,2.582,4.359a5.919,5.919,0,0,1,.486,5.053q-2.43,7.382-4.848,14.768c-0.061.181-.1,0.369-0.164,0.545a3.167,3.167,0,0,0,.111,2.369,41.711,41.711,0,0,1,1.318,4.151,4.042,4.042,0,0,1-.013,1.642,1.463,1.463,0,0,1-1.626,1.371c-1.743.019-3.486,0.011-5.23,0.01-0.871,0-1.746-.028-2.616-0.013a1.374,1.374,0,0,1-1.347-.779,1.219,1.219,0,0,1-1.055.714c-2.689.008-5.377,0.02-8.066,0.009A1.619,1.619,0,0,1,90.615,89.2a8.686,8.686,0,0,1,.648-3.5c0.262-.772.561-1.531,0.873-2.285a2.148,2.148,0,0,0,.1-1.532q-1.129-3.511-2.268-7.02-1.418-4.362-2.855-8.716a5.984,5.984,0,0,1,.492-5.135c0.856-1.456,1.713-2.913,2.584-4.359a1.474,1.474,0,0,0,.207-1.075,68.243,68.243,0,0,1-.9-14.511,28.168,28.168,0,0,1,1.4-6.97,34.049,34.049,0,0,1,2.6-6.7c0.352-.618.787-1.188,1.171-1.789a0.529,0.529,0,0,0,.111-0.387,6.936,6.936,0,0,0-2.024-3.005,1.351,1.351,0,0,0-1.368-.316,0.528,0.528,0,0,1-.69-0.562c-0.02-.316-0.049-0.631-0.091-0.946a0.6,0.6,0,0,1,.707-0.739,1.934,1.934,0,0,1,.256.046A1.13,1.13,0,0,0,93,18.283a6.39,6.39,0,0,0-.452-1.225,6.909,6.909,0,0,1-.376-4.9,2.005,2.005,0,0,0-.245-1.8,2.83,2.83,0,0,1-.12-2.921,24.947,24.947,0,0,1,1.262-2.245,1.414,1.414,0,0,0-.034-1.749c-0.506-.769-0.651-1.935.623-2.355A0.331,0.331,0,0,0,93.749.993H94.62a1.451,1.451,0,0,1,.864,1.677,1.6,1.6,0,0,1-.233.693A1.91,1.91,0,0,0,95.517,6a7.567,7.567,0,0,1,.551.677c0.336,0.473.673,0.948,0.99,1.433a2.329,2.329,0,0,0,.6.945,2.213,2.213,0,0,0,1.123-.36,6.9,6.9,0,0,1,4.889-.191c0.48,0.157.944,0.366,1.418,0.548,0.185,0.071.366,0.13,0.466-.125a10.732,10.732,0,0,1,2.009-3A1.96,1.96,0,0,0,107.8,3.4,1.586,1.586,0,0,1,108.4.993h0.872Zm-4.18,17.449a1.87,1.87,0,0,0,1.392-.666,0.449,0.449,0,0,0,.091-0.382,0.463,0.463,0,0,0-.387-0.184,5.721,5.721,0,0,0-1.219.41,1.451,1.451,0,0,0-.354.541l0.477,0.282m-7.2,0c0.1-.062.293-0.172,0.478-0.284a1.286,1.286,0,0,0-.324-0.517,7.211,7.211,0,0,0-1.3-.434,0.431,0.431,0,0,0-.349.188,0.408,0.408,0,0,0,.074.349,1.864,1.864,0,0,0,1.422.7m-1.136-2.528c0.554,0,1.108-.018,1.657.011a0.594,0.594,0,0,1,.435.252,12.233,12.233,0,0,1,1.253,4.158,3.458,3.458,0,0,1-.139,1.157c-0.256,1-.053,1.435.955,1.584a4.339,4.339,0,0,0,1.619-.129,0.754,0.754,0,0,0,.53-1.116c-0.557-1.742.145-3.27,0.693-4.823,0.39-1.108.43-1.092,1.6-1.1,0.811,0,1.626-.008,2.44-0.008,0.483,0,.608.137,0.6,0.632a2.7,2.7,0,0,1-1.9,2.647c-0.475.177-.97,0.3-1.456,0.452a1.433,1.433,0,0,0-1.182,1.856c0.04,0.3.1,0.6,0.151,0.907a1.007,1.007,0,0,1-.54,1.138c-0.345.183-.722,0.311-1.055,0.516a0.782,0.782,0,0,0-.392.49,0.806,0.806,0,0,0,.386.543,2.558,2.558,0,0,0,.984.325,1.449,1.449,0,0,0,.79-0.215,0.628,0.628,0,0,1,.784-0.113,0.677,0.677,0,0,1-.1.872,1.385,1.385,0,0,1-1.884.334,2.319,2.319,0,0,0-2.987.008,1.376,1.376,0,0,1-1.85-.322,0.633,0.633,0,0,1-.126-0.869c0.253-.3.531-0.058,0.8,0.107a1.292,1.292,0,0,0,.752.2,3.025,3.025,0,0,0,1.026-.335,0.745,0.745,0,0,0,.375-0.511,0.776,0.776,0,0,0-.376-0.5c-0.343-.212-0.733-0.347-1.093-0.536a0.911,0.911,0,0,1-.522-0.971c0.042-.363.1-0.722,0.159-1.082a1.4,1.4,0,0,0-1.049-1.787c-0.631-.217-1.276-0.39-1.894-0.638a2.7,2.7,0,0,1-1.628-2.62A0.464,0.464,0,0,1,95.1,15.9c0.551,0.012,1.1,0,1.654,0v0.012Z" transform="translate(-3.469 -1)"/>
</svg>
