<svg xmlns="http://www.w3.org/2000/svg" width="355" height="107" viewBox="0 0 355 107" fill="none">
<circle xmlns="http://www.w3.org/2000/svg" cx="25.2245" cy="23.9003" r="19.9179" fill="white"/>
<path xmlns="http://www.w3.org/2000/svg" fill-rule="evenodd" clip-rule="evenodd" d="M24.5831 0C38.1532 0 49.1691 11.0158 49.1691 24.5859C49.1691 38.1561 38.1532 49.172 24.5831 49.172C11.0129 49.172 -0.00292969 38.1561 -0.00292969 24.5859C-0.00292969 11.0158 11.0129 0 24.5831 0ZM30.3304 36.5597L24.5831 30.8124L18.8357 36.5597C18.5164 36.8791 17.8778 36.8791 17.5585 36.5597L12.6094 31.6105C12.2901 31.2913 12.2901 30.6527 12.6094 30.3335L18.3567 24.5859L12.6094 18.8386C12.2901 18.5193 12.2901 17.8807 12.6094 17.5614L17.5585 12.6123C17.8778 12.293 18.5164 12.293 18.8357 12.6123L24.5831 18.3597L30.3304 12.6123C30.6498 12.293 31.2884 12.293 31.6076 12.6123L36.5568 17.5614C36.876 17.8807 36.876 18.5193 36.5568 18.8386L30.8093 24.5859L36.5568 30.3335C36.876 30.6527 36.876 31.2913 36.5568 31.6105L31.6076 36.5597C31.2884 36.8791 30.6498 36.8791 30.3304 36.5597Z" fill="#008FCA"/>
<circle xmlns="http://www.w3.org/2000/svg" cx="81.4833" cy="23.9023" r="19.9179" fill="white"/>
<path xmlns="http://www.w3.org/2000/svg" fill-rule="evenodd" clip-rule="evenodd" d="M81.7225 0C95.2929 0 106.309 11.0158 106.309 24.5859C106.309 38.1561 95.2929 49.172 81.7225 49.172C68.1524 49.172 57.1367 38.1561 57.1367 24.5859C57.1367 11.0158 68.1524 0 81.7225 0ZM69.2699 20.2755H94.1754C94.6543 20.2755 95.1332 20.5948 95.1332 21.2334V28.0982C95.1332 28.5771 94.6543 29.0562 94.1754 29.0562H69.2699C68.6313 29.0562 68.3121 28.5771 68.3121 28.0982V21.2334C68.3121 20.5948 68.6313 20.2755 69.2699 20.2755Z" fill="#FBBA00"/>
<circle xmlns="http://www.w3.org/2000/svg" cx="24.5829" cy="81.04" r="19.9179" fill="white"/>
<path xmlns="http://www.w3.org/2000/svg" fill-rule="evenodd" clip-rule="evenodd" d="M24.5828 57.1387C38.1532 57.1387 49.1689 68.1546 49.1689 81.7247C49.1689 95.2948 38.1532 106.311 24.5828 106.311C11.0127 106.311 -0.00292969 95.2948 -0.00292969 81.7247C-0.00292969 68.1546 11.0127 57.1387 24.5828 57.1387ZM12.1228 70.069H37.0283C37.5072 70.069 37.9861 70.3885 37.9861 71.0271V77.8919C37.9861 78.3708 37.5072 78.6902 37.0283 78.6902H12.1228C11.4842 78.6902 11.165 78.3708 11.165 77.8919V71.0271C11.165 70.3885 11.4842 70.069 12.1228 70.069ZM12.1228 84.5972H37.0283C37.5072 84.5972 37.9861 85.0761 37.9861 85.555V92.42C37.9861 92.8989 37.5072 93.3778 37.0283 93.3778H12.1228C11.4842 93.3778 11.165 92.8989 11.165 92.42V85.555C11.165 85.0761 11.4842 84.5972 12.1228 84.5972Z" fill="#3D935E"/>
<circle xmlns="http://www.w3.org/2000/svg" cx="81.5937" cy="81.04" r="19.9179" fill="white"/>
<path xmlns="http://www.w3.org/2000/svg" fill-rule="evenodd" clip-rule="evenodd" d="M81.7217 57.1387C95.2919 57.1387 106.308 68.1546 106.308 81.7247C106.308 95.2948 95.2919 106.311 81.7217 106.311C68.1515 106.311 57.1357 95.2948 57.1357 81.7247C57.1357 68.1546 68.1515 57.1387 81.7217 57.1387ZM77.4037 94.1778V86.0357H69.2616C68.7826 86.0357 68.3037 85.7163 68.3037 85.0777V78.2129C68.3037 77.734 68.7826 77.2548 69.2616 77.2548H77.4037V69.2725C77.4037 68.6339 77.723 68.3145 78.3616 68.3145H85.2265C85.7054 68.3145 86.1843 68.6339 86.1843 69.2725V77.2548H94.1669C94.8055 77.2548 95.1247 77.734 95.1247 78.2129V85.0777C95.1247 85.7163 94.8055 86.0357 94.1669 86.0357H86.1843V94.1778C86.1843 94.6567 85.7054 95.1356 85.2265 95.1356H78.3616C77.723 95.1356 77.4037 94.6567 77.4037 94.1778Z" fill="#E41D36"/>
<path xmlns="http://www.w3.org/2000/svg" d="M144.672 55.1393C144.672 52.6595 144.011 50.6756 143.019 49.1876C141.862 47.6998 140.209 47.0385 138.059 47.0385C137.398 47.0385 136.737 47.0385 136.241 47.2037C135.579 47.2037 135.084 47.2037 134.753 47.369V61.5866C135.249 61.752 135.745 62.0825 136.572 62.2479C137.398 62.5787 138.225 62.5787 139.051 62.5787C142.688 62.5787 144.672 60.0989 144.672 55.1393ZM152.608 54.8085C152.608 56.9578 152.442 58.9414 151.781 60.7599C151.285 62.4133 150.458 64.0664 149.466 65.2236C148.474 66.5462 147.152 67.5383 145.664 68.1994C144.176 68.8607 142.523 69.1914 140.539 69.1914C139.382 69.1914 138.39 69.1914 137.398 69.0261C136.406 68.6955 135.579 68.3648 134.753 68.0342V78.4494H126.817V41.9135C127.479 41.7481 128.305 41.583 129.297 41.2522C130.124 41.0868 131.116 40.9217 132.108 40.7563C133.1 40.7563 134.092 40.5909 135.249 40.4255C136.241 40.4255 137.233 40.4255 138.225 40.4255C140.539 40.4255 142.523 40.7563 144.341 41.4176C146.16 42.0789 147.648 43.0707 148.805 44.2279C150.128 45.5505 150.954 47.0385 151.616 48.857C152.277 50.6756 152.608 52.6595 152.608 54.8085ZM173.107 47.865C172.446 47.6998 171.619 47.5344 170.627 47.369C169.636 47.2037 168.644 47.0385 167.652 47.0385C167.156 47.0385 166.494 47.2037 165.833 47.2037C165.172 47.369 164.676 47.3691 164.18 47.5344V68.6955H156.41V42.4094C157.732 41.9135 159.386 41.583 161.369 41.0868C163.353 40.5909 165.503 40.4255 167.817 40.4255C168.148 40.4255 168.644 40.4255 169.305 40.4255C169.966 40.5909 170.462 40.5909 171.123 40.7563C171.785 40.7563 172.281 40.9217 172.942 41.0868C173.438 41.0868 173.934 41.2522 174.43 41.4176L173.107 47.865ZM202.369 54.8085C202.369 56.9578 202.038 58.9414 201.377 60.7599C200.716 62.5787 199.724 64.2318 198.567 65.389C197.409 66.7116 195.921 67.7035 194.268 68.3648C192.615 69.1914 190.797 69.522 188.647 69.522C186.663 69.522 184.845 69.1914 183.192 68.3648C181.373 67.7035 180.051 66.7116 178.893 65.389C177.571 64.2318 176.744 62.5787 176.083 60.7599C175.422 58.9414 175.091 56.9578 175.091 54.8085C175.091 52.6595 175.422 50.6756 176.083 48.857C176.744 47.0385 177.736 45.5505 178.893 44.2279C180.051 42.9053 181.539 42.0789 183.192 41.2522C184.845 40.5909 186.663 40.2604 188.647 40.2604C190.631 40.2604 192.615 40.5909 194.268 41.2522C195.921 42.0789 197.244 42.9053 198.567 44.2279C199.724 45.5505 200.55 47.0385 201.377 48.857C202.038 50.6756 202.369 52.6595 202.369 54.8085ZM194.268 54.8085C194.268 52.3287 193.772 50.5102 192.781 49.0224C191.788 47.6998 190.466 47.0385 188.647 47.0385C186.829 47.0385 185.506 47.6998 184.514 49.0224C183.523 50.5102 183.026 52.3287 183.026 54.8085C183.026 57.2883 183.523 59.1068 184.514 60.5948C185.506 62.0825 186.829 62.7438 188.647 62.7438C190.466 62.7438 191.788 62.0825 192.781 60.5948C193.772 59.1068 194.268 57.2883 194.268 54.8085ZM212.784 54.6431C212.784 57.1229 213.28 59.1068 214.437 60.4294C215.429 61.9174 217.082 62.7438 219.232 62.7438C219.893 62.7438 220.554 62.7438 221.216 62.5787C221.877 62.5787 222.373 62.5787 222.703 62.4133V48.1957C222.207 47.865 221.546 47.5344 220.719 47.369C219.893 47.2037 219.232 47.0385 218.405 47.0385C214.603 47.0385 212.784 49.5183 212.784 54.6431ZM230.473 67.8688C229.812 68.0342 228.986 68.1994 228.159 68.3648C227.167 68.6955 226.175 68.8607 225.183 69.0261C224.191 69.0261 223.199 69.1914 222.207 69.3568C221.215 69.3568 220.224 69.3568 219.232 69.3568C216.917 69.3568 214.933 69.0261 213.115 68.3648C211.296 67.7035 209.808 66.7116 208.486 65.5544C207.329 64.2318 206.337 62.7438 205.675 60.9253C205.014 59.2722 204.683 57.2883 204.683 54.9739C204.683 52.8246 205.014 50.6756 205.51 48.857C206.171 47.0385 206.998 45.5505 207.99 44.2279C209.147 43.0707 210.304 42.0789 211.957 41.4176C213.445 40.7563 215.099 40.4255 217.082 40.4255C218.24 40.4255 219.232 40.5909 220.058 40.7563C220.885 40.9217 221.877 41.2522 222.703 41.583V29.0185L230.473 27.8613V67.8688ZM246.179 63.2397C247.006 63.2397 247.667 63.2397 248.493 63.2397C249.155 63.2397 249.651 63.0746 250.147 63.0746V57.1229C249.816 56.9578 249.32 56.9578 248.659 56.7924C247.997 56.7924 247.502 56.7924 247.006 56.7924C246.179 56.7924 245.518 56.7924 244.856 56.9578C244.195 56.9578 243.699 57.1229 243.203 57.4537C242.707 57.6191 242.211 57.9496 242.046 58.4455C241.715 58.7763 241.55 59.2722 241.55 59.9335C241.55 61.2561 242.046 62.0825 242.872 62.5787C243.699 63.0746 244.856 63.2397 246.179 63.2397ZM245.518 40.2604C247.997 40.2604 249.816 40.5909 251.47 41.0868C252.956 41.583 254.115 42.244 255.106 43.2361C256.099 44.2279 256.759 45.5505 257.09 46.8731C257.42 48.3611 257.75 49.8489 257.75 51.6674V67.8688C256.594 68.1994 254.94 68.5302 252.956 68.8607C250.972 69.1915 248.493 69.3568 245.683 69.3568C243.865 69.3568 242.211 69.1915 240.889 68.8607C239.401 68.5302 238.078 68.0342 237.086 67.2075C235.929 66.5462 235.102 65.5544 234.607 64.3972C234.111 63.2397 233.78 61.9174 233.78 60.264C233.78 58.6109 234.111 57.1229 234.772 56.1311C235.433 54.9739 236.26 53.9818 237.417 53.3208C238.409 52.6595 239.731 52.1633 241.054 51.9982C242.542 51.6674 244.03 51.502 245.518 51.502C246.51 51.502 247.336 51.502 248.163 51.6674C248.989 51.6674 249.651 51.8328 250.147 51.9982V51.1715C250.147 49.8489 249.651 48.857 248.99 48.0303C248.163 47.2037 246.675 46.7078 244.691 46.7078C243.369 46.7078 242.046 46.8731 240.723 47.0385C239.401 47.2037 238.244 47.5344 237.417 47.865L236.425 41.583C236.756 41.4176 237.417 41.2522 238.078 41.0868C238.739 40.9217 239.566 40.7563 240.393 40.7563C241.054 40.5909 242.046 40.4255 242.872 40.4255C243.699 40.2604 244.691 40.2604 245.518 40.2604ZM277.754 53.9818C277.754 51.502 277.424 49.6835 276.764 48.6917C276.103 47.5344 274.945 47.0385 273.456 47.0385C272.96 47.0385 272.465 47.0385 271.805 47.2037C271.307 47.2037 270.811 47.2037 270.316 47.369V68.6955H262.547V41.9135C263.207 41.7481 263.868 41.583 264.861 41.4176C265.687 41.2522 266.678 41.0868 267.671 40.9217C268.662 40.7563 269.655 40.5909 270.811 40.4255C271.805 40.4255 272.795 40.4255 273.954 40.4255C275.935 40.4255 277.589 40.5909 278.748 41.0868C280.069 41.583 281.062 42.244 281.888 42.9053C283.046 42.0789 284.202 41.4176 285.691 41.0868C287.177 40.5909 288.501 40.4255 289.824 40.4255C291.974 40.4255 293.79 40.5909 295.279 41.2522C296.603 41.9135 297.759 42.7402 298.587 43.8974C299.412 45.0546 300.073 46.3772 300.403 47.865C300.734 49.5183 300.901 51.1715 300.901 52.99V68.6955H292.965V53.9818C292.965 51.502 292.634 49.6835 291.974 48.6917C291.311 47.5344 290.32 47.0385 288.666 47.0385C288.171 47.0385 287.675 47.2037 286.847 47.369C286.186 47.5344 285.526 47.865 285.031 48.1957C285.196 49.0224 285.361 49.8489 285.526 50.6756C285.526 51.6674 285.526 52.4941 285.526 53.6513V68.6955H277.754V53.9818ZM329.335 67.7035C328.014 68.1994 326.36 68.5302 324.211 68.8607C322.061 69.1915 319.912 69.3568 317.598 69.3568C315.118 69.3568 313.299 69.0261 311.645 68.3648C310.159 67.7035 308.835 66.877 308.01 65.7196C307.016 64.5623 306.356 63.2397 306.025 61.5866C305.53 60.0989 305.365 58.2804 305.365 56.4616V40.9217H313.299V55.4698C313.299 57.9496 313.629 59.9335 314.29 60.9253C314.953 62.0825 316.109 62.7438 318.093 62.7438C318.588 62.7438 319.251 62.5787 319.747 62.5787C320.407 62.5787 321.068 62.4133 321.566 62.4133V40.9217H329.335V67.7035ZM342.396 63.0746C343.884 63.0746 344.875 62.9092 345.536 62.7438C346.034 62.4133 346.364 61.9174 346.364 61.0907C346.364 60.4294 346.034 59.7681 345.206 59.4376C344.38 58.9414 343.221 58.2804 341.735 57.7842C340.412 57.2883 339.256 56.7924 338.262 56.2965C337.271 55.8006 336.443 55.3044 335.783 54.6431C335.122 53.8167 334.459 52.99 334.129 52.1633C333.799 51.1715 333.468 50.0143 333.468 48.6917C333.468 46.0464 334.459 44.0628 336.443 42.5748C338.427 40.9217 341.072 40.2604 344.38 40.2604C346.034 40.2604 347.685 40.4255 349.339 40.7563C350.828 40.9217 351.984 41.2522 352.977 41.7481L351.653 47.865C350.663 47.5344 349.669 47.2037 348.678 46.8731C347.52 46.7078 346.364 46.5426 345.04 46.5426C342.561 46.5426 341.237 47.2037 341.237 48.6917C341.237 49.0224 341.402 49.1876 341.402 49.5183C341.57 49.6835 341.735 50.0143 342.065 50.1796C342.396 50.3448 342.891 50.6756 343.386 51.0061C343.884 51.1715 344.545 51.502 345.536 51.8328C347.19 52.4941 348.678 53.1554 349.669 53.6513C350.828 54.3126 351.819 54.9739 352.479 55.6352C352.977 56.4616 353.472 57.2883 353.803 58.115C353.968 58.9414 354.133 59.9335 354.133 61.0907C354.133 63.901 353.142 65.8849 351.158 67.3729C349.009 68.6955 346.034 69.522 342.396 69.522C339.916 69.522 337.767 69.1915 336.278 68.8607C334.624 68.3648 333.468 68.0342 332.808 67.7035L334.129 61.4212C335.452 61.9174 336.774 62.4133 338.262 62.5787C339.586 62.9092 341.072 63.0746 342.396 63.0746Z" fill="black"/>
</svg>