<svg width="284" height="69" viewBox="0 0 284 69" fill="none" xmlns="http://www.w3.org/2000/svg">
<path fill-rule="evenodd" clip-rule="evenodd" d="M0.0339966 68.945L68.84 68.92L68.95 0.0120239L0 0L0.0339966 68.945Z" fill="#9768D2"/>
<path fill-rule="evenodd" clip-rule="evenodd" d="M14.379 27.339L14.3311 41.73L26.7501 48.692L26.782 34.492L38.632 27.276L26.754 20.364L14.379 27.339ZM40.572 56.844L28.3441 49.615L28.3911 35.872L40.565 42.526L52.879 35.454L53.059 49.69L40.572 56.844ZM34.5731 22.717L28.567 19.072L40.537 12.102L46.7241 15.539C48.6501 16.669 51.0831 18.087 52.9611 19.07L53.011 33.185L40.683 40.281L40.5941 26.294C39.3061 25.293 36.1491 23.568 34.5731 22.717Z" fill="#FEFEFE"/>
<path fill-rule="evenodd" clip-rule="evenodd" d="M272.27 21.797L274.99 32.382C273.163 32.374 271.377 32.374 269.55 32.382L272.27 21.797ZM241.169 41.89L246.882 41.887L246.898 31.145L249.527 31.153L254.804 41.804L267.209 41.787L268.426 36.543H276.11L277.328 41.787L283.456 41.842L276.054 17.287C273.508 17.274 271.031 17.274 268.484 17.287L261.082 41.842L254.462 28.449L260.331 17.316L254.77 17.244L249.52 26.825L246.888 26.833L246.887 17.298L241.183 17.213L241.169 41.89ZM196.166 21.575L202.507 21.6961L202.58 41.897L208.379 41.901L208.37 21.69L214.501 21.634L214.96 17.241L196.166 17.23V21.575ZM157.246 41.753L172.271 41.905L172.246 37.688L162.959 37.689L162.958 31.399L170.491 31.349L170.545 27.449L163.124 27.329L162.974 21.348L171.708 21.355L172.277 17.271L157.235 17.238L157.246 41.753ZM111.213 41.796L116.938 41.875L116.963 33.663C120.887 33.569 123.891 33.661 126.547 31.689C128.904 29.939 130.052 26.393 129.066 22.691C128.301 19.818 125.842 18.231 122.68 17.567C120.405 17.089 113.762 17.007 111.232 17.327L111.213 41.796ZM116.957 29.465L116.951 21.375C120.746 21.298 123.547 21.414 123.431 25.5C123.32 29.429 120.587 29.581 116.957 29.465ZM175.989 41.89L181.702 41.887L181.719 31.145L184.348 31.153L189.625 41.804L195.902 41.904L189.282 28.448L195.151 17.315L189.59 17.243L184.339 26.824L181.707 26.832L181.706 17.297L176.002 17.212L175.989 41.89ZM87.5132 41.844L93.2142 41.906L93.2542 21.75H100.526L100.638 41.853L106.439 41.869L106.454 17.383L87.5432 17.225L87.5132 41.844ZM140.323 16.807C133.679 17.884 130.654 24.2 131.606 32.053C132.437 38.909 136.874 43.503 144.781 42.319C151.534 41.307 154.226 34.732 153.542 27.123C152.907 20.062 147.891 15.58 140.323 16.807ZM140.989 21.113C149.378 18.257 149.468 36.265 144.063 38.04C135.841 40.74 135.637 22.935 140.989 21.113ZM217.471 41.856L224.448 41.904L231.271 23.721L230.726 27.504L230.709 41.763L236.423 41.879L236.407 17.383L229.474 17.199L222.595 34.994L223.106 31.361V17.231L217.472 17.238L217.471 41.856Z" fill="#020202"/>
<path fill-rule="evenodd" clip-rule="evenodd" d="M87.5049 51.651V46.974V46.509H87.9689H91.3489H91.8129V46.974V51.651H90.8839V47.44H88.4329V51.651H87.5049ZM143.42 52.34V50.981V50.516H143.885H144V48.106V47.906L144.147 47.768L145.247 46.735L145.383 46.608H145.565H147.609H148.073V47.073V50.516H148.422V50.981V52.34H147.493V51.446H144.349V52.34H143.42ZM144.929 50.516H147.144V47.538H145.746L144.928 48.306L144.929 50.516ZM278.876 51.648V50.934V50.773L278.978 50.645L279.837 49.565C279.577 49.556 279.341 49.445 279.169 49.273C278.989 49.093 278.876 48.843 278.876 48.57V47.505C278.876 47.233 278.989 46.984 279.169 46.803C279.348 46.622 279.597 46.509 279.87 46.509H283H283.465V46.974V51.649H282.536V49.566H281.022L279.805 51.095V51.648H278.876ZM280.577 48.636H280.8H282.537V47.44H279.871C279.855 47.44 279.838 47.448 279.826 47.46C279.813 47.471 279.806 47.488 279.806 47.505V48.57C279.806 48.586 279.814 48.603 279.827 48.615C279.839 48.628 279.855 48.636 279.872 48.636H280.577ZM271.018 51.651V46.518H271.947V50.008L274.385 46.587L274.398 46.596V46.518H275.327V51.651H274.398V48.167L271.947 51.605V51.651H271.018ZM263.806 46.514V48.636H266.392V46.514H267.321V51.639H266.392V49.567H263.806V51.639H262.877V46.514H263.806ZM254.728 51.639V48.106V47.906L254.875 47.768L255.975 46.735L256.11 46.608H256.292H258.707H259.172V47.073V51.639H258.243V49.567H255.657V51.639H254.728ZM255.657 48.305V48.636H258.243V47.537H256.475L255.657 48.305ZM246.859 51.639V46.973V46.508H247.324H250.839H251.303V46.973V51.639H250.374V47.438H247.788V51.639H246.859ZM238.712 46.514V46.561L238.725 46.551L240.471 48.735L242.227 46.565V46.515H243.156V51.64H242.227V48.039L240.829 49.767L240.468 50.213L240.109 49.763L238.712 48.016V51.639H237.783V46.514H238.712ZM232.998 50.708C233.014 50.708 233.031 50.7 233.043 50.688C233.055 50.676 233.063 50.659 233.063 50.643V47.506C233.063 47.489 233.055 47.472 233.043 47.46C233.031 47.448 233.014 47.44 232.997 47.44H230.424C230.407 47.44 230.391 47.448 230.378 47.46C230.365 47.471 230.358 47.488 230.358 47.506V50.643C230.358 50.661 230.365 50.677 230.377 50.69C230.39 50.701 230.407 50.709 230.423 50.709L232.998 50.708ZM233.7 51.346C233.52 51.526 233.271 51.639 232.998 51.639H230.425C230.152 51.639 229.903 51.526 229.723 51.346C229.543 51.164 229.431 50.915 229.431 50.643V47.506C229.431 47.234 229.543 46.985 229.723 46.804C229.903 46.622 230.152 46.51 230.425 46.51H232.998C233.272 46.51 233.521 46.622 233.7 46.802C233.88 46.982 233.992 47.232 233.992 47.506V50.643C233.992 50.916 233.88 51.166 233.7 51.346ZM226.14 46.518V47.604V47.797L226.004 47.933L224.855 49.083L226.004 50.233L226.14 50.369V50.562V51.648H225.211V50.755L224.024 49.566H222.48V51.649H221.551V46.516H222.48V48.636H223.988L225.211 47.411V46.518H226.14ZM207.749 51.648V50.934V50.773L207.85 50.645L208.709 49.565C208.449 49.556 208.213 49.445 208.041 49.273C207.861 49.093 207.748 48.843 207.748 48.57V47.505C207.748 47.233 207.86 46.984 208.041 46.803C208.22 46.622 208.469 46.509 208.742 46.509H211.872H212.336V46.974V51.649H211.407V49.566H209.893L208.676 51.095V51.648H207.749ZM209.449 48.636H209.672H211.409V47.44H208.743C208.727 47.44 208.71 47.448 208.698 47.46C208.685 47.471 208.678 47.488 208.678 47.505V48.57C208.678 48.586 208.686 48.603 208.699 48.615C208.711 48.628 208.728 48.636 208.744 48.636H209.449ZM199.732 51.639V48.106V47.906L199.879 47.768L200.979 46.735L201.114 46.608H201.296H203.711H204.175V47.073V51.639H203.246V49.567H200.66V51.639H199.732ZM200.661 48.305V48.636H203.247V47.537H201.478L200.661 48.305ZM192.607 46.514V48.636H195.193V46.514H196.122V51.639H195.193V49.567H192.607V51.639H191.678V46.514H192.607ZM184.454 46.514V48.636H187.04V46.514H187.969V51.639H187.04V49.567H184.454V51.639H183.525V46.514H184.454ZM179.83 47.44H176.607V48.636H179.83V49.566H176.607V50.762H179.83V51.692H176.143H175.678V51.227V46.974V46.509H176.143H179.83V47.44ZM161.485 47.44H159.871V46.51H161.485H161.95H164.029V47.44H162.415V51.651H161.486L161.485 47.44ZM171.164 48.636H171.167C171.183 48.635 171.197 48.627 171.209 48.615C171.222 48.603 171.23 48.586 171.23 48.57V47.505C171.23 47.487 171.223 47.471 171.211 47.46C171.197 47.448 171.18 47.44 171.164 47.44H168.498V48.636H171.164ZM172.159 48.571C172.159 48.765 172.102 48.948 172.004 49.102C172.101 49.256 172.159 49.438 172.159 49.633V50.698C172.159 50.969 172.047 51.218 171.867 51.399L171.865 51.401C171.684 51.581 171.436 51.693 171.165 51.693H168.035H167.571V51.228V46.975V46.51H168.035H171.165C171.438 46.51 171.687 46.623 171.867 46.803C172.046 46.985 172.159 47.234 172.159 47.506V48.571ZM168.499 49.567V50.763H171.165C171.183 50.763 171.199 50.756 171.21 50.745L171.212 50.743C171.223 50.732 171.231 50.715 171.231 50.698V49.633C171.231 49.617 171.223 49.601 171.21 49.588C171.198 49.575 171.182 49.567 171.165 49.567H168.499ZM155.447 47.884V47.506C155.447 47.489 155.439 47.472 155.427 47.46C155.415 47.448 155.398 47.44 155.381 47.44H152.808C152.791 47.44 152.774 47.448 152.763 47.46C152.75 47.471 152.743 47.488 152.743 47.506V50.643C152.743 50.661 152.751 50.677 152.762 50.69C152.775 50.701 152.792 50.709 152.808 50.709H155.381C155.398 50.709 155.414 50.701 155.426 50.689C155.438 50.677 155.446 50.66 155.446 50.644V50.081H156.375V50.644C156.375 50.917 156.262 51.167 156.083 51.347C155.903 51.527 155.654 51.64 155.381 51.64H152.808C152.535 51.64 152.286 51.527 152.106 51.347C151.926 51.165 151.814 50.916 151.814 50.644V47.507C151.814 47.235 151.926 46.986 152.106 46.805C152.286 46.623 152.535 46.511 152.809 46.511H155.382C155.655 46.511 155.905 46.623 156.084 46.803C156.264 46.983 156.376 47.233 156.376 47.507V47.885L155.447 47.884ZM139.221 50.708C139.238 50.708 139.254 50.7 139.266 50.688C139.278 50.676 139.286 50.659 139.286 50.643V47.506C139.286 47.489 139.278 47.472 139.266 47.46C139.254 47.448 139.238 47.44 139.22 47.44H136.647C136.63 47.44 136.614 47.448 136.602 47.46C136.589 47.471 136.582 47.488 136.582 47.506V50.643C136.582 50.661 136.59 50.677 136.601 50.69C136.614 50.701 136.631 50.709 136.647 50.709L139.221 50.708ZM139.923 51.346C139.743 51.526 139.494 51.639 139.221 51.639H136.648C136.375 51.639 136.126 51.526 135.946 51.346C135.766 51.164 135.654 50.915 135.654 50.643V47.506C135.654 47.234 135.766 46.985 135.946 46.804C136.126 46.622 136.375 46.51 136.648 46.51H139.221C139.495 46.51 139.744 46.622 139.924 46.802C140.104 46.982 140.216 47.232 140.216 47.506V50.643C140.215 50.916 140.103 51.166 139.923 51.346ZM131.202 48.636H131.205C131.22 48.635 131.235 48.627 131.247 48.615C131.259 48.603 131.268 48.586 131.268 48.57V47.505C131.268 47.487 131.261 47.471 131.249 47.46C131.235 47.448 131.218 47.44 131.202 47.44H128.536V48.636H131.202ZM132.196 48.571C132.196 48.765 132.139 48.948 132.041 49.102C132.139 49.256 132.196 49.438 132.196 49.633V50.698C132.196 50.969 132.084 51.218 131.903 51.399L131.901 51.401C131.721 51.581 131.472 51.693 131.201 51.693H128.071H127.606V51.228V46.975V46.51H128.071H131.201C131.474 46.51 131.723 46.623 131.903 46.803C132.083 46.985 132.196 47.234 132.196 47.506V48.571ZM128.536 49.567V50.763H131.202C131.22 50.763 131.236 50.756 131.247 50.745L131.249 50.743C131.26 50.732 131.268 50.715 131.268 50.698V49.633C131.268 49.617 131.26 49.601 131.247 49.588C131.235 49.575 131.219 49.567 131.202 49.567H128.536ZM120.434 50.165V50.698C120.434 50.716 120.442 50.732 120.453 50.745C120.465 50.757 120.482 50.764 120.499 50.764H123.072C123.09 50.764 123.106 50.757 123.117 50.746L123.119 50.744C123.13 50.733 123.137 50.716 123.137 50.699V49.634C123.137 49.618 123.129 49.601 123.116 49.589C123.104 49.577 123.09 49.57 123.074 49.569H123.071H121.799V48.639H123.071H123.074C123.09 48.638 123.104 48.63 123.116 48.618C123.129 48.606 123.137 48.589 123.137 48.573V47.508C123.137 47.49 123.13 47.474 123.119 47.463L123.117 47.461C123.106 47.45 123.09 47.443 123.072 47.443H120.499C120.481 47.443 120.465 47.451 120.453 47.462C120.441 47.475 120.434 47.491 120.434 47.509V48.041H119.505V47.509C119.505 47.237 119.618 46.988 119.797 46.807L119.799 46.805C119.979 46.625 120.227 46.513 120.499 46.513H123.072C123.343 46.513 123.592 46.626 123.772 46.806L123.774 46.808C123.954 46.989 124.066 47.238 124.066 47.509V48.574C124.066 48.768 124.009 48.951 123.912 49.105C124.009 49.259 124.066 49.441 124.066 49.636V50.701C124.066 50.972 123.954 51.221 123.774 51.402L123.772 51.404C123.591 51.584 123.343 51.696 123.072 51.696H120.499C120.227 51.696 119.978 51.584 119.799 51.404L119.797 51.402C119.617 51.221 119.505 50.972 119.505 50.7V50.167H120.434V50.165ZM111.654 51.651V46.518H112.583V50.008L115.021 46.587L115.034 46.596V46.518H115.963V51.651H115.034V48.167L112.583 51.605V51.651H111.654ZM107.034 50.708C107.051 50.708 107.067 50.7 107.079 50.688C107.091 50.676 107.1 50.659 107.1 50.643V47.506C107.1 47.489 107.092 47.472 107.08 47.46C107.068 47.448 107.052 47.44 107.034 47.44H104.461C104.444 47.44 104.427 47.448 104.416 47.46C104.403 47.471 104.396 47.488 104.396 47.506V50.643C104.396 50.661 104.404 50.677 104.415 50.69C104.428 50.701 104.445 50.709 104.461 50.709L107.034 50.708ZM107.736 51.346C107.556 51.526 107.307 51.639 107.034 51.639H104.461C104.188 51.639 103.938 51.526 103.759 51.346C103.579 51.164 103.467 50.915 103.467 50.643V47.506C103.467 47.234 103.579 46.985 103.759 46.804C103.939 46.622 104.188 46.51 104.462 46.51H107.035C107.309 46.51 107.558 46.622 107.738 46.802C107.918 46.982 108.03 47.232 108.03 47.506V50.643C108.028 50.916 107.916 51.166 107.736 51.346ZM95.8039 46.51H98.6539C98.9279 46.51 99.1769 46.622 99.3569 46.802C99.5369 46.982 99.6489 47.232 99.6489 47.506V48.783C99.6489 49.057 99.5369 49.307 99.3569 49.487C99.1769 49.667 98.9279 49.779 98.6539 49.779H96.2689V51.652H95.3399V49.779V49.314V46.976V46.511L95.8039 46.51ZM98.6539 47.44H96.2689V48.848H98.6539C98.6709 48.848 98.6879 48.84 98.6999 48.828C98.7119 48.816 98.7199 48.799 98.7199 48.782V47.505C98.7199 47.487 98.7119 47.471 98.6999 47.459C98.6869 47.448 98.6709 47.44 98.6539 47.44Z" fill="black"/>
</svg>
