<svg width="235" height="34" viewBox="0 0 235 34" fill="none" xmlns="http://www.w3.org/2000/svg" class="header__logo-icon" aria-label="Логотип Пеноплэкс">
    <path d="M20.1467 20.8717C20.1467 20.8717 20.3428 16.6449 15.3978 16.6449C10.4528 16.6449 10.6574 20.8717 10.6574 20.8717V32.2248H0V0.473394H8.44919V7.1263H11.1775V0.473394H19.6267V7.1263H22.3464V0.473394H30.7956V32.2248H20.1467V20.8717Z" fill="#EC6608"></path>
    <path d="M40.0633 29.5112V28.3361H42.263C42.2454 27.9595 42.1014 27.5994 41.8537 27.3133C41.7278 27.1799 41.5741 27.0753 41.4033 27.0067C41.2326 26.938 41.0488 26.9071 40.8647 26.916C40.511 26.9187 40.161 26.9875 39.8331 27.1188L39.5944 25.9184C40.087 25.6801 40.6327 25.5695 41.1802 25.5972C41.5621 25.5867 41.942 25.6566 42.2947 25.8023C42.6474 25.948 42.965 26.1662 43.2264 26.4426C43.8322 27.1459 44.138 28.0555 44.079 28.9786C44.1123 29.4362 44.0542 29.8958 43.9079 30.331C43.7616 30.7662 43.53 31.1684 43.2264 31.5147C42.9359 31.8161 42.5845 32.0532 42.1951 32.2106C41.8058 32.3679 41.3872 32.4419 40.967 32.4276C40.4712 32.4489 39.9774 32.3533 39.5262 32.1487L39.7564 30.8976C40.083 30.9965 40.4211 31.0533 40.7624 31.0666C40.9579 31.0733 41.1526 31.0399 41.3345 30.9687C41.5164 30.8974 41.6815 30.7897 41.8196 30.6524C42.1045 30.3739 42.2747 30.0002 42.2971 29.6042L40.0633 29.5112Z" fill="#EC6608"></path>
    <path d="M49.1775 24.1939H50.7463V25.5803C51.5063 25.683 52.1953 26.0777 52.6646 26.6793C53.1351 27.3588 53.3687 28.1722 53.3296 28.9955C53.3731 29.8222 53.1458 30.6406 52.6817 31.3287C52.451 31.6266 52.1592 31.8725 51.8256 32.0503C51.492 32.2281 51.1241 32.3336 50.7463 32.36V33.7887H49.1775V32.36C47.4723 32.1402 46.6197 31.0159 46.6197 28.9786C46.5825 28.1659 46.8097 27.3628 47.2677 26.6877C47.498 26.3903 47.7852 26.1408 48.113 25.9537C48.4407 25.7666 48.8025 25.6454 49.1775 25.5972V24.1939ZM49.1775 31.2949V26.637C48.4954 26.916 48.1544 27.6937 48.1544 28.9533C48.1544 30.2128 48.521 31.0328 49.2031 31.278L49.1775 31.2949ZM50.6951 26.6454V31.278C51.3772 30.9821 51.7097 30.1959 51.7097 28.9194C51.7097 27.643 51.4028 26.9667 50.7207 26.6454H50.6951Z" fill="#EC6608"></path>
    <path d="M58.4196 24.1939H59.9884V25.5803C60.7454 25.6851 61.4309 26.0796 61.8982 26.6793C62.3687 27.3588 62.6023 28.1722 62.5632 28.9955C62.6067 29.8222 62.3794 30.6406 61.9153 31.3287C61.6855 31.6255 61.3951 31.8709 61.063 32.0486C60.731 32.2263 60.3647 32.3325 59.9884 32.36V33.814H58.4196V32.36C56.7144 32.1402 55.8619 31.0131 55.8619 28.9786C55.8203 28.1601 56.0477 27.3503 56.5098 26.6708C56.7401 26.3734 57.0274 26.1239 57.3551 25.9368C57.6828 25.7496 58.0446 25.6285 58.4196 25.5803V24.1939ZM58.4196 31.2949V26.637C57.7376 26.916 57.3965 27.6937 57.3965 28.9533C57.3965 30.2128 57.7631 31.0328 58.4452 31.278L58.4196 31.2949ZM59.9372 26.6454V31.278C60.6193 30.9793 60.9603 30.1931 60.9603 28.9194C60.9603 27.6458 60.6278 26.8878 59.9628 26.6454H59.9372Z" fill="#EC6608"></path>
    <path d="M69.9211 29.5873H66.8176C66.8044 29.7796 66.8326 29.9724 66.9002 30.1531C66.9678 30.3339 67.0733 30.4983 67.2098 30.6355C67.486 30.8648 67.8391 30.9825 68.1988 30.9652C68.6254 30.9623 69.0486 30.891 69.4521 30.7538L69.6738 32.005C69.1038 32.2135 68.4993 32.3139 67.8919 32.3008C67.5059 32.3237 67.1197 32.2595 66.7624 32.1131C66.405 31.9667 66.0857 31.7419 65.8286 31.4555C65.3132 30.773 65.0593 29.931 65.1125 29.08C65.0663 28.1762 65.3275 27.2831 65.8542 26.544C66.0684 26.2497 66.3503 26.0103 66.6766 25.8456C67.0028 25.6809 67.3639 25.5958 67.7299 25.5972C68.0526 25.5895 68.372 25.663 68.6582 25.8108C68.9445 25.9586 69.1883 26.176 69.3669 26.4426C69.7979 27.1241 70.0035 27.922 69.9552 28.725C69.9616 29.0128 69.9502 29.3008 69.9211 29.5873ZM66.8176 28.3615H68.3779C68.3779 27.364 68.1306 26.8652 67.6361 26.8652C67.5 26.8707 67.369 26.9185 67.2619 27.002C67.1547 27.0855 67.0769 27.2003 67.0393 27.3302C66.895 27.6583 66.8196 28.012 66.8176 28.3699V28.3615Z" fill="#EC6608"></path>
    <path d="M72.7943 25.7156H74.4995V28.3108H74.687L75.8295 25.7156H77.6541L75.9489 28.5137C76.5031 28.7081 76.8867 29.359 77.1084 30.3734C77.2297 31.0095 77.4213 31.6303 77.6796 32.2248H75.9745C75.7489 31.7191 75.5858 31.1884 75.4885 30.644C75.318 29.9085 75.0281 29.5365 74.6359 29.5365H74.5506V32.2248H72.8455L72.7943 25.7156Z" fill="#EC6608"></path>
    <path d="M79.9561 25.7156H84.6368V27.1442H83.1789V32.2163H81.414V27.1442H79.9561V25.7156Z" fill="#EC6608"></path>
    <path d="M87.1861 25.7155H88.7719V27.1273C88.7719 28.2347 88.7207 29.2407 88.6355 30.1198C88.7804 29.6549 89.0277 29.0124 89.3602 28.2093L90.3492 25.6733H92.0544V32.1825H90.4515V30.8046C90.4515 30.1706 90.4941 29.1984 90.5708 27.8712C90.3321 28.632 90.119 29.2491 89.9229 29.7225C89.5222 30.7369 89.1641 31.5738 88.8486 32.2586H87.2116L87.1861 25.7155Z" fill="#EC6608"></path>
    <path d="M95.0981 32.2248V25.7409C95.7338 25.654 96.3748 25.6116 97.0164 25.6141C98.9518 25.6141 99.9153 26.1551 99.9153 27.2456C99.9278 27.6035 99.7994 27.9522 99.5572 28.2178C99.315 28.4775 99.0004 28.6599 98.6534 28.7419C99.0829 28.7903 99.4843 28.9775 99.7959 29.2745C100.062 29.5455 100.21 29.9104 100.205 30.2889C100.215 30.6629 100.091 31.0283 99.8556 31.3202C99.6174 31.6083 99.3007 31.8225 98.9433 31.9373C98.5857 32.0586 98.2175 32.1463 97.8435 32.1994C97.4735 32.2514 97.1002 32.2768 96.7266 32.2755C96.1832 32.2976 95.639 32.2806 95.0981 32.2248ZM96.8033 29.4351V31.1258C96.9506 31.1417 97.0993 31.1417 97.2466 31.1258C97.545 31.1342 97.8399 31.061 98.0992 30.9145C98.2107 30.8467 98.302 30.7507 98.3634 30.6362C98.4249 30.5218 98.4544 30.3931 98.4488 30.2635C98.4541 30.1329 98.4246 30.0031 98.3632 29.8874C98.3019 29.7716 98.2108 29.6739 98.0992 29.6042C97.8244 29.4492 97.5115 29.3732 97.1955 29.3844L96.8033 29.4351ZM96.8033 26.7807V28.3108H97.1955C97.4686 28.3225 97.7381 28.2453 97.9628 28.091C98.0633 28.0286 98.1453 27.941 98.2007 27.8371C98.2561 27.7332 98.2829 27.6167 98.2783 27.4992C98.2837 27.3889 98.2607 27.2791 98.2115 27.18C98.1623 27.0809 98.0884 26.9958 97.9969 26.9329C97.7725 26.7941 97.5108 26.7263 97.2466 26.7384C97.0978 26.7378 96.9493 26.752 96.8033 26.7807Z" fill="#EC6608"></path>
    <path d="M102.95 25.7156H104.715V28.184H106.097V25.7156H107.853V32.2248H106.097V29.6887H104.715V32.2248H102.95V25.7156Z" fill="#EC6608"></path>
    <path d="M115.347 28.3277V30.7369C115.343 31.2345 115.374 31.7317 115.441 32.2248H113.872L113.778 31.5907C113.619 31.825 113.402 32.0158 113.149 32.1458C112.896 32.2758 112.614 32.3407 112.329 32.3346C112.094 32.3401 111.86 32.2927 111.646 32.1961C111.432 32.0995 111.243 31.9561 111.093 31.7767C110.714 31.2986 110.542 30.6914 110.614 30.0878C110.686 29.4843 110.996 28.9335 111.476 28.5559C112.108 28.1422 112.851 27.9271 113.608 27.9388V27.7951C113.617 27.6761 113.6 27.5565 113.559 27.4443C113.518 27.3321 113.453 27.2298 113.369 27.1442C113.277 27.0582 113.169 26.992 113.05 26.9498C112.931 26.9076 112.805 26.8903 112.679 26.899C112.205 26.9032 111.741 27.0378 111.34 27.2879L111.016 26.1044C111.649 25.7726 112.355 25.604 113.071 25.6141C113.483 25.5997 113.893 25.6747 114.273 25.8339C114.576 25.9688 114.827 26.1971 114.989 26.4848C115.137 26.7491 115.243 27.0341 115.305 27.3302C115.353 27.6604 115.367 27.9946 115.347 28.3277ZM113.642 30.1875V29.0631C113.429 29.0635 113.217 29.0919 113.011 29.1477C112.809 29.2145 112.63 29.3343 112.491 29.4943C112.321 29.6813 112.232 29.9274 112.244 30.179C112.229 30.4148 112.298 30.6482 112.44 30.8384C112.491 30.9046 112.557 30.9586 112.632 30.9966C112.708 31.0346 112.79 31.0557 112.875 31.0582C113.043 31.0657 113.208 31.0137 113.341 30.9114C113.473 30.8092 113.565 30.6634 113.599 30.5002C113.623 30.3978 113.629 30.2919 113.616 30.1875H113.642Z" fill="#EC6608"></path>
    <path d="M123.097 25.7832V32.2248H121.392V29.6887H121.239C121.068 29.6781 120.9 29.7258 120.761 29.824C120.675 29.8742 120.6 29.9402 120.539 30.0184L120.377 30.2635C120.319 30.3759 120.268 30.4916 120.224 30.6101C120.173 30.7679 120.139 30.8863 120.122 30.9652C120.122 31.0497 120.071 31.185 120.019 31.3794L119.917 31.7683C119.874 31.933 119.811 32.092 119.73 32.2417H117.905C118.043 32.0164 118.151 31.775 118.229 31.5231L118.331 31.1681C118.388 30.9821 118.431 30.8384 118.459 30.7369C118.459 30.6355 118.536 30.5002 118.596 30.3481C118.651 30.2082 118.716 30.0726 118.792 29.9423C118.854 29.8311 118.932 29.7288 119.022 29.638C119.244 29.4231 119.516 29.2663 119.815 29.1815C119.404 29.1011 119.021 28.9144 118.706 28.6405C118.564 28.5043 118.452 28.3397 118.379 28.1575C118.305 27.9753 118.272 27.7798 118.28 27.5838C118.283 27.3067 118.354 27.0347 118.488 26.7914C118.622 26.5482 118.814 26.3413 119.047 26.189C119.718 25.82 120.483 25.6554 121.247 25.7156C121.865 25.6943 122.483 25.7169 123.097 25.7832ZM121.392 28.6151V26.8061C121.267 26.7928 121.142 26.7928 121.017 26.8061C120.759 26.7917 120.505 26.8697 120.301 27.0259C120.211 27.1102 120.141 27.2129 120.095 27.3267C120.05 27.4406 120.03 27.5629 120.036 27.6852C120.033 27.8181 120.06 27.9499 120.114 28.0713C120.169 28.1926 120.25 28.3004 120.352 28.3869C120.574 28.5763 120.86 28.6759 121.153 28.6658C121.252 28.6647 121.35 28.6476 121.443 28.6151H121.392Z" fill="#EC6608"></path>
    <path d="M129.705 25.7156H134.386V27.1442H132.928V32.2163H131.163V27.1442H129.705V25.7156Z" fill="#EC6608"></path>
    <path d="M141.479 29.5873H138.376C138.362 29.7796 138.391 29.9725 138.458 30.1532C138.526 30.3339 138.631 30.4983 138.768 30.6355C139.044 30.8648 139.397 30.9825 139.757 30.9652C140.183 30.9623 140.607 30.891 141.01 30.7538L141.232 32.005C140.662 32.2136 140.057 32.3139 139.45 32.3008C139.064 32.3237 138.678 32.2596 138.32 32.1131C137.963 31.9667 137.644 31.7419 137.387 31.4555C136.871 30.773 136.617 29.931 136.67 29.0801C136.624 28.1762 136.885 27.2831 137.412 26.544C137.632 26.2414 137.924 25.9969 138.261 25.8318C138.598 25.6667 138.972 25.5862 139.348 25.5972C139.672 25.5888 139.992 25.662 140.28 25.8098C140.568 25.9576 140.813 26.1753 140.993 26.4426C141.417 27.1266 141.62 27.9233 141.573 28.725C141.56 29.0141 141.528 29.302 141.479 29.5873ZM138.376 28.3615H139.936C139.936 27.364 139.689 26.8652 139.194 26.8652C139.058 26.8707 138.927 26.9185 138.82 27.002C138.713 27.0855 138.635 27.2003 138.597 27.3302C138.453 27.6583 138.378 28.012 138.376 28.37V28.3615Z" fill="#EC6608"></path>
    <path d="M144.352 25.7156H149.246V32.2248H147.481V27.1527H146.117V32.2248H144.352V25.7156Z" fill="#EC6608"></path>
    <path d="M152.614 25.7156H156.988V32.2248H155.231V27.1527H154.251V28.5475C154.276 29.3505 154.187 30.1529 153.987 30.9314C153.904 31.1947 153.765 31.4373 153.58 31.643C153.395 31.8486 153.167 32.0124 152.912 32.1233C152.63 32.2572 152.321 32.3265 152.009 32.3262L151.727 30.9398C151.853 30.9083 151.971 30.8505 152.072 30.7703C152.173 30.6901 152.256 30.5894 152.316 30.4749C152.563 29.8636 152.665 29.2041 152.614 28.5475V25.7156Z" fill="#EC6608"></path>
    <path d="M162.368 25.5972C162.723 25.583 163.076 25.6576 163.395 25.8142C163.714 25.9708 163.988 26.2043 164.192 26.4933C164.67 27.223 164.9 28.0849 164.849 28.9533C164.866 29.5268 164.782 30.0989 164.601 30.644C164.5 30.9974 164.317 31.3226 164.066 31.594C163.816 31.8653 163.506 32.0755 163.161 32.2079C162.889 32.3128 162.599 32.3645 162.308 32.36C161.954 32.3775 161.6 32.3097 161.278 32.1625C160.956 32.0153 160.675 31.793 160.458 31.5147C159.966 30.7694 159.738 29.8833 159.81 28.9955C159.745 28.0896 160.008 27.1906 160.552 26.4595C160.766 26.1863 161.042 25.9663 161.357 25.8167C161.672 25.6671 162.018 25.5919 162.368 25.5972ZM162.368 26.9244C161.848 26.9244 161.583 27.6007 161.583 28.9533C161.583 30.3058 161.856 30.999 162.436 30.999C163.016 30.999 163.161 30.3227 163.161 28.9533C163.161 27.5838 162.828 26.9244 162.368 26.9244Z" fill="#EC6608"></path>
    <path d="M167.637 25.7155H169.188V27.1273C169.188 28.2347 169.137 29.2407 169.052 30.1198H169.095C169.248 29.6549 169.487 29.0124 169.819 28.2093L170.808 25.6733H172.513V32.1825H170.894V30.8046C170.894 30.1706 170.894 29.1984 171.013 27.8712C170.774 28.632 170.561 29.2491 170.365 29.7225C169.964 30.7369 169.606 31.5738 169.291 32.2586H167.654L167.637 25.7155Z" fill="#EC6608"></path>
    <path d="M176.009 29.4351V28.2854H176.563C176.831 28.2968 177.096 28.2259 177.322 28.0825C177.413 28.0202 177.487 27.9367 177.537 27.8394C177.588 27.7422 177.613 27.634 177.612 27.5246C177.615 27.4232 177.594 27.3226 177.549 27.2312C177.505 27.1399 177.438 27.0608 177.356 27.0005C177.155 26.8603 176.911 26.7918 176.666 26.8061C176.261 26.8124 175.865 26.92 175.515 27.1188L175.242 26.0368C175.852 25.7232 176.533 25.5717 177.22 25.5972C177.793 25.5581 178.361 25.7229 178.823 26.0622C179.002 26.2065 179.145 26.3899 179.241 26.5981C179.337 26.8063 179.384 27.0337 179.377 27.2626C179.383 27.4334 179.354 27.6036 179.292 27.7633C179.231 27.9229 179.138 28.0688 179.019 28.1924C178.751 28.4549 178.414 28.6366 178.047 28.7166C178.48 28.7661 178.885 28.9563 179.198 29.2576C179.339 29.3971 179.45 29.5633 179.524 29.7463C179.599 29.9293 179.636 30.1253 179.633 30.3227C179.644 30.6164 179.574 30.9075 179.432 31.165C179.289 31.4226 179.079 31.6369 178.823 31.7852C178.224 32.1502 177.53 32.3325 176.828 32.3093C176.216 32.3189 175.61 32.1917 175.054 31.9373L175.353 30.7792C175.755 30.9599 176.19 31.0549 176.631 31.0582C176.951 31.0817 177.269 30.9984 177.535 30.8215C177.627 30.7577 177.702 30.673 177.754 30.5744C177.806 30.4758 177.833 30.3663 177.834 30.2551C177.838 30.1281 177.808 30.0022 177.746 29.8907C177.685 29.7792 177.594 29.6861 177.484 29.6211C177.211 29.4706 176.901 29.3975 176.589 29.4097L176.009 29.4351Z" fill="#EC6608"></path>
    <path d="M184.663 25.5972C185.02 25.5831 185.374 25.6577 185.694 25.8143C186.014 25.9708 186.29 26.2042 186.496 26.4933C186.97 27.2247 187.199 28.0853 187.152 28.9532C187.165 29.5265 187.082 30.0979 186.905 30.6439C186.778 31.0428 186.556 31.4053 186.257 31.7006C186.024 31.9179 185.753 32.0899 185.456 32.2078C185.184 32.3128 184.895 32.3645 184.603 32.36C184.25 32.3775 183.898 32.3097 183.577 32.1625C183.257 32.0152 182.977 31.7929 182.762 31.5147C182.277 30.7879 182.043 29.9245 182.097 29.0547C182.033 28.1502 182.293 27.2525 182.83 26.5186C183.04 26.2323 183.316 25.9995 183.635 25.8393C183.953 25.6791 184.306 25.5962 184.663 25.5972ZM184.663 26.9244C184.143 26.9244 183.878 27.6007 183.878 28.9532C183.878 30.3058 184.151 30.999 184.688 30.999C185.226 30.999 185.413 30.3227 185.413 28.9532C185.413 27.5838 185.157 26.9244 184.654 26.9244H184.663Z" fill="#EC6608"></path>
    <path d="M190.247 25.7156H194.621V32.2248H192.865V27.1527H191.884V28.5475C191.907 29.3509 191.815 30.1534 191.611 30.9314C191.525 31.1979 191.381 31.4427 191.19 31.6485C190.998 31.8544 190.764 32.0164 190.503 32.1233C190.224 32.2579 189.918 32.3273 189.608 32.3262L189.327 30.9398C189.452 30.9083 189.57 30.8505 189.671 30.7703C189.773 30.6901 189.856 30.5894 189.915 30.4749C190.162 29.8636 190.264 29.2041 190.213 28.5475L190.247 25.7156Z" fill="#EC6608"></path>
    <path d="M202.32 25.7832V32.2248H200.615V29.6887H200.453C200.285 29.6779 200.119 29.7258 199.984 29.824C199.897 29.8719 199.821 29.9383 199.762 30.0184L199.592 30.2635C199.533 30.3747 199.485 30.4906 199.447 30.6101C199.402 30.726 199.365 30.8446 199.336 30.9652C199.336 31.0497 199.285 31.185 199.234 31.3794C199.183 31.5738 199.157 31.7006 199.131 31.7683C199.092 31.9342 199.029 32.0937 198.944 32.2417H197.119C197.26 32.0182 197.369 31.7763 197.443 31.5231L197.554 31.1681C197.605 30.9821 197.648 30.8384 197.682 30.7369C197.717 30.6049 197.759 30.475 197.81 30.3481C197.865 30.2082 197.931 30.0726 198.006 29.9423C198.072 29.833 198.149 29.731 198.236 29.638C198.458 29.4231 198.731 29.2663 199.029 29.1815C198.62 29.1028 198.24 28.9158 197.929 28.6405C197.784 28.506 197.67 28.3419 197.595 28.1595C197.52 27.977 197.485 27.7806 197.494 27.5838C197.497 27.3067 197.569 27.0346 197.702 26.7914C197.836 26.5482 198.028 26.3413 198.262 26.189C198.933 25.8219 199.697 25.6574 200.461 25.7156C201.082 25.6933 201.703 25.7159 202.32 25.7832ZM200.615 28.6151V26.8061C200.49 26.7924 200.364 26.7924 200.24 26.8061C199.982 26.7917 199.728 26.8697 199.524 27.0258C199.434 27.1102 199.364 27.2129 199.318 27.3267C199.273 27.4406 199.252 27.5629 199.259 27.6852C199.258 27.8178 199.285 27.9491 199.34 28.0702C199.394 28.1913 199.474 28.2993 199.575 28.3869C199.797 28.5763 200.083 28.6759 200.376 28.6658C200.466 28.6629 200.556 28.6458 200.64 28.6151H200.615Z" fill="#EC6608"></path>
    <path d="M205.381 25.7156H207.137V30.7877H208.501V25.7156H210.258V30.9483H210.863L210.795 34H209.473L209.38 32.1994H205.381V25.7156Z" fill="#EC6608"></path>
    <path d="M213.523 25.7155H215.109V27.1273C215.109 28.2347 215.058 29.2407 214.973 30.1198H215.015C215.16 29.6549 215.407 29.0124 215.74 28.2093L216.729 25.6733H218.391V32.1825H216.797V30.8046C216.797 30.1706 216.84 29.1984 216.916 27.8712H216.874C216.641 28.632 216.428 29.2491 216.234 29.7225C215.834 30.7369 215.476 31.5738 215.16 32.2586H213.523V25.7155Z" fill="#EC6608"></path>
    <path d="M226.073 25.7832V32.2248H224.368V29.6887H224.206C224.039 29.6779 223.873 29.7258 223.737 29.824C223.648 29.8696 223.572 29.9364 223.515 30.0184L223.345 30.2635C223.287 30.3747 223.238 30.4907 223.2 30.6101C223.155 30.726 223.118 30.8446 223.089 30.9652C223.089 31.0497 223.038 31.185 222.987 31.3794L222.885 31.7683C222.845 31.9342 222.782 32.0937 222.697 32.2417H220.872C221.01 32.0164 221.119 31.775 221.196 31.5231C221.196 31.4724 221.231 31.354 221.299 31.1681C221.367 30.9821 221.41 30.8384 221.427 30.7369C221.427 30.6355 221.503 30.5002 221.563 30.3481C221.618 30.2082 221.684 30.0726 221.759 29.9423C221.836 29.8093 221.934 29.6894 222.049 29.5873C222.271 29.3724 222.544 29.2156 222.842 29.1308C222.433 29.0521 222.053 28.8651 221.742 28.5898C221.597 28.4553 221.483 28.2912 221.408 28.1088C221.333 27.9263 221.298 27.7299 221.307 27.5331C221.31 27.256 221.382 26.9839 221.515 26.7407C221.649 26.4975 221.841 26.2906 222.075 26.1382C222.745 25.7703 223.51 25.6056 224.274 25.6648C224.876 25.6628 225.477 25.7023 226.073 25.7832ZM224.368 28.6151V26.8061C224.243 26.7928 224.118 26.7928 223.993 26.8061C223.735 26.7917 223.481 26.8697 223.277 27.0259C223.187 27.1102 223.117 27.2129 223.071 27.3267C223.026 27.4406 223.006 27.5629 223.012 27.6852C223.009 27.8181 223.036 27.9499 223.091 28.0713C223.145 28.1926 223.226 28.3004 223.328 28.3869C223.55 28.5763 223.836 28.6759 224.129 28.6658C224.22 28.6621 224.309 28.645 224.394 28.6151H224.368Z" fill="#EC6608"></path>
    <path d="M175.685 0C170.851 0 168.515 1.96967 167.475 4.67479H171.388C171.56 4.0658 171.932 3.53091 172.444 3.1544C172.957 2.77788 173.581 2.58116 174.219 2.59523C176.163 2.59523 177.296 4.1084 177.629 7.33764H171.917V9.87369H177.714C177.612 13.999 176.461 15.9179 174.304 15.9179C172.999 15.9179 171.942 15.2755 171.345 13.4833H167.423C168.387 16.366 170.732 18.5554 175.77 18.5554C181.696 18.5554 184.68 14.0413 184.68 9.30731C184.68 4.57334 181.619 0 175.685 0Z" fill="#EC6608"></path>
    <path d="M156.613 0.473394H151.702L144.224 18.0398H146.97L153.1 3.66882L158.77 16.2223C159.401 17.4142 160.91 18.0398 162.743 18.0398H166.537L159.077 1.56389C158.821 1.00596 158.002 0.473394 156.613 0.473394Z" fill="#EC6608"></path>
    <path d="M111.212 0C104.391 0 101.032 4.51417 101.032 9.23968C101.032 13.9652 104.443 18.4878 111.212 18.4878C117.982 18.4878 121.443 13.9906 121.443 9.29886C121.443 4.60716 118.033 0 111.212 0ZM111.212 15.8926C108.833 15.8926 107.623 13.7877 107.623 9.23968C107.623 4.6917 108.833 2.59523 111.212 2.59523C113.591 2.59523 114.793 4.6917 114.793 9.23968C114.793 13.7877 113.651 15.9095 111.263 15.9095L111.212 15.8926Z" fill="#EC6608"></path>
    <path d="M91.432 7.35454H86.828V0.48184H80.4762V18.0398H86.828V9.87368H91.432V18.0398H97.7838V0.48184H91.432V7.35454Z" fill="#EC6608"></path>
    <path d="M39.5262 0.48184V18.0398H45.878V2.99253H50.482V18.0398H56.8338V0.48184H39.5262Z" fill="#EC6608"></path>
    <path d="M61.4889 0.473389V13.999C61.4889 16.535 63.6034 18.006 66.6045 18.006H76.6224V15.4699H67.8322V9.86523H74.3716V7.32918H67.8322V2.99253H76.6054V0.456482L61.4889 0.473389Z" fill="#EC6608"></path>
    <path d="M124.76 0.48184V18.0398H131.112V2.99253H135.716V18.0398H142.067V0.48184H124.76Z" fill="#EC6608"></path>
    <path d="M219.491 15.9095C217.189 15.9095 216.021 13.8046 216.021 9.25658C216.021 4.7086 217.198 2.61213 219.491 2.61213C220.907 2.61213 221.947 3.35604 222.45 5.51168H226.508C225.656 2.40079 223.336 0.0169025 218.025 0.0169025C212.057 0.0169025 209.115 4.53107 209.115 9.25658C209.115 13.9821 212.099 18.5047 218.025 18.5047C223.336 18.5047 225.638 16.1124 226.508 13.0015H222.45C221.913 15.1656 220.872 15.9095 219.491 15.9095Z" fill="#EC6608"></path>
    <path d="M232.05 6.32322C231.467 6.32321 230.898 6.15209 230.413 5.83143C229.928 5.51078 229.55 5.05497 229.326 4.52149C229.102 3.98802 229.043 3.40079 229.155 2.83387C229.268 2.26696 229.547 1.74577 229.958 1.33605C230.369 0.926328 230.893 0.646433 231.464 0.531673C232.035 0.416912 232.628 0.472428 233.167 0.691218C233.706 0.910007 234.168 1.28227 234.495 1.76104C234.821 2.23981 234.997 2.80364 235 3.3814C235.002 3.76693 234.928 4.14909 234.78 4.50591C234.633 4.86273 234.416 5.18717 234.142 5.46057C233.868 5.73396 233.542 5.95092 233.183 6.09897C232.824 6.24701 232.439 6.32323 232.05 6.32322ZM232.05 0.955245C231.562 0.95358 231.084 1.09587 230.677 1.36406C230.27 1.63224 229.953 2.01421 229.766 2.46146C229.579 2.90871 229.53 3.40106 229.625 3.87598C229.721 4.3509 229.956 4.78697 230.302 5.1288C230.648 5.47064 231.089 5.70281 231.568 5.79585C232.047 5.88888 232.544 5.83858 232.994 5.65132C233.445 5.46407 233.829 5.14831 234.098 4.74415C234.367 4.33999 234.509 3.86566 234.505 3.3814C234.503 2.73717 234.243 2.12008 233.783 1.66533C233.323 1.21058 232.7 0.955241 232.05 0.955245ZM232.843 5.08055L231.99 3.76181H231.428V5.0721H230.916V1.6907H232.28C232.568 1.67688 232.85 1.77672 233.064 1.9684C233.278 2.16007 233.407 2.42798 233.423 2.71357C233.429 2.95375 233.345 3.18773 233.188 3.37037C233.03 3.55301 232.81 3.67138 232.57 3.70263L233.465 5.0721L232.843 5.08055ZM232.28 2.15564H231.428V3.31377H232.28C232.436 3.31842 232.587 3.26272 232.701 3.1585C232.816 3.05429 232.885 2.90981 232.894 2.75584C232.894 2.6763 232.878 2.59756 232.847 2.52419C232.816 2.45081 232.771 2.38427 232.714 2.32842C232.657 2.27257 232.589 2.22854 232.514 2.19888C232.44 2.16922 232.36 2.15452 232.28 2.15564Z" fill="#EC6608"></path>
    <path d="M199.515 5.91744L204.307 0.48184H200.939L194.246 8.08999V0.48184H187.945V18.0398H194.289V9.18895L199.882 15.7996C200.606 16.5707 201.494 17.1719 202.483 17.5595C203.471 17.947 204.534 18.1111 205.594 18.0398H209.857L199.515 5.91744Z" fill="#EC6608"></path>
</svg>