<svg width="14" height="14" viewBox="0 0 14 14" fill="none" xmlns="http://www.w3.org/2000/svg">
<path d="M11.0833 5.25016L11.8124 3.646L13.4166 2.91683L11.8124 2.18766L11.0833 0.583496L10.3541 2.18766L8.74992 2.91683L10.3541 3.646L11.0833 5.25016ZM11.0833 8.75016L10.3541 10.3543L8.74992 11.0835L10.3541 11.8127L11.0833 13.4168L11.8124 11.8127L13.4166 11.0835L11.8124 10.3543L11.0833 8.75016ZM6.70825 5.54183L5.24992 2.3335L3.79159 5.54183L0.583252 7.00016L3.79159 8.4585L5.24992 11.6668L6.70825 8.4585L9.91659 7.00016L6.70825 5.54183ZM5.82742 7.57766L5.24992 8.84933L4.67242 7.57766L3.40075 7.00016L4.67242 6.42266L5.24992 5.151L5.82742 6.42266L7.09909 7.00016L5.82742 7.57766Z" fill="white"/>
</svg>
