<svg width="24" height="24" viewBox="0 0 24 24" fill="none" xmlns="http://www.w3.org/2000/svg">
<path fill-rule="evenodd" clip-rule="evenodd" d="M12 18.0001C12.1989 18.0001 12.3896 17.9211 12.5303 17.7805C12.671 17.6398 12.75 17.449 12.75 17.2501V8.56062L15.969 11.7811C16.0387 11.8509 16.1215 11.9062 16.2126 11.9439C16.3037 11.9816 16.4014 12.0011 16.5 12.0011C16.5986 12.0011 16.6962 11.9816 16.7873 11.9439C16.8785 11.9062 16.9612 11.8509 17.031 11.7811C17.1007 11.7114 17.156 11.6286 17.1938 11.5375C17.2315 11.4464 17.2509 11.3487 17.2509 11.2501C17.2509 11.1515 17.2315 11.0539 17.1938 10.9627C17.156 10.8716 17.1007 10.7889 17.031 10.7191L12.531 6.21912C12.4613 6.14928 12.3785 6.09386 12.2874 6.05605C12.1963 6.01824 12.0986 5.99878 12 5.99878C11.9013 5.99878 11.8036 6.01824 11.7125 6.05605C11.6214 6.09386 11.5386 6.14928 11.469 6.21912L6.96897 10.7191C6.82814 10.86 6.74902 11.051 6.74902 11.2501C6.74902 11.4493 6.82814 11.6403 6.96897 11.7811C7.1098 11.922 7.30081 12.0011 7.49997 12.0011C7.69913 12.0011 7.89014 11.922 8.03097 11.7811L11.25 8.56062V17.2501C11.25 17.449 11.329 17.6398 11.4696 17.7805C11.6103 17.9211 11.8011 18.0001 12 18.0001Z" fill="black"/>
</svg>
