<svg width="16" height="16" viewBox="0 0 16 16" fill="none" xmlns="http://www.w3.org/2000/svg">
<path d="M12.6667 1.33203H6C5.26467 1.33203 4.66667 1.93003 4.66667 2.66536V6.66536H3.33333C2.598 6.66536 2 7.26336 2 7.9987V13.9987C2 14.1755 2.07024 14.3451 2.19526 14.4701C2.32029 14.5951 2.48986 14.6654 2.66667 14.6654H13.3333C13.5101 14.6654 13.6797 14.5951 13.8047 14.4701C13.9298 14.3451 14 14.1755 14 13.9987V2.66536C14 1.93003 13.402 1.33203 12.6667 1.33203ZM3.33333 7.9987H7.33333V13.332H3.33333V7.9987ZM12.6667 13.332H8.66667V7.9987C8.66667 7.26336 8.06867 6.66536 7.33333 6.66536H6V2.66536H12.6667V13.332Z" fill="#4A5568"/>
<path d="M7.33329 4H8.66663V5.33333H7.33329V4ZM9.99996 4H11.3333V5.33333H9.99996V4ZM9.99996 6.68733H11.3333V8H9.99996V6.68733ZM9.99996 9.33333H11.3333V10.6667H9.99996V9.33333ZM4.66663 9.334H5.99996V10.6673H4.66663V9.334Z" fill="#4A5568"/>
</svg>
