<svg width="33" height="34" viewBox="0 0 33 34" fill="none" xmlns="http://www.w3.org/2000/svg">
<path d="M10.3281 27.9982H30.0001C29.4021 27.6002 28.8861 26.8922 28.4401 25.9982C26.6401 22.3982 26.0001 15.7582 26.0001 13.9982C26.0001 13.4702 25.9601 12.9522 25.8801 12.4462L24.0041 14.3222C24.0441 15.7382 24.3181 18.6302 24.9181 21.4822C25.2401 23.0162 25.6721 24.6142 26.2441 25.9982H12.3281L10.3281 27.9982ZM21.4901 8.17816C20.406 7.15359 19.0562 6.45374 17.5941 6.15816L16.0001 5.83216L14.4061 6.15416C12.5977 6.52263 10.9722 7.50473 9.80478 8.93418C8.63739 10.3636 7.99985 12.1526 8.00011 13.9982C8.00011 15.2542 7.73211 18.3922 7.08211 21.4822C6.98211 21.9582 6.87211 22.4402 6.75011 22.9182L3.44411 26.2242C3.48411 26.1502 3.52411 26.0762 3.56211 25.9982C5.35811 22.3982 6.00011 15.7582 6.00011 13.9982C6.00011 9.15816 9.44011 5.11816 14.0101 4.19616C13.9822 3.91807 14.0129 3.63721 14.1002 3.37171C14.1875 3.1062 14.3295 2.86194 14.517 2.65468C14.7045 2.44741 14.9333 2.28175 15.1888 2.16837C15.4442 2.05499 15.7206 1.99641 16.0001 1.99641C16.2796 1.99641 16.556 2.05499 16.8115 2.16837C17.0669 2.28175 17.2958 2.44741 17.4833 2.65468C17.6708 2.86194 17.8127 3.1062 17.9 3.37171C17.9873 3.63721 18.018 3.91807 17.9901 4.19616C19.8741 4.57616 21.5661 5.48616 22.9041 6.76416L21.4901 8.17816ZM20.0001 29.9982C20.0001 31.059 19.5787 32.0764 18.8285 32.8266C18.0784 33.5767 17.061 33.9982 16.0001 33.9982C14.9392 33.9982 13.9218 33.5767 13.1717 32.8266C12.4215 32.0764 12.0001 31.059 12.0001 29.9982H20.0001ZM1.25011 31.2482C1.0512 31.4471 0.939453 31.7169 0.939453 31.9982C0.939453 32.2795 1.0512 32.5492 1.25011 32.7482C1.44903 32.9471 1.71881 33.0588 2.00011 33.0588C2.28142 33.0588 2.5512 32.9471 2.75011 32.7482L32.2501 3.24816C32.3486 3.14967 32.4267 3.03274 32.48 2.90406C32.5333 2.77537 32.5608 2.63745 32.5608 2.49816C32.5608 2.35887 32.5333 2.22095 32.48 2.09226C32.4267 1.96358 32.3486 1.84665 32.2501 1.74816C32.1516 1.64967 32.0347 1.57154 31.906 1.51824C31.7773 1.46493 31.6394 1.4375 31.5001 1.4375C31.3608 1.4375 31.2229 1.46493 31.0942 1.51824C30.9655 1.57154 30.8486 1.64967 30.7501 1.74816L1.25011 31.2482Z" fill="#FF7401"/>
</svg>
