<svg width="14" height="14" viewBox="0 0 14 14" fill="none" xmlns="http://www.w3.org/2000/svg">
<path fill-rule="evenodd" clip-rule="evenodd" d="M12.6004 9.1001V3.5001C12.6004 3.12879 12.4529 2.7727 12.1903 2.51015C11.9278 2.2476 11.5717 2.1001 11.2004 2.1001H2.80039C2.42909 2.1001 2.07299 2.2476 1.81044 2.51015C1.54789 2.7727 1.40039 3.12879 1.40039 3.5001V9.1001C1.40039 9.4714 1.54789 9.8275 1.81044 10.09C2.07299 10.3526 2.42909 10.5001 2.80039 10.5001H4.90039L7.00039 12.6001L9.10039 10.5001H11.2004C11.5717 10.5001 11.9278 10.3526 12.1903 10.09C12.4529 9.8275 12.6004 9.4714 12.6004 9.1001ZM3.50039 4.9001C3.50039 4.71445 3.57414 4.5364 3.70542 4.40512C3.83669 4.27385 4.01474 4.2001 4.20039 4.2001H9.80039C9.98604 4.2001 10.1641 4.27385 10.2954 4.40512C10.4266 4.5364 10.5004 4.71445 10.5004 4.9001C10.5004 5.08575 10.4266 5.2638 10.2954 5.39507C10.1641 5.52635 9.98604 5.6001 9.80039 5.6001H4.20039C4.01474 5.6001 3.83669 5.52635 3.70542 5.39507C3.57414 5.2638 3.50039 5.08575 3.50039 4.9001ZM4.20039 7.0001C4.01474 7.0001 3.83669 7.07385 3.70542 7.20512C3.57414 7.3364 3.50039 7.51445 3.50039 7.7001C3.50039 7.88575 3.57414 8.0638 3.70542 8.19507C3.83669 8.32635 4.01474 8.4001 4.20039 8.4001H6.30039C6.48604 8.4001 6.66409 8.32635 6.79537 8.19507C6.92664 8.0638 7.00039 7.88575 7.00039 7.7001C7.00039 7.51445 6.92664 7.3364 6.79537 7.20512C6.66409 7.07385 6.48604 7.0001 6.30039 7.0001H4.20039Z" fill="white"/>
</svg>
