<svg width="14" height="14" viewBox="0 0 14 14" fill="none" xmlns="http://www.w3.org/2000/svg">
<path d="M1.66634 2.99992H0.333008V12.3333C0.333008 13.0666 0.933008 13.6666 1.66634 13.6666H10.9997V12.3333H1.66634V2.99992ZM12.333 0.333252H4.33301C3.59967 0.333252 2.99967 0.933252 2.99967 1.66659V9.66659C2.99967 10.3999 3.59967 10.9999 4.33301 10.9999H12.333C13.0663 10.9999 13.6663 10.3999 13.6663 9.66659V1.66659C13.6663 0.933252 13.0663 0.333252 12.333 0.333252ZM8.33301 1.66659C9.43967 1.66659 10.333 2.55992 10.333 3.66659C10.333 4.77325 9.43967 5.66659 8.33301 5.66659C7.22634 5.66659 6.33301 4.77325 6.33301 3.66659C6.33301 2.55992 7.22634 1.66659 8.33301 1.66659ZM12.333 9.66659H4.33301V8.66659C4.33301 7.33992 6.99967 6.66659 8.33301 6.66659C9.66634 6.66659 12.333 7.33992 12.333 8.66659V9.66659Z" fill="#CBD5E0"/>
</svg>
