<svg width="32" height="32" viewBox="0 0 32 32" fill="none" xmlns="http://www.w3.org/2000/svg">
<path fill-rule="evenodd" clip-rule="evenodd" d="M16.0001 5.33464C13.1711 5.33464 10.458 6.45844 8.45761 8.45883C6.45722 10.4592 5.33341 13.1723 5.33341 16.0013V24.0013C5.33341 24.7377 4.73646 25.3346 4.00008 25.3346C3.2637 25.3346 2.66675 24.7377 2.66675 24.0013V16.0013C2.66675 12.4651 4.07151 9.0737 6.57199 6.57321C9.07248 4.07273 12.4639 2.66797 16.0001 2.66797C19.5363 2.66797 22.9277 4.07273 25.4282 6.57321C27.9287 9.0737 29.3334 12.4651 29.3334 16.0013V24.0013C29.3334 24.7377 28.7365 25.3346 28.0001 25.3346C27.2637 25.3346 26.6667 24.7377 26.6667 24.0013V16.0013C26.6667 13.1723 25.5429 10.4592 23.5426 8.45883C21.5422 6.45844 18.8291 5.33464 16.0001 5.33464Z" fill="#FF7401"/>
<path fill-rule="evenodd" clip-rule="evenodd" d="M2.66675 18.6654C2.66675 17.929 3.2637 17.332 4.00008 17.332H8.00008C9.06095 17.332 10.0784 17.7535 10.8285 18.5036C11.5787 19.2538 12.0001 20.2712 12.0001 21.332V25.332C12.0001 26.3929 11.5787 27.4103 10.8285 28.1605C10.0784 28.9106 9.06095 29.332 8.00008 29.332H6.66675C5.60588 29.332 4.58847 28.9106 3.83832 28.1605C3.08818 27.4103 2.66675 26.3929 2.66675 25.332V18.6654ZM5.33341 19.9987V25.332C5.33341 25.6857 5.47389 26.0248 5.72394 26.2748C5.97399 26.5249 6.31313 26.6654 6.66675 26.6654H8.00008C8.3537 26.6654 8.69284 26.5249 8.94289 26.2748C9.19294 26.0248 9.33342 25.6857 9.33342 25.332V21.332C9.33342 20.9784 9.19294 20.6393 8.94289 20.3892C8.69284 20.1392 8.3537 19.9987 8.00008 19.9987H5.33341ZM24.0001 19.9987C23.6465 19.9987 23.3073 20.1392 23.0573 20.3892C22.8072 20.6393 22.6667 20.9784 22.6667 21.332V25.332C22.6667 25.6857 22.8072 26.0248 23.0573 26.2748C23.3073 26.5249 23.6465 26.6654 24.0001 26.6654H25.3334C25.687 26.6654 26.0262 26.5249 26.2762 26.2748C26.5263 26.0248 26.6667 25.6857 26.6667 25.332V19.9987H24.0001ZM21.1717 18.5036C21.9218 17.7535 22.9392 17.332 24.0001 17.332H28.0001C28.7365 17.332 29.3334 17.929 29.3334 18.6654V25.332C29.3334 26.3929 28.912 27.4103 28.1618 28.1605C27.4117 28.9106 26.3943 29.332 25.3334 29.332H24.0001C22.9392 29.332 21.9218 28.9106 21.1717 28.1605C20.4215 27.4103 20.0001 26.3929 20.0001 25.332V21.332C20.0001 20.2712 20.4215 19.2537 21.1717 18.5036Z" fill="#FF7401"/>
</svg>
