<svg width="16" height="16" viewBox="0 0 16 16" fill="none" xmlns="http://www.w3.org/2000/svg">
<path d="M8.00039 9.5999C8.42474 9.5999 8.8317 9.43133 9.13176 9.13127C9.43182 8.83121 9.60039 8.42425 9.60039 7.9999C9.60039 7.57556 9.43182 7.16859 9.13176 6.86853C8.8317 6.56847 8.42474 6.3999 8.00039 6.3999C7.57604 6.3999 7.16908 6.56847 6.86902 6.86853C6.56896 7.16859 6.40039 7.57556 6.40039 7.9999C6.40039 8.42425 6.56896 8.83121 6.86902 9.13127C7.16908 9.43133 7.57604 9.5999 8.00039 9.5999Z" fill="#CBD5E0"/>
<path fill-rule="evenodd" clip-rule="evenodd" d="M0.366211 7.9999C1.38541 4.7543 4.41741 2.3999 7.99981 2.3999C11.5822 2.3999 14.6142 4.7543 15.6334 7.9999C14.6142 11.2455 11.5822 13.5999 7.99981 13.5999C4.41741 13.5999 1.38541 11.2455 0.366211 7.9999ZM11.1998 7.9999C11.1998 8.8486 10.8627 9.66253 10.2626 10.2626C9.66244 10.8628 8.8485 11.1999 7.99981 11.1999C7.15112 11.1999 6.33719 10.8628 5.73707 10.2626C5.13695 9.66253 4.79981 8.8486 4.79981 7.9999C4.79981 7.15121 5.13695 6.33728 5.73707 5.73716C6.33719 5.13704 7.15112 4.7999 7.99981 4.7999C8.8485 4.7999 9.66244 5.13704 10.2626 5.73716C10.8627 6.33728 11.1998 7.15121 11.1998 7.9999Z" fill="#CBD5E0"/>
</svg>
