<svg width="32" height="32" viewBox="0 0 32 32" fill="none" xmlns="http://www.w3.org/2000/svg">
<path fill-rule="evenodd" clip-rule="evenodd" d="M15.9999 3.9987C15.2927 3.9987 14.6144 4.27965 14.1143 4.77975C13.6142 5.27984 13.3333 5.95812 13.3333 6.66536V14.6654C13.3333 15.3726 13.6142 16.0509 14.1143 16.551C14.6144 17.0511 15.2927 17.332 15.9999 17.332C16.7072 17.332 17.3854 17.0511 17.8855 16.551C18.3856 16.0509 18.6666 15.3726 18.6666 14.6654V6.66536C18.6666 5.95812 18.3856 5.27984 17.8855 4.77975C17.3854 4.27965 16.7072 3.9987 15.9999 3.9987ZM15.9999 19.9987C14.5854 19.9987 13.2289 19.4368 12.2287 18.4366C11.2285 17.4364 10.6666 16.0799 10.6666 14.6654V6.66536C10.6666 5.25088 11.2285 3.89432 12.2287 2.89413C13.2289 1.89393 14.5854 1.33203 15.9999 1.33203C17.4144 1.33203 18.771 1.89393 19.7712 2.89413C20.7713 3.89432 21.3333 5.25088 21.3333 6.66536V14.6654C21.3333 16.0799 20.7713 17.4364 19.7712 18.4366C18.771 19.4368 17.4144 19.9987 15.9999 19.9987ZM6.66659 13.332C7.40296 13.332 7.99992 13.929 7.99992 14.6654C7.99992 16.7871 8.84277 18.8219 10.3431 20.3222C11.8434 21.8225 13.8782 22.6654 15.9999 22.6654C18.1216 22.6654 20.1565 21.8225 21.6568 20.3222C23.1571 18.8219 23.9999 16.7871 23.9999 14.6654C23.9999 13.929 24.5969 13.332 25.3333 13.332C26.0696 13.332 26.6666 13.929 26.6666 14.6654C26.6666 17.4943 25.5428 20.2074 23.5424 22.2078C21.8589 23.8913 19.6706 24.954 17.3333 25.2484V27.9987H21.3333C22.0696 27.9987 22.6666 28.5956 22.6666 29.332C22.6666 30.0684 22.0696 30.6654 21.3333 30.6654H10.6666C9.93021 30.6654 9.33325 30.0684 9.33325 29.332C9.33325 28.5956 9.93021 27.9987 10.6666 27.9987H14.6666V25.2484C12.3293 24.954 10.1409 23.8913 8.45745 22.2078C6.45706 20.2074 5.33325 17.4943 5.33325 14.6654C5.33325 13.929 5.93021 13.332 6.66659 13.332Z" fill="#FF7401"/>
</svg>
