<svg width="14" height="12" viewBox="0 0 14 12" fill="none" xmlns="http://www.w3.org/2000/svg">
<path d="M0 9.75C0 10.2141 0.184374 10.6592 0.512563 10.9874C0.840752 11.3156 1.28587 11.5 1.75 11.5H12.25C12.7141 11.5 13.1592 11.3156 13.4874 10.9874C13.8156 10.6592 14 10.2141 14 9.75V4.9375H0V9.75ZM2.0625 7.375C2.0625 7.12636 2.16127 6.8879 2.33709 6.71209C2.5129 6.53627 2.75136 6.4375 3 6.4375H4.5C4.74864 6.4375 4.9871 6.53627 5.16291 6.71209C5.33873 6.8879 5.4375 7.12636 5.4375 7.375V8C5.4375 8.24864 5.33873 8.4871 5.16291 8.66291C4.9871 8.83873 4.74864 8.9375 4.5 8.9375H3C2.75136 8.9375 2.5129 8.83873 2.33709 8.66291C2.16127 8.4871 2.0625 8.24864 2.0625 8V7.375ZM12.25 0.5H1.75C1.28587 0.5 0.840752 0.684375 0.512563 1.01256C0.184374 1.34075 0 1.78587 0 2.25V3.0625H14V2.25C14 1.78587 13.8156 1.34075 13.4874 1.01256C13.1592 0.684375 12.7141 0.5 12.25 0.5Z" fill="#CBD5E0"/>
</svg>
