<svg width="16" height="16" viewBox="0 0 16 16" fill="none" xmlns="http://www.w3.org/2000/svg">
<path fill-rule="evenodd" clip-rule="evenodd" d="M1 8C1 4.13417 4.13417 1 8 1C11.8658 1 15 4.13417 15 8C15 11.8658 11.8658 15 8 15C4.13417 15 1 11.8658 1 8ZM8 2C4.68645 2 2 4.68645 2 8C2 11.3135 4.68645 14 8 14C11.3135 14 14 11.3135 14 8C14 4.68645 11.3135 2 8 2Z" fill="#4A5568"/>
<path d="M13.924 5.37983C13.4222 5.38295 13.4715 6.30889 12.8462 5.87202C12.614 5.71014 12.4712 5.47483 12.1797 5.40327C11.925 5.34077 11.664 5.40577 11.4125 5.4492C11.1265 5.49858 10.7875 5.52077 10.5706 5.73733C10.3609 5.94577 10.25 6.22545 10.0269 6.43514C9.5953 6.84139 9.41311 7.28483 9.69248 7.8592C9.96123 8.41139 10.5234 8.71108 11.13 8.6717C11.7259 8.63202 12.345 8.28639 12.3278 9.15233C12.3215 9.45858 12.3856 9.67108 12.4797 9.95577C12.5669 10.2183 12.5609 10.4726 12.5809 10.7436C12.6178 11.2498 12.7109 11.8173 12.9622 12.2645L13.4309 11.6033C13.4887 11.5214 13.6097 11.4067 13.6384 11.3101C13.6894 11.1392 13.589 10.8455 13.5775 10.6539C13.5659 10.4623 13.5715 10.2683 13.5422 10.0767C13.5009 9.80827 13.3422 9.5567 13.3203 9.29139C13.28 8.79733 13.3703 8.40295 12.9897 7.98983C12.6222 7.59139 12.0834 7.49577 11.5687 7.5767C11.3094 7.61733 10.2653 7.7842 10.6844 7.19139C10.7672 7.07483 10.9119 6.9792 11.005 6.86827C11.0859 6.7717 11.1562 6.5942 11.2512 6.51889C11.3462 6.44358 11.7825 6.35702 11.9075 6.39545C12.0325 6.43389 12.1628 6.6142 12.2712 6.6942C12.4716 6.84511 12.7054 6.94545 12.9528 6.9867C13.3797 7.0492 14.2722 6.80108 14.2653 6.25358C14.264 5.99108 14.0203 5.62545 13.924 5.37983ZM8.9828 9.88483C8.81623 9.18358 7.86342 8.9492 7.34967 8.56889C7.05436 8.35014 6.79155 8.01233 6.40373 7.98483C6.22498 7.97202 6.0753 8.01077 5.89811 7.96483C5.73561 7.92295 5.60811 7.83545 5.43498 7.85827C5.11155 7.90077 4.90748 8.24639 4.55998 8.19952C4.2303 8.15514 3.89061 7.76952 3.81561 7.45545C3.71936 7.0517 4.03873 6.92077 4.38092 6.88483C4.52373 6.86983 4.68405 6.85358 4.82123 6.90577C5.00186 6.97295 5.08717 7.14983 5.24936 7.2392C5.55342 7.40577 5.61498 7.13952 5.56842 6.86952C5.49873 6.46514 5.41748 6.30014 5.77811 6.02202C6.02811 5.83014 6.24186 5.69139 6.20186 5.3467C6.17811 5.1442 6.06717 5.05264 6.17061 4.85108C6.24905 4.69764 6.46436 4.5592 6.60467 4.46764C6.96686 4.23139 8.15623 4.24889 7.6703 3.58764C7.52748 3.39358 7.26405 3.0467 7.01405 2.9992C6.70155 2.94014 6.5628 3.28889 6.34498 3.44264C6.11998 3.6017 5.68186 3.78233 5.45655 3.53639C5.15342 3.20545 5.65748 3.0967 5.76905 2.86577C5.88061 2.63483 5.51061 2.19827 5.31248 2.08764L4.38092 3.13233C4.35416 3.30728 4.36348 3.48587 4.4083 3.65709C4.45312 3.82831 4.5325 3.98855 4.64155 4.12795C4.82686 4.36639 5.12186 4.44295 5.1353 4.76858C5.14842 5.08108 5.09967 5.24108 4.8953 5.46077C4.80686 5.55452 4.74436 5.68764 4.65436 5.77545C4.54405 5.88264 4.58498 5.84983 4.4128 5.8792C4.08905 5.93389 3.81342 6.01827 3.50061 6.10452C2.97936 6.24858 2.93123 5.39702 2.69373 5.06295L1.91248 5.69389C1.90405 5.79733 2.04061 5.98764 2.0778 6.10014C2.29123 6.74295 2.72186 7.24014 2.99998 7.85514C3.2928 8.50639 4.07905 8.32577 4.42623 8.89639C4.73436 9.40264 4.4053 10.0436 4.63592 10.5736C4.80342 10.9583 5.19842 11.0423 5.47092 11.3236C5.74936 11.6076 5.74342 11.9964 5.78592 12.3661C5.83385 12.8009 5.91164 13.2319 6.01873 13.6561C6.05655 13.8026 6.09123 13.9964 6.19155 14.1173C6.2603 14.2005 6.49623 14.272 6.40092 14.2995C6.53405 14.3214 6.77123 14.4458 6.88217 14.3545C7.02842 14.2345 6.98936 13.8651 7.01467 13.6983C7.09061 13.2014 7.33936 12.7155 7.67498 12.3436C8.00655 11.9767 8.46092 11.7283 8.74092 11.3123C9.01373 10.9067 9.09592 10.3595 8.9828 9.88483ZM7.93936 10.7073C7.75186 11.042 7.33436 11.2661 7.06592 11.532C6.99311 11.6042 6.83811 11.8542 6.74686 11.8001C6.68155 11.7614 6.65936 11.437 6.6353 11.3626C6.51116 10.9881 6.27418 10.6612 5.95686 10.4267C5.85905 10.3526 5.61655 10.2564 5.56061 10.1548C5.49811 10.0445 5.55436 9.7842 5.55655 9.6642C5.55998 9.4892 5.4803 9.19827 5.52342 9.0392C5.57342 8.85577 5.47717 8.96639 5.64123 8.93014C5.7278 8.91077 6.0853 8.97358 6.19311 8.99608C6.36436 9.0317 6.45873 9.13827 6.59373 9.24608C6.94873 9.53077 7.33967 9.75108 7.73748 9.9692C8.04561 10.1398 8.13623 10.3558 7.93936 10.7073ZM5.76436 2.09702C5.91248 2.2417 6.05186 2.41295 6.2728 2.42733C6.48186 2.44139 6.67905 2.32827 6.86155 2.47045C7.06405 2.6267 7.20998 2.82452 7.47873 2.87327C7.73873 2.92045 8.01405 2.76858 8.07842 2.50264C8.14092 2.2492 8.00623 1.97358 7.99811 1.7192C7.99811 1.68389 8.01717 1.52702 7.9928 1.50045C7.97467 1.48045 7.82342 1.50295 7.8003 1.50358C7.63092 1.50858 7.46196 1.52025 7.29342 1.53858C6.67899 1.60508 6.07726 1.75925 5.50655 1.99639C5.58248 2.04889 5.6778 2.06983 5.76436 2.09702ZM11.1375 3.85264C11.4028 3.85264 11.6722 3.73389 11.5865 3.42702C11.5147 3.16983 11.3922 2.89077 11.094 3.02952C10.9044 3.11764 10.6356 3.34202 10.6134 3.56452C10.5881 3.81702 10.9606 3.85264 11.1375 3.85264ZM10.9256 5.19545C11.1965 5.35764 11.5984 5.28139 11.8028 5.04983C11.9625 4.86858 12.0565 4.55389 12.3437 4.5542C12.4702 4.55394 12.5916 4.60345 12.6819 4.69202C12.8006 4.81483 12.7772 4.93014 12.8025 5.08389C12.859 5.4292 13.2294 5.10358 13.3259 4.96983C13.3884 4.88264 13.4731 4.75327 13.4447 4.63983C13.4184 4.53389 13.2947 4.42108 13.2397 4.32389C13.079 4.04264 12.9469 3.71545 12.7062 3.48827C12.4747 3.26952 12.19 3.29483 11.9703 3.52202C11.7903 3.70952 11.5812 3.85795 11.4581 4.08608C11.3712 4.24639 11.2734 4.32295 11.0975 4.36452C11.0006 4.38733 10.89 4.39577 10.8087 4.46077C10.5825 4.63889 10.7112 5.0667 10.9256 5.19545Z" fill="#4A5568"/>
</svg>
