<svg width="22" height="12" viewBox="0 0 22 12" fill="none" xmlns="http://www.w3.org/2000/svg">
<path fill-rule="evenodd" clip-rule="evenodd" d="M5.75 2.625C4.85489 2.625 3.99645 2.98058 3.36351 3.61351C2.73058 4.24645 2.375 5.10489 2.375 6C2.375 6.89511 2.73058 7.75355 3.36351 8.38649C3.99645 9.01942 4.85489 9.375 5.75 9.375H9.53094V11.625H5.75C4.25816 11.625 2.82742 11.0324 1.77252 9.97748C0.717632 8.92258 0.125 7.49184 0.125 6C0.125 4.50816 0.717632 3.07742 1.77252 2.02252C2.82742 0.967632 4.25816 0.375 5.75 0.375H9.47234V2.625H5.75ZM12.5277 0.375H16.25C17.7418 0.375 19.1726 0.967632 20.2275 2.02252C21.2824 3.07742 21.875 4.50816 21.875 6C21.875 7.49184 21.2824 8.92258 20.2275 9.97748C19.1726 11.0324 17.7418 11.625 16.25 11.625H12.4691V9.375H16.25C17.1451 9.375 18.0036 9.01942 18.6365 8.38649C19.2694 7.75355 19.625 6.89511 19.625 6C19.625 5.10489 19.2694 4.24645 18.6365 3.61351C18.0036 2.98058 17.1451 2.625 16.25 2.625H12.5277V0.375ZM5.80016 4.875H16.2936V7.125H5.80016V4.875Z" fill="white"/>
</svg>
