<svg width="32" height="32" viewBox="0 0 32 32" fill="none" xmlns="http://www.w3.org/2000/svg">
<path d="M26.6667 5.33464H22.4401L20.0001 2.66797H12.0001L9.56008 5.33464H5.33341C3.86675 5.33464 2.66675 6.53464 2.66675 8.0013V24.0013C2.66675 25.468 3.86675 26.668 5.33341 26.668H26.6667C28.1334 26.668 29.3334 25.468 29.3334 24.0013V8.0013C29.3334 6.53464 28.1334 5.33464 26.6667 5.33464ZM26.6667 24.0013H5.33341V8.0013H10.7334L13.1734 5.33464H18.8267L21.2667 8.0013H26.6667V24.0013ZM16.0001 9.33464C12.3201 9.33464 9.33342 12.3213 9.33342 16.0013C9.33342 19.6813 12.3201 22.668 16.0001 22.668C19.6801 22.668 22.6667 19.6813 22.6667 16.0013C22.6667 12.3213 19.6801 9.33464 16.0001 9.33464ZM16.0001 20.0013C13.8001 20.0013 12.0001 18.2013 12.0001 16.0013C12.0001 13.8013 13.8001 12.0013 16.0001 12.0013C18.2001 12.0013 20.0001 13.8013 20.0001 16.0013C20.0001 18.2013 18.2001 20.0013 16.0001 20.0013Z" fill="#FF7401"/>
</svg>
