<svg width="16" height="16" viewBox="0 0 16 16" fill="none" xmlns="http://www.w3.org/2000/svg">
<path d="M0 0H16V16H0V0Z" fill="white"/>
<path d="M2.66634 3.99992H1.33301V13.3333C1.33301 14.0666 1.93301 14.6666 2.66634 14.6666H11.9997V13.3333H2.66634V3.99992ZM13.333 1.33325H5.33301C4.59967 1.33325 3.99967 1.93325 3.99967 2.66659V10.6666C3.99967 11.3999 4.59967 11.9999 5.33301 11.9999H13.333C14.0663 11.9999 14.6663 11.3999 14.6663 10.6666V2.66659C14.6663 1.93325 14.0663 1.33325 13.333 1.33325ZM9.33301 2.66659C10.4397 2.66659 11.333 3.55992 11.333 4.66659C11.333 5.77325 10.4397 6.66659 9.33301 6.66659C8.22634 6.66659 7.33301 5.77325 7.33301 4.66659C7.33301 3.55992 8.22634 2.66659 9.33301 2.66659ZM13.333 10.6666H5.33301V9.66659C5.33301 8.33992 7.99967 7.66659 9.33301 7.66659C10.6663 7.66659 13.333 8.33992 13.333 9.66659V10.6666Z" fill="#CBD5E0"/>
</svg>
