<svg width="12" height="11" viewBox="0 0 12 11" fill="none" xmlns="http://www.w3.org/2000/svg">
<path fill-rule="evenodd" clip-rule="evenodd" d="M11.6004 7.1001V1.5001C11.6004 1.12879 11.4529 0.772699 11.1903 0.510148C10.9278 0.247597 10.5717 0.100098 10.2004 0.100098H1.80039C1.42909 0.100098 1.07299 0.247597 0.810441 0.510148C0.54789 0.772699 0.400391 1.12879 0.400391 1.5001V7.1001C0.400391 7.4714 0.54789 7.8275 0.810441 8.09005C1.07299 8.3526 1.42909 8.5001 1.80039 8.5001H3.90039L6.00039 10.6001L8.10039 8.5001H10.2004C10.5717 8.5001 10.9278 8.3526 11.1903 8.09005C11.4529 7.8275 11.6004 7.4714 11.6004 7.1001ZM2.50039 2.9001C2.50039 2.71445 2.57414 2.5364 2.70542 2.40512C2.83669 2.27385 3.01474 2.2001 3.20039 2.2001H8.80039C8.98604 2.2001 9.16409 2.27385 9.29537 2.40512C9.42664 2.5364 9.50039 2.71445 9.50039 2.9001C9.50039 3.08575 9.42664 3.2638 9.29537 3.39507C9.16409 3.52635 8.98604 3.6001 8.80039 3.6001H3.20039C3.01474 3.6001 2.83669 3.52635 2.70542 3.39507C2.57414 3.2638 2.50039 3.08575 2.50039 2.9001ZM3.20039 5.0001C3.01474 5.0001 2.83669 5.07385 2.70542 5.20512C2.57414 5.3364 2.50039 5.51445 2.50039 5.7001C2.50039 5.88575 2.57414 6.0638 2.70542 6.19507C2.83669 6.32635 3.01474 6.4001 3.20039 6.4001H5.30039C5.48604 6.4001 5.66409 6.32635 5.79537 6.19507C5.92664 6.0638 6.00039 5.88575 6.00039 5.7001C6.00039 5.51445 5.92664 5.3364 5.79537 5.20512C5.66409 5.07385 5.48604 5.0001 5.30039 5.0001H3.20039Z" fill="white"/>
</svg>
