<svg width="80" height="80" viewBox="0 0 80 80" fill="none" xmlns="http://www.w3.org/2000/svg">
<path d="M29.8008 33.3335V50.4668C29.8008 53.1335 32.7341 54.7002 34.9674 53.2668L38.1008 51.2002C39.2341 50.4668 40.6674 50.4668 41.7674 51.2002L44.7341 53.2002C46.9341 54.6668 49.9008 53.1002 49.9008 50.4335V33.3335H29.8008Z" stroke="#12536D" stroke-width="2.5" stroke-miterlimit="10" stroke-linecap="round" stroke-linejoin="round"/>
<path d="M38.7999 16.6665H20.3999C19.2666 15.4331 19.2999 13.5331 20.4999 12.3331L25.2333 7.5998C26.4666 6.36647 28.4999 6.36647 29.7333 7.5998L38.7999 16.6665Z" stroke="#12536D" stroke-width="2.5" stroke-miterlimit="10" stroke-linecap="round" stroke-linejoin="round"/>
<path d="M59.566 16.6665H41.166L50.2327 7.5998C51.466 6.36647 53.4993 6.36647 54.7327 7.5998L59.466 12.3331C60.666 13.5331 60.6993 15.4331 59.566 16.6665Z" stroke="#12536D" stroke-width="2.5" stroke-miterlimit="10" stroke-linecap="round" stroke-linejoin="round"/>
<path d="M66.5658 33.3335H13.2324V60.0002C13.2324 70.0002 16.5658 73.3335 26.5658 73.3335H53.2324C63.2324 73.3335 66.5658 70.0002 66.5658 60.0002V33.3335Z" stroke="#12536D" stroke-width="2.5" stroke-miterlimit="10" stroke-linecap="round" stroke-linejoin="round"/>
<path d="M71.6673 23.3332V26.6665C71.6673 30.3332 69.9006 33.3332 65.0006 33.3332H15.0007C9.90065 33.3332 8.33398 30.3332 8.33398 26.6665V23.3332C8.33398 19.6665 9.90065 16.6665 15.0007 16.6665H65.0006C69.9006 16.6665 71.6673 19.6665 71.6673 23.3332Z" stroke="#12536D" stroke-width="2.5" stroke-miterlimit="10" stroke-linecap="round" stroke-linejoin="round"/>
</svg>
