<svg width="20" height="20" viewBox="0 0 20 20" fill="none" xmlns="http://www.w3.org/2000/svg">
<path fill-rule="evenodd" clip-rule="evenodd" d="M9.99984 3.33317C8.23173 3.33317 6.53603 4.03555 5.28579 5.28579C4.03555 6.53603 3.33317 8.23173 3.33317 9.99984C3.33317 10.8753 3.50561 11.7422 3.84064 12.5511C4.17567 13.3599 4.66673 14.0948 5.28579 14.7139C5.90485 15.3329 6.63978 15.824 7.44861 16.159C8.25745 16.4941 9.12436 16.6665 9.99984 16.6665C10.8753 16.6665 11.7422 16.4941 12.5511 16.159C13.3599 15.824 14.0948 15.3329 14.7139 14.7139C15.3329 14.0948 15.824 13.3599 16.159 12.5511C16.4941 11.7422 16.6665 10.8753 16.6665 9.99984C16.6665 8.23173 15.9641 6.53603 14.7139 5.28579C13.4636 4.03555 11.7679 3.33317 9.99984 3.33317ZM4.10728 4.10728C5.67008 2.54448 7.7897 1.6665 9.99984 1.6665C12.21 1.6665 14.3296 2.54448 15.8924 4.10728C17.4552 5.67008 18.3332 7.7897 18.3332 9.99984C18.3332 11.0942 18.1176 12.1778 17.6988 13.1889C17.28 14.1999 16.6662 15.1186 15.8924 15.8924C15.1186 16.6662 14.1999 17.28 13.1889 17.6988C12.1778 18.1176 11.0942 18.3332 9.99984 18.3332C8.90549 18.3332 7.82186 18.1176 6.81081 17.6988C5.79976 17.28 4.8811 16.6662 4.10728 15.8924C3.33346 15.1186 2.71963 14.1999 2.30084 13.1889C1.88205 12.1778 1.6665 11.0942 1.6665 9.99984C1.6665 7.7897 2.54448 5.67008 4.10728 4.10728ZM9.99984 6.6665C8.77325 6.6665 7.89307 7.25508 7.61033 7.85507C7.41414 8.2714 6.91759 8.44985 6.50127 8.25366C6.08494 8.05747 5.90649 7.56093 6.10268 7.1446C6.73493 5.80293 8.3231 4.99984 9.99984 4.99984C11.0835 4.99984 12.0964 5.32806 12.8572 5.89872C13.6183 6.46961 14.1665 7.3218 14.1665 8.33317C14.1665 10.0583 12.6376 11.2566 10.9854 11.574L10.9852 11.5741C10.9244 11.5857 10.8762 11.6158 10.8501 11.6434C10.8383 11.6558 10.8342 11.6643 10.8333 11.6665C10.8333 11.6666 10.8332 11.6667 10.8332 11.6668C10.833 12.1269 10.46 12.4998 9.99984 12.4998C9.5396 12.4998 9.1665 12.1267 9.1665 11.6665C9.1665 10.7135 9.9254 10.0804 10.6711 9.93727C11.8988 9.70133 12.4998 8.94137 12.4998 8.33317C12.4998 7.96371 12.3022 7.5659 11.8571 7.232C11.4116 6.89787 10.7579 6.6665 9.99984 6.6665ZM9.1665 14.1665C9.1665 13.7063 9.5396 13.3332 9.99984 13.3332H10.0082C10.4684 13.3332 10.8415 13.7063 10.8415 14.1665C10.8415 14.6267 10.4684 14.9998 10.0082 14.9998H9.99984C9.5396 14.9998 9.1665 14.6267 9.1665 14.1665Z" fill="#718096"/>
</svg>
