<svg width="25" height="24" viewBox="0 0 25 24" fill="none" xmlns="http://www.w3.org/2000/svg">
<path d="M9.27002 4C4.85002 4 1.27002 7.58 1.27002 12C1.27002 16.42 4.85002 20 9.27002 20C13.69 20 17.27 16.42 17.27 12C17.27 7.58 13.69 4 9.27002 4ZM9.27002 18C5.96002 18 3.27002 15.31 3.27002 12C3.27002 8.69 5.96002 6 9.27002 6C12.58 6 15.27 8.69 15.27 12C15.27 15.31 12.58 18 9.27002 18ZM12.27 10.5H10.27V15.5H8.27002V10.5H6.27002V9H12.27V10.5ZM20.52 3.75L23.27 5L20.52 6.25L19.27 9L18.02 6.25L15.27 5L18.02 3.75L19.27 1L20.52 3.75ZM20.52 17.75L23.27 19L20.52 20.25L19.27 23L18.02 20.25L15.27 19L18.02 17.75L19.27 15L20.52 17.75Z" fill="#4A5568"/>
</svg>
