<svg width="96" height="96" viewBox="0 0 96 96" fill="none" xmlns="http://www.w3.org/2000/svg">
<rect width="96" height="96" rx="48" fill="white"/>
<path d="M37.76 60.3002V56.1602" stroke="#11263A" stroke-width="2.5" stroke-linecap="round"/>
<path d="M48 60.2995V52.0195" stroke="#11263A" stroke-width="2.5" stroke-linecap="round"/>
<path d="M58.24 60.3004V47.8604" stroke="#11263A" stroke-width="2.5" stroke-linecap="round"/>
<path d="M58.24 35.7002L57.32 36.7802C52.22 42.7402 45.38 46.9602 37.76 48.8602" stroke="url(#paint0_linear_6469_9048)" stroke-width="2.5" stroke-linecap="round"/>
<path d="M52.38 35.7002H58.24V41.5402" stroke="url(#paint1_linear_6469_9048)" stroke-width="2.5" stroke-linecap="round" stroke-linejoin="round"/>
<path d="M42 68H54C64 68 68 64 68 54V42C68 32 64 28 54 28H42C32 28 28 32 28 42V54C28 64 32 68 42 68Z" stroke="#11263A" stroke-width="2.5" stroke-linecap="round" stroke-linejoin="round"/>
<defs>
<linearGradient id="paint0_linear_6469_9048" x1="37.76" y1="33.2735" x2="65.6401" y2="36.9216" gradientUnits="userSpaceOnUse">
<stop stop-color="#003EB3"/>
<stop offset="1" stop-color="#4096FF"/>
</linearGradient>
<linearGradient id="paint1_linear_6469_9048" x1="52.38" y1="34.6233" x2="60.4367" y2="35.3031" gradientUnits="userSpaceOnUse">
<stop stop-color="#003EB3"/>
<stop offset="1" stop-color="#4096FF"/>
</linearGradient>
</defs>
</svg>
