<svg width="20" height="20" viewBox="0 0 20 20" fill="none" xmlns="http://www.w3.org/2000/svg">
<g opacity="0.3">
<path fill-rule="evenodd" clip-rule="evenodd" d="M2.59813 10.3892C2.46729 10.1467 2.46729 9.85258 2.59813 9.61008C4.17479 6.69425 7.08729 4.16675 9.99979 4.16675C12.9123 4.16675 15.8248 6.69425 17.4015 9.61091C17.5323 9.85341 17.5323 10.1476 17.4015 10.3901C15.8248 13.3059 12.9123 15.8334 9.99979 15.8334C7.08729 15.8334 4.17479 13.3059 2.59813 10.3892Z" stroke="#11263A" stroke-width="1.5" stroke-linecap="round" stroke-linejoin="round"/>
<path d="M11.7678 8.23223C12.7441 9.20854 12.7441 10.7915 11.7678 11.7678C10.7915 12.7441 9.20854 12.7441 8.23223 11.7678C7.25592 10.7915 7.25592 9.20854 8.23223 8.23223C9.20854 7.25592 10.7915 7.25592 11.7678 8.23223" stroke="#11263A" stroke-width="1.4286" stroke-linecap="round" stroke-linejoin="round"/>
</g>
</svg>
