<svg width="80" height="80" viewBox="0 0 80 80" fill="none" xmlns="http://www.w3.org/2000/svg">
<path d="M35.8334 56.2002V62.967C35.8334 68.7003 30.5001 73.3336 23.9334 73.3336C17.3667 73.3336 12 68.7003 12 62.967V56.2002C12 61.9335 17.3334 66.0002 23.9334 66.0002C30.5001 66.0002 35.8334 61.9002 35.8334 56.2002Z" stroke="#12536D" stroke-width="2.5" stroke-linecap="round" stroke-linejoin="round"/>
<path d="M35.8334 47.0334C35.8334 48.7001 35.3667 50.2334 34.5667 51.5667C32.6 54.8001 28.5666 56.8335 23.9 56.8335C19.2333 56.8335 15.1999 54.7667 13.2333 51.5667C12.4333 50.2334 11.9668 48.7001 11.9668 47.0334C11.9668 44.1668 13.3001 41.6001 15.4334 39.7334C17.6001 37.8334 20.5666 36.7002 23.8666 36.7002C27.1666 36.7002 30.1334 37.8668 32.3 39.7334C34.5 41.5668 35.8334 44.1668 35.8334 47.0334Z" stroke="#12536D" stroke-width="2.5" stroke-linecap="round" stroke-linejoin="round"/>
<path d="M35.8334 47.0334V56.2C35.8334 61.9334 30.5001 66 23.9334 66C17.3667 66 12 61.9 12 56.2V47.0334C12 41.3 17.3334 36.6667 23.9334 36.6667C27.2334 36.6667 30.2002 37.8333 32.3668 39.7C34.5002 41.5667 35.8334 44.1667 35.8334 47.0334Z" stroke="#12536D" stroke-width="2.5" stroke-linecap="round" stroke-linejoin="round"/>
<path d="M73.3334 36.5666V43.4335C73.3334 45.2668 71.8667 46.7667 70.0001 46.8333H63.4667C59.8667 46.8333 56.5667 44.2 56.2667 40.6C56.0667 38.5 56.8667 36.5333 58.2667 35.1667C59.5 33.9 61.2 33.1667 63.0667 33.1667H70.0001C71.8667 33.2334 73.3334 34.7333 73.3334 36.5666Z" stroke="#12536D" stroke-width="2.5" stroke-linecap="round" stroke-linejoin="round"/>
<path d="M6.66602 35.0001V28.3334C6.66602 19.2667 12.1327 12.9334 20.6327 11.8667C21.4994 11.7334 22.3993 11.6667 23.3327 11.6667H53.3327C54.1993 11.6667 55.0327 11.7 55.8327 11.8334C64.4327 12.8334 69.9993 19.2001 69.9993 28.3334V33.1668H63.066C61.1993 33.1668 59.4993 33.9 58.2659 35.1667C56.8659 36.5334 56.066 38.5001 56.266 40.6001C56.566 44.2001 59.8659 46.8334 63.4659 46.8334H69.9993V51.6667C69.9993 61.6668 63.3327 68.3334 53.3327 68.3334H44.9993" stroke="#12536D" stroke-width="2.5" stroke-linecap="round" stroke-linejoin="round"/>
</svg>
