<svg xmlns="http://www.w3.org/2000/svg" viewBox="0 0 90 25">
     <path d="M6.645.256H8.75v9.098H6.645V3.258l-4.54 6.096H0V.256h2.105V6.37L6.645.256zM19.415 7.34h1.556v2.014H9.915V7.341h.22c.146 0 .292-.007.438-.019a1.13 1.13 0 00.44-.164c.146-.098.268-.25.366-.458.098-.22.159-.519.183-.897.012-.22.018-.55.018-.989.013-.439.019-.921.019-1.446.012-.525.018-1.061.018-1.61a69.87 69.87 0 00.018-1.502h7.78v7.085zm-2.105 0V2.289h-3.661L13.612 4.1c0 .598-.012 1.105-.036 1.52a10.2 10.2 0 01-.11.97c-.049.28-.11.53-.183.75h4.027zM28.971.256h2.087v9.098h-2.087V8.036h-.091c-.305.464-.72.842-1.245 1.135-.513.293-1.129.44-1.849.44a4.3 4.3 0 01-3.204-1.3 4.678 4.678 0 01-.951-1.538 5.639 5.639 0 01-.33-1.959c0-.707.11-1.354.33-1.94a4.6 4.6 0 01.915-1.538 4.168 4.168 0 011.428-.988A4.613 4.613 0 0125.786 0c.708.012 1.324.159 1.849.44.525.28.94.64 1.245 1.08h.091V.255zm-2.764 7.34c.415 0 .787-.072 1.117-.219.341-.146.628-.348.86-.604.244-.256.433-.555.567-.897.135-.342.202-.702.202-1.08 0-.39-.067-.757-.201-1.098a2.537 2.537 0 00-.568-.879 2.435 2.435 0 00-.86-.604 2.722 2.722 0 00-1.117-.22c-.415 0-.793.074-1.135.22a2.626 2.626 0 00-.879.604 2.538 2.538 0 00-.567.879 2.977 2.977 0 00-.201 1.098c0 .39.067.757.2 1.098.135.342.324.641.568.897.244.244.537.44.88.586.34.147.72.22 1.134.22zM8.567 21.482H6.462v-7.066H2.105v7.066H0v-9.098h8.567v9.098zM15.813 12.127c.659 0 1.263.116 1.812.348.55.232 1.02.562 1.41.989.402.427.713.94.933 1.537.22.586.33 1.233.33 1.94 0 .709-.116 1.362-.348 1.96-.22.598-.531 1.11-.934 1.537a4.295 4.295 0 01-1.427.97 4.227 4.227 0 01-1.776.33c-.696 0-1.312-.146-1.85-.44a3.499 3.499 0 01-1.244-1.134h-.091V24H10.54V12.384h2.087v1.263h.091c.318-.44.739-.8 1.263-1.08.525-.28 1.135-.427 1.83-.44zm-.421 7.597c.415 0 .793-.073 1.135-.22a2.77 2.77 0 00.878-.585c.244-.256.434-.555.568-.897.134-.342.201-.708.201-1.098 0-.39-.067-.757-.201-1.099a2.539 2.539 0 00-.568-.878 2.626 2.626 0 00-.878-.604 2.853 2.853 0 00-1.135-.22c-.415 0-.793.073-1.135.22-.33.146-.617.347-.86.604a2.683 2.683 0 00-.55.878 2.977 2.977 0 00-.201 1.099c0 .378.067.738.201 1.08.135.341.318.64.55.897.243.256.53.457.86.604.341.146.72.22 1.135.22zM26.1 21.738c-.745 0-1.422-.122-2.032-.366a4.85 4.85 0 01-1.538-1.025 4.87 4.87 0 01-1.007-1.538 5.078 5.078 0 01-.348-1.885c0-.672.116-1.3.348-1.886a4.425 4.425 0 01.989-1.52c.44-.426.958-.762 1.556-1.006.61-.256 1.287-.385 2.032-.385.732 0 1.397.129 1.995.385a4.41 4.41 0 011.52 1.007c.427.427.756.933.988 1.52.232.585.348 1.213.348 1.885 0 .67-.116 1.3-.348 1.885a4.621 4.621 0 01-.989 1.538c-.427.427-.94.769-1.537 1.025-.586.244-1.245.366-1.977.366zm0-2.014a2.72 2.72 0 001.116-.22c.342-.146.629-.347.86-.603.245-.257.434-.55.568-.88.135-.34.202-.7.202-1.08 0-.39-.067-.75-.202-1.08a2.538 2.538 0 00-.567-.878 2.436 2.436 0 00-.86-.604 2.722 2.722 0 00-1.117-.22c-.427 0-.812.074-1.154.22a2.627 2.627 0 00-.878.604 2.54 2.54 0 00-.568.879c-.134.33-.201.69-.201 1.08 0 .378.067.738.201 1.08.135.342.324.64.568.897.244.244.537.44.878.586.354.146.739.22 1.154.22zM40.872 19.468h1.556v2.014H31.372v-2.014h.22c.146 0 .292-.006.439-.018.158-.025.305-.08.439-.165.146-.098.268-.25.366-.458.098-.22.159-.518.183-.897.012-.22.018-.549.018-.988a52.4 52.4 0 00.019-1.446 69.34 69.34 0 00.018-1.611c.012-.562.018-1.062.018-1.501h7.78v7.084zm-2.105 0v-5.052h-3.661l-.037 1.812c0 .598-.012 1.104-.036 1.52-.025.353-.061.677-.11.97-.049.28-.11.53-.183.75h4.027zM54.063 15.972c.598.048 1.074.256 1.428.622.354.366.531.879.531 1.538v3.35h-2.105v-2.856c0-.244-.073-.433-.22-.567-.146-.147-.348-.22-.604-.22h-2.325v3.643h-2.105v-3.643H46.32c-.537 0-.806.262-.806.787v2.856H43.41v-3.35c0-.66.171-1.172.513-1.538.354-.366.83-.574 1.428-.622l-2.105-3.588h2.27l2.068 3.57h1.08v-3.57h2.105v3.57h1.08l2.069-3.57h2.251l-2.105 3.588zM61.812 12.127c.756 0 1.434.14 2.032.421.61.281 1.116.672 1.519 1.172.415.488.72 1.074.915 1.757.195.672.256 1.398.183 2.179h-7.194c.085.586.354 1.086.805 1.5.464.404 1.056.617 1.776.642.513.012.977-.086 1.391-.293.415-.22.714-.513.897-.879h2.179a4.177 4.177 0 01-.66 1.318c-.28.39-.615.72-1.006.989-.39.256-.83.451-1.318.585-.476.147-.983.22-1.52.22-.744 0-1.409-.128-1.995-.384a4.343 4.343 0 01-1.483-1.044 4.729 4.729 0 01-.933-1.52 5.496 5.496 0 01-.311-1.848c0-.671.116-1.3.348-1.886a4.564 4.564 0 01.97-1.519c.415-.44.909-.781 1.483-1.025a4.744 4.744 0 011.922-.385zm-.037 1.94c-.635 0-1.172.172-1.61.514-.44.341-.727.793-.861 1.354h4.979c-.134-.574-.427-1.025-.879-1.354-.44-.342-.982-.513-1.629-.513zM74.356 15.972c.586.06 1.05.274 1.391.64.342.354.513.86.513 1.52v3.35h-2.106v-2.856c0-.244-.073-.433-.22-.567-.146-.147-.347-.22-.603-.22h-3.387v3.643H67.84v-9.098h2.105v3.57h2.142l2.032-3.57h2.288l-2.05 3.588zM85.439 14.416h-3.094v7.066H80.24v-7.066h-3.112v-2.032h8.31v2.032z"></path>
</svg>