<svg width="24" height="24" viewBox="0 0 24 24" fill="none" xmlns="http://www.w3.org/2000/svg">
<path d="M12.0039 0C6.99403 0 5.52883 0.00516967 5.24402 0.0288024C4.2159 0.114287 3.57615 0.276208 2.87917 0.623314C2.34204 0.890106 1.91843 1.19936 1.50035 1.63288C0.738959 2.42347 0.277507 3.3961 0.110461 4.55226C0.0292458 5.11354 0.00561946 5.22801 0.000820359 8.09496C-0.00102545 9.05061 0.000820359 10.3083 0.000820359 11.9953C0.000820359 17.0025 0.00635778 18.4666 0.0303533 18.7509C0.113415 19.7516 0.270308 20.3812 0.602553 21.0699C1.23751 22.3882 2.45021 23.3778 3.87886 23.7471C4.37354 23.8745 4.9199 23.9446 5.6213 23.9778C5.91848 23.9908 8.94744 24 11.9783 24C15.0091 24 18.0399 23.9963 18.3297 23.9815C19.1418 23.9433 19.6134 23.88 20.1349 23.7452C20.8433 23.5635 21.5035 23.2293 22.0693 22.7659C22.6352 22.3026 23.0932 21.7212 23.4112 21.0625C23.737 20.3905 23.9022 19.7369 23.9769 18.7884C23.9932 18.5816 24 15.2847 24 11.9922C24 8.69907 23.9926 5.40821 23.9764 5.20143C23.9007 4.23765 23.7355 3.5896 23.3992 2.90462C23.1232 2.34389 22.8168 1.92515 22.372 1.49699C21.5783 0.738524 20.6074 0.276947 19.4503 0.11004C18.8897 0.0289871 18.778 0.00498504 15.9096 0H12.0039Z" fill="url(#paint0_radial_7661_5535)"/>
<path d="M12.0039 0C6.99403 0 5.52883 0.00516967 5.24402 0.0288024C4.2159 0.114287 3.57615 0.276208 2.87917 0.623314C2.34204 0.890106 1.91843 1.19936 1.50035 1.63288C0.738959 2.42347 0.277507 3.3961 0.110461 4.55226C0.0292458 5.11354 0.00561946 5.22801 0.000820359 8.09496C-0.00102545 9.05061 0.000820359 10.3083 0.000820359 11.9953C0.000820359 17.0025 0.00635778 18.4666 0.0303533 18.7509C0.113415 19.7516 0.270308 20.3812 0.602553 21.0699C1.23751 22.3882 2.45021 23.3778 3.87886 23.7471C4.37354 23.8745 4.9199 23.9446 5.6213 23.9778C5.91848 23.9908 8.94744 24 11.9783 24C15.0091 24 18.0399 23.9963 18.3297 23.9815C19.1418 23.9433 19.6134 23.88 20.1349 23.7452C20.8433 23.5635 21.5035 23.2293 22.0693 22.7659C22.6352 22.3026 23.0932 21.7212 23.4112 21.0625C23.737 20.3905 23.9022 19.7369 23.9769 18.7884C23.9932 18.5816 24 15.2847 24 11.9922C24 8.69907 23.9926 5.40821 23.9764 5.20143C23.9007 4.23765 23.7355 3.5896 23.3992 2.90462C23.1232 2.34389 22.8168 1.92515 22.372 1.49699C21.5783 0.738524 20.6074 0.276947 19.4503 0.11004C18.8897 0.0289871 18.778 0.00498504 15.9096 0H12.0039Z" fill="url(#paint1_radial_7661_5535)"/>
<path d="M11.9991 3.13892C9.5929 3.13892 9.29093 3.14944 8.34588 3.19246C7.40267 3.23566 6.75885 3.38503 6.19551 3.60419C5.61279 3.83054 5.11848 4.13334 4.62602 4.62612C4.13319 5.11871 3.83048 5.61316 3.60345 6.19585C3.38379 6.75953 3.23428 7.40371 3.19183 8.3468C3.14975 9.29211 3.13867 9.59435 3.13867 12.0012C3.13867 14.4081 3.14938 14.7092 3.1922 15.6545C3.23558 16.598 3.3849 17.242 3.60382 17.8054C3.8303 18.3883 4.13301 18.8828 4.62565 19.3754C5.11793 19.8683 5.61224 20.1719 6.19459 20.3982C6.7583 20.6174 7.4023 20.7667 8.34532 20.8099C9.29038 20.853 9.59217 20.8635 11.9982 20.8635C14.4046 20.8635 14.7056 20.853 15.6507 20.8099C16.5939 20.7667 17.2384 20.6174 17.8021 20.3982C18.3847 20.1719 18.8782 19.8683 19.3705 19.3754C19.8633 18.8828 20.1661 18.3883 20.3931 17.8056C20.6109 17.242 20.7604 16.5978 20.8047 15.6547C20.8472 14.7094 20.8582 14.4081 20.8582 12.0012C20.8582 9.59435 20.8472 9.2923 20.8047 8.34699C20.7604 7.40352 20.6109 6.75953 20.3931 6.19604C20.1661 5.61316 19.8633 5.11871 19.3705 4.62612C18.8777 4.13315 18.3849 3.83036 17.8016 3.60419C17.2368 3.38503 16.5926 3.23566 15.6494 3.19246C14.7043 3.14944 14.4034 3.13892 11.9965 3.13892H11.9991ZM11.2043 4.73597C11.4402 4.7356 11.7034 4.73597 11.9991 4.73597C14.3647 4.73597 14.6451 4.74447 15.5792 4.78693C16.4431 4.82644 16.9119 4.97082 17.2242 5.09213C17.6377 5.25276 17.9324 5.44477 18.2424 5.75495C18.5525 6.06513 18.7444 6.36054 18.9054 6.77412C19.0266 7.08614 19.1712 7.5551 19.2105 8.41918C19.2529 9.35341 19.2622 9.63405 19.2622 11.9992C19.2622 14.3643 19.2529 14.6449 19.2105 15.5792C19.171 16.4432 19.0266 16.9122 18.9054 17.2242C18.7448 17.6378 18.5525 17.9323 18.2424 18.2423C17.9323 18.5525 17.6379 18.7445 17.2242 18.9051C16.9123 19.027 16.4431 19.171 15.5792 19.2105C14.6452 19.253 14.3647 19.2622 11.9991 19.2622C9.63333 19.2622 9.35295 19.253 8.41897 19.2105C7.55513 19.1706 7.0863 19.0262 6.7738 18.9049C6.36034 18.7443 6.06501 18.5523 5.75492 18.2421C5.44482 17.9319 5.25286 17.6372 5.0919 17.2235C4.97064 16.9115 4.82611 16.4425 4.78679 15.5784C4.74434 14.6442 4.73585 14.3636 4.73585 11.997C4.73585 9.63036 4.74434 9.35119 4.78679 8.41696C4.82629 7.55289 4.97064 7.08393 5.0919 6.77153C5.25249 6.35796 5.44482 6.06255 5.75492 5.75237C6.06501 5.44219 6.36034 5.25017 6.7738 5.08917C7.08611 4.96732 7.55513 4.8233 8.41897 4.78361C9.23629 4.74668 9.55303 4.7356 11.2043 4.73376V4.73597ZM16.7284 6.20748C16.5181 6.20748 16.3126 6.26986 16.1377 6.38674C15.9629 6.50361 15.8266 6.66972 15.7461 6.86407C15.6657 7.05841 15.6446 7.27226 15.6857 7.47857C15.7267 7.68487 15.828 7.87436 15.9768 8.02308C16.1255 8.17179 16.315 8.27305 16.5212 8.31404C16.7275 8.35504 16.9413 8.33392 17.1355 8.25337C17.3298 8.17283 17.4958 8.03646 17.6126 7.86152C17.7294 7.68659 17.7917 7.48094 17.7916 7.27059C17.7916 6.68346 17.3154 6.20711 16.7284 6.20711V6.20748ZM11.9991 7.45005C9.4864 7.45005 7.44918 9.48782 7.44918 12.0012C7.44918 14.5146 9.4864 16.5514 11.9991 16.5514C14.5118 16.5514 16.5485 14.5146 16.5485 12.0012C16.5485 9.48782 14.5116 7.45005 11.9989 7.45005H11.9991ZM11.9991 9.04711C13.6301 9.04711 14.9524 10.3696 14.9524 12.0012C14.9524 13.6326 13.6301 14.9553 11.9991 14.9553C10.368 14.9553 9.04581 13.6326 9.04581 12.0012C9.04581 10.3696 10.368 9.04711 11.9991 9.04711Z" fill="white"/>
<defs>
<radialGradient id="paint0_radial_7661_5535" cx="0" cy="0" r="1" gradientUnits="userSpaceOnUse" gradientTransform="translate(6.37503 25.8485) rotate(-90) scale(23.7858 22.1226)">
<stop stop-color="#FFDD55"/>
<stop offset="0.1" stop-color="#FFDD55"/>
<stop offset="0.5" stop-color="#FF543E"/>
<stop offset="1" stop-color="#C837AB"/>
</radialGradient>
<radialGradient id="paint1_radial_7661_5535" cx="0" cy="0" r="1" gradientUnits="userSpaceOnUse" gradientTransform="translate(-4.02013 1.72892) rotate(78.6806) scale(10.6323 43.827)">
<stop stop-color="#3771C8"/>
<stop offset="0.128" stop-color="#3771C8"/>
<stop offset="1" stop-color="#6600FF" stop-opacity="0"/>
</radialGradient>
</defs>
</svg>
