<?xml version="1.0" encoding="UTF-8"?> <svg xmlns="http://www.w3.org/2000/svg" width="147" height="48" viewBox="0 0 147 48" fill="none"> <g clip-path="url(#clip0_320_675)"> <path d="M32.0549 35.9813C32.0488 29.7382 31.4915 23.5078 30.3892 17.3627C25.7551 16.5282 21.0709 16.0013 16.3672 15.7856C17.1847 16.4123 17.913 17.1475 18.532 17.9708C19.4487 19.2113 20.1766 20.5808 20.6919 22.0347C21.1654 23.3335 21.5065 24.6768 21.7101 26.0442V26.0788C21.7941 26.6325 21.8188 26.9687 21.8188 26.9786C22.0066 28.9561 22.1648 31.1314 22.2241 33.4056C22.2587 34.9184 22.2538 36.3719 22.2241 37.7067C22.1595 39.864 21.9265 42.0129 21.5272 44.1338C21.4284 44.6282 21.3295 45.0533 21.2257 45.4488C21.1219 45.8444 21.0181 46.1954 20.9143 46.5167C20.7964 46.812 20.6627 47.1008 20.514 47.3819C23.9903 47.9816 27.5547 47.8299 30.9675 46.937C31.7114 43.3331 32.0759 39.6612 32.0549 35.9813Z" fill="#FF1493"></path> <path d="M47.4232 12.0429C46.929 6.11023 46.0739 1.66075 46.0739 1.66075C46.0739 1.66075 16.8634 -4.02964 7.23035 5.61585C4.42976 8.40757 2.34244 11.8328 1.1449 15.602C-0.0526425 19.3711 -0.32519 23.3732 0.350307 27.27C0.630375 27.1194 0.919208 26.9856 1.21525 26.8695C1.53158 26.7657 1.88744 26.6619 2.2779 26.5581C2.66837 26.4542 3.1132 26.3504 3.59757 26.2565C5.7172 25.8522 7.8659 25.6191 10.0229 25.5594C11.3772 25.5034 12.8105 25.5034 14.3229 25.5594C16.982 25.6286 19.5472 25.8659 21.7367 26.0983C21.5306 24.7197 21.1879 23.365 20.7136 22.0542C19.9871 20.0767 18.702 17.5503 16.3889 15.8052C14.9061 15.7409 13.3344 15.7013 11.7923 15.7162C11.9406 15.4591 12.0988 15.2218 12.2866 14.9499C13.4748 13.2957 15.0913 11.9967 16.9622 11.1925C17.2917 11.0904 17.6476 10.9865 18.0298 10.8811C18.4302 10.7772 18.8651 10.6784 19.3446 10.5795C22.8611 9.94817 26.4358 9.70117 30.0056 9.84285C32.0519 9.89723 35.6056 10.184 37.3898 10.3372" fill="#0F97FF"></path> <path d="M68.1672 1.77002H71.627V22.7419H68.1672V13.6749H59.1668V22.7419H55.707V1.77002H59.1668V10.3822H68.1623L68.1672 1.77002Z" fill="#231F20"></path> <path d="M87.7758 22.742L83.3275 15.0938H79.2449V22.742H75.7852V1.77009H84.1875C85.0746 1.76616 85.9536 1.93803 86.774 2.27578C87.5943 2.61352 88.3396 3.11046 88.9668 3.73789C89.5941 4.36531 90.0909 5.11081 90.4285 5.93133C90.7662 6.75186 90.938 7.63115 90.9341 8.51846C90.9516 9.82987 90.5593 11.114 89.8121 12.1918C89.0694 13.278 88.0197 14.1181 86.7972 14.6044L91.5519 22.742H87.7758ZM79.2598 5.00832V12.0286H84.2023C84.6424 12.0345 85.0786 11.9462 85.4818 11.7697C85.885 11.5932 86.2459 11.3325 86.5402 11.0052C87.1577 10.3233 87.4997 9.43608 87.4997 8.51599C87.4997 7.5959 87.1577 6.70868 86.5402 6.02675C86.245 5.70084 85.8839 5.44147 85.4808 5.26588C85.0777 5.09028 84.6419 5.00249 84.2023 5.00832H79.2598Z" fill="#231F20"></path> <path d="M67.6878 47.6095L63.2395 39.9613H59.1668V47.6095H55.707V26.6178H64.1094C64.9968 26.6125 65.8765 26.7835 66.6974 27.1208C67.5183 27.4581 68.2641 27.955 68.8916 28.5826C69.5192 29.2103 70.0159 29.9564 70.3531 30.7775C70.6903 31.5986 70.8612 32.4785 70.856 33.3662C70.8633 34.6814 70.4589 35.9658 69.6994 37.0395C68.9585 38.1254 67.9104 38.9654 66.6894 39.4521L71.454 47.6095H67.6878ZM59.1668 29.856V36.8763H64.1094C64.5495 36.8828 64.986 36.7948 65.3893 36.6183C65.7926 36.4417 66.1533 36.1808 66.4472 35.8529C67.0647 35.171 67.4067 34.2838 67.4067 33.3637C67.4067 32.4436 67.0647 31.5564 66.4472 30.8745C66.1522 30.5483 65.7912 30.2888 65.3881 30.1131C64.9849 29.9375 64.549 29.8499 64.1094 29.856H59.1668Z" fill="#231F20"></path> <path d="M80.1895 47.9999C79.1496 48.0194 78.1167 47.8274 77.1532 47.4356C76.1898 47.0438 75.3159 46.4604 74.5846 45.7208C73.1065 44.2284 72.2773 42.2127 72.2773 40.112C72.2773 38.0113 73.1065 35.9955 74.5846 34.5031C76.0887 33.044 78.1016 32.228 80.1969 32.228C82.2921 32.228 84.3051 33.044 85.8091 34.5031C86.9145 35.6114 87.6662 37.0229 87.9691 38.5587C88.272 40.0946 88.1125 41.6858 87.5108 43.131C86.9091 44.5761 85.8922 45.8102 84.5889 46.6769C83.2856 47.5436 81.7545 48.0041 80.1895 47.9999ZM76.8631 43.5059C77.7542 44.3715 78.9474 44.8557 80.1895 44.8557C81.4315 44.8557 82.6247 44.3715 83.5158 43.5059C84.3791 42.5888 84.8598 41.3766 84.8598 40.1169C84.8598 38.8572 84.3791 37.645 83.5158 36.7279C82.6247 35.8623 81.4315 35.3781 80.1895 35.3781C78.9474 35.3781 77.7542 35.8623 76.8631 36.7279C75.9998 37.645 75.5191 38.8572 75.5191 40.1169C75.5191 41.3766 75.9998 42.5888 76.8631 43.5059Z" fill="#231F20"></path> <path d="M98.1148 47.9998C97.0271 48.086 95.9333 47.9461 94.9022 47.5889C93.8711 47.2317 92.9251 46.665 92.1237 45.9244C91.3222 45.1837 90.6827 44.2852 90.2453 43.2853C89.8078 42.2854 89.582 41.2057 89.582 40.1143C89.582 39.0228 89.8078 37.9432 90.2453 36.9433C90.6827 35.9434 91.3222 35.0449 92.1237 34.3042C92.9251 33.5636 93.8711 32.9968 94.9022 32.6397C95.9333 32.2825 97.0271 32.1426 98.1148 32.2288C99.5146 32.2117 100.893 32.5739 102.103 33.2769C103.259 33.9318 104.198 34.9116 104.802 36.0949L102.015 37.7116C101.683 37.0038 101.143 36.414 100.467 36.0208C99.745 35.6004 98.9209 35.3866 98.0852 35.4028C97.4699 35.3863 96.8579 35.4978 96.2879 35.7301C95.7179 35.9624 95.2022 36.3106 94.7737 36.7525C93.9165 37.6609 93.4391 38.8627 93.4391 40.1118C93.4391 41.3609 93.9165 42.5627 94.7737 43.4712C95.2022 43.9131 95.7179 44.2612 96.2879 44.4935C96.8579 44.7258 97.4699 44.8373 98.0852 44.8208C98.9222 44.8318 99.7462 44.6129 100.467 44.188C101.154 43.7964 101.712 43.2142 102.074 42.5121L104.861 44.099C104.229 45.2897 103.273 46.277 102.103 46.9467C100.893 47.6513 99.515 48.0151 98.1148 47.9998Z" fill="#231F20"></path> <path d="M120.454 47.6093H116.584L110.44 40.6879V47.6093H107.203V26.6177H110.44V39.274L116.253 32.6294H120.207L113.614 39.976L120.454 47.6093Z" fill="#231F20"></path> <path d="M123.984 41.4939C124.173 42.5489 124.765 43.4888 125.635 44.1141C126.561 44.7455 127.664 45.0659 128.784 45.0287C130.504 45.0287 131.789 44.4108 132.649 43.1699L135.318 44.7321C133.838 46.9074 131.65 47.9967 128.754 48C126.312 48 124.335 47.2551 122.823 45.7654C122.081 45.0279 121.498 44.1458 121.111 43.1737C120.725 42.2016 120.542 41.1603 120.574 40.1145C120.547 39.0757 120.729 38.0421 121.111 37.0754C121.492 36.1088 122.064 35.2289 122.793 34.4884C123.535 33.7386 124.423 33.1507 125.403 32.7618C126.383 32.3729 127.433 32.1915 128.487 32.2291C129.502 32.1979 130.512 32.3878 131.446 32.7856C132.381 33.1834 133.218 33.7796 133.899 34.5329C135.303 36.0593 136.061 38.0705 136.015 40.1442C136.003 40.5963 135.961 41.0472 135.891 41.4939H123.984ZM123.955 38.8539H132.767C132.63 37.7761 132.09 36.7904 131.255 36.0952C130.465 35.4764 129.486 35.1482 128.482 35.1657C127.398 35.1282 126.336 35.4788 125.487 36.1545C124.669 36.8411 124.125 37.7993 123.955 38.8539Z" fill="#231F20"></path> <path d="M146.767 35.7342H143.05V42.9325C143.027 43.1718 143.052 43.4133 143.125 43.6426C143.197 43.8719 143.314 44.0843 143.47 44.2673C143.817 44.5601 144.257 44.7196 144.711 44.7172C145.264 44.7469 145.946 44.7419 146.767 44.7172V47.6242C144.296 47.9258 142.511 47.7083 141.429 46.9815C140.346 46.2548 139.813 44.9051 139.813 42.9473V35.7342H137.055V32.6295H139.813V29.3912L143.05 28.4321V32.6295H146.767V35.7342Z" fill="#231F20"></path> <path d="M47.422 12.0435C46.3939 11.7765 45.2818 11.5293 44.0857 11.3019C41.4415 10.8075 38.9455 10.501 37.3985 10.3428C37.6308 12.5131 37.8334 15.0543 37.8927 17.7289C38.0454 21.3171 37.8051 24.9113 37.176 28.4472C37.0821 28.9416 36.9783 29.3668 36.8745 29.7672C36.7708 30.1677 36.6719 30.5138 36.5681 30.8302C35.763 32.7023 34.4625 34.3193 32.8068 35.5071C32.5597 35.6751 32.3126 35.8284 32.0457 36.0014C32.0592 39.6854 31.6865 43.3607 30.9336 46.9669C35.1718 45.8625 39.0372 43.6433 42.1285 40.5399C48.02 34.632 48.1831 21.422 47.422 12.0435Z" fill="#FF8C00"></path> </g> <defs> <clipPath id="clip0_320_675"> <rect width="146.769" height="48" fill="white"></rect> </clipPath> </defs> </svg> 