<svg width="206" height="86" viewBox="0 0 206 86" fill="none" xmlns="http://www.w3.org/2000/svg">
<g clip-path="url(#clip0_195_363)">
<path d="M20.2852 56.5654H37.4161V0L20.2852 15.2194V56.5654Z" fill="#FFC050"/>
<path d="M40.0015 18.2747V56.5654H57.3237V33.3035L40.0015 18.2747Z" fill="#FFC050"/>
<path d="M84.1811 56.736H66.7192V33H84.1811V40.9343H74.6461V48.8326H84.1811V56.736Z" fill="#FFC050"/>
<path d="M134.531 56.736H125.819L124.795 54.4226L123.771 56.736H115.058L120.456 44.6799L115.224 33H123.905L124.795 34.9733L125.684 33H134.366L129.133 44.6799L134.531 56.736Z" fill="#FFC050"/>
<path d="M17.3016 56.5654H0V33.4786L17.3016 18.1304V56.5654ZM1.03416 55.535H16.2674V20.4282L1.03416 33.9423V55.535Z" fill="#FFC050"/>
<path d="M141.841 43.4841H148.94V44.7052H143.128V56.6067H141.836V43.4841H141.841Z" fill="#FFC050"/>
<path d="M152.813 63.9999H151.521V43.4841H152.813V45.7665C154.07 44.0611 155.88 43.1956 157.979 43.1956C161.95 43.1956 164.37 46.1529 164.37 49.95C164.37 53.809 161.919 56.9621 157.917 56.9621C154.659 56.9621 153.206 54.9012 152.819 54.2624V63.9999H152.813ZM163.016 49.9449C163.016 46.3435 160.627 44.4115 157.917 44.4115C155.337 44.4115 152.751 46.2456 152.751 49.8779C152.751 53.1598 154.561 55.7307 157.886 55.7307C161.211 55.7307 163.016 53.165 163.016 49.9449Z" fill="#FFC050"/>
<path d="M172.054 56.8282L165.792 43.4841H167.276L172.794 55.1589L177.602 43.4841H179.086L170.436 64.0051H168.952L172.054 56.8282Z" fill="#FFC050"/>
<path d="M181.672 43.4841H191.486V56.6067H190.193V44.7052H182.964V56.6067H181.672V43.4841Z" fill="#FFC050"/>
<path d="M196.135 43.4841H205.949V56.6067H204.656V44.7052H197.427V56.6067H196.135V43.4841Z" fill="#FFC050"/>
<path fill-rule="evenodd" clip-rule="evenodd" d="M113.997 40.9343V33H106.07H104.462H100.968L99.9678 35L98.9678 33H93.9631H86V56.7669H93.9631V40.9343L97.5 50L100 56.7669L102.5 50L106.07 40.9343V56.7669H113.997V40.9343Z" fill="#FFC050"/>
</g>
<path d="M60.9064 72.432C62.0264 72.432 62.8424 72.652 63.3544 73.092C63.8664 73.532 64.1224 74.152 64.1224 74.952C64.1224 75.304 64.0624 75.644 63.9424 75.972C63.8304 76.292 63.6424 76.58 63.3784 76.836C63.1144 77.092 62.7624 77.296 62.3224 77.448C61.8824 77.592 61.3424 77.664 60.7024 77.664H59.7184V81H58.6384V72.432H60.9064ZM60.8104 73.356H59.7184V76.74H60.5824C61.1264 76.74 61.5784 76.684 61.9384 76.572C62.2984 76.452 62.5664 76.264 62.7424 76.008C62.9184 75.752 63.0064 75.416 63.0064 75C63.0064 74.448 62.8304 74.036 62.4784 73.764C62.1264 73.492 61.5704 73.356 60.8104 73.356ZM70.692 81H65.904V72.432H70.692V73.38H66.984V76.056H70.476V76.992H66.984V80.052H70.692V81ZM82.676 81H72.572V72.432H73.652V80.04H77.072V72.432H78.152V80.04H81.584V72.432H82.676V81ZM89.8053 81H85.0173V72.432H89.8053V73.38H86.0973V76.056H89.5893V76.992H86.0973V80.052H89.8053V81ZM98.2372 81H97.1572V77.004H92.7652V81H91.6852V72.432H92.7652V76.056H97.1572V72.432H98.2372V81ZM100.592 72.432H101.6V77.136C101.6 77.336 101.596 77.556 101.588 77.796C101.588 78.028 101.584 78.26 101.576 78.492C101.568 78.724 101.556 78.932 101.54 79.116C101.532 79.292 101.524 79.428 101.516 79.524H101.564L106.28 72.432H107.48V81H106.472V76.344C106.472 76.128 106.476 75.896 106.484 75.648C106.492 75.392 106.5 75.148 106.508 74.916C106.524 74.676 106.536 74.464 106.544 74.28C106.552 74.096 106.56 73.96 106.568 73.872H106.52L101.792 81H100.592V72.432ZM114.579 81H109.791V72.432H114.579V73.38H110.871V76.056H114.363V76.992H110.871V80.052H114.579V81ZM124.95 81H120.162V72.432H124.95V73.38H121.242V76.056H124.734V76.992H121.242V80.052H124.95V81ZM130.502 73.26C130.046 73.26 129.634 73.34 129.266 73.5C128.898 73.652 128.586 73.88 128.33 74.184C128.074 74.48 127.878 74.844 127.742 75.276C127.606 75.7 127.538 76.18 127.538 76.716C127.538 77.42 127.646 78.032 127.862 78.552C128.086 79.072 128.414 79.472 128.846 79.752C129.286 80.032 129.834 80.172 130.49 80.172C130.866 80.172 131.222 80.14 131.558 80.076C131.894 80.012 132.222 79.932 132.542 79.836V80.772C132.222 80.892 131.89 80.98 131.546 81.036C131.21 81.092 130.806 81.12 130.334 81.12C129.462 81.12 128.734 80.94 128.15 80.58C127.566 80.22 127.126 79.708 126.83 79.044C126.542 78.38 126.398 77.6 126.398 76.704C126.398 76.056 126.486 75.464 126.662 74.928C126.846 74.392 127.11 73.928 127.454 73.536C127.806 73.144 128.238 72.844 128.75 72.636C129.262 72.42 129.85 72.312 130.514 72.312C130.954 72.312 131.378 72.356 131.786 72.444C132.194 72.532 132.558 72.656 132.878 72.816L132.446 73.728C132.182 73.608 131.886 73.5 131.558 73.404C131.238 73.308 130.886 73.26 130.502 73.26ZM137.124 81H136.044V73.38H133.368V72.432H139.788V73.38H137.124V81ZM141.08 81V72.432H142.16V76.056H143.768C144.568 76.056 145.204 76.164 145.676 76.38C146.148 76.596 146.488 76.888 146.696 77.256C146.904 77.624 147.008 78.036 147.008 78.492C147.008 78.996 146.892 79.436 146.66 79.812C146.436 80.188 146.096 80.48 145.64 80.688C145.184 80.896 144.604 81 143.9 81H141.08ZM143.792 80.076C144.488 80.076 145.012 79.948 145.364 79.692C145.716 79.428 145.892 79.028 145.892 78.492C145.892 78.124 145.804 77.832 145.628 77.616C145.46 77.392 145.208 77.232 144.872 77.136C144.544 77.04 144.132 76.992 143.636 76.992H142.16V80.076H143.792Z" fill="white"/>
<defs>
<clipPath id="clip0_195_363">
<rect width="205.949" height="64" fill="white"/>
</clipPath>
</defs>
</svg>
