<svg width="106" height="47" viewBox="0 0 106 47" fill="none" xmlns="http://www.w3.org/2000/svg">
<path d="M98.923 0.133547C98.1399 0.30224 97.9135 0.405331 97.5173 0.75209C96.7625 1.40812 96.5738 2.2141 96.6304 4.46335C96.6682 5.8129 96.7059 6.1128 96.8946 6.59076C97.1871 7.34051 97.7248 7.90282 98.3758 8.14649C99.1117 8.41828 100.593 8.55885 102.036 8.48388C104.593 8.36205 105.433 7.83722 105.867 6.08468C106.036 5.39116 106.046 2.73893 105.876 2.08289C105.584 0.986386 104.933 0.386587 103.725 0.133547C102.876 -0.0445194 99.7343 -0.0445194 98.923 0.133547Z" fill="#636C82"/>
<path d="M75.6477 4.465L71.6098 6.11445V8.95412V11.7938H68.7795H65.9492V15.3551V18.9164H68.7795H71.6098V27.2761C71.6098 32.2057 71.6476 36.1044 71.7042 36.7698C72.1853 42.2711 74.0533 44.9608 78.1195 45.9918C79.4403 46.3198 80.5347 46.4229 82.931 46.4135C85.3934 46.4135 86.6482 46.2917 88.8275 45.8512C89.9785 45.6262 91.9503 45.1108 92.1484 44.989C92.2239 44.9421 92.0352 43.9768 91.5352 41.7088C90.8559 38.7004 90.7993 38.5036 90.62 38.5505C88.3558 39.1784 87.0916 39.3752 85.1481 39.3752C82.4876 39.3846 81.2706 38.8504 80.5253 37.3509C79.8555 35.992 79.8649 36.2169 79.8649 27.1168V18.9633L85.5066 18.9352L91.1389 18.9164V15.3551V11.7938H85.4783H79.8177V7.2953C79.8177 4.82113 79.7894 2.79681 79.7517 2.80618C79.7045 2.80618 77.8648 3.55593 75.6477 4.465Z" fill="#636C82"/>
<path d="M12.8779 10.9594C8.95319 11.3155 4.73604 12.159 1.5095 13.2274L0.0471717 13.7147L0.0188687 29.6188L0 45.5322H4.10394H8.20788V32.271V19.0098L8.47204 18.9536C8.61356 18.9255 8.96263 18.8412 9.24566 18.7756C10.8778 18.3819 11.6325 18.3163 14.1515 18.307C16.9818 18.307 17.6045 18.4007 18.7649 18.9724C19.897 19.5347 20.7744 20.7062 21.1329 22.1494C21.548 23.827 21.5386 23.5833 21.5763 34.8296L21.6141 45.5322H25.7086H29.8125V34.8483C29.8125 23.2553 29.7937 22.7398 29.2842 20.2282C28.3219 15.4673 26.0105 12.712 22.0292 11.5592C20.2744 11.0531 19.2272 10.9313 16.4158 10.9032C14.9912 10.8844 13.3968 10.9126 12.8779 10.9594Z" fill="#636C82"/>
<path d="M46.5178 10.913C40.8289 11.4285 37.225 13.5934 35.1872 17.7451C33.9796 20.2005 33.3852 22.9371 33.2248 26.7233C32.9795 32.9182 33.9418 37.5385 36.1683 40.8468C36.8287 41.8214 38.3665 43.3303 39.376 43.977C42.9139 46.2637 48.0179 46.9666 54.6785 46.0856C57.2918 45.7389 61.4901 44.7829 61.4618 44.5393C61.4524 44.4924 61.1599 43.0398 60.8109 41.306L60.1693 38.1664L59.1221 38.4288C56.688 39.038 52.7728 39.5347 50.3953 39.5347C44.3668 39.5347 42.178 37.5853 41.8384 31.9154L41.7723 30.8189H52.7822H63.7827V28.251C63.7827 24.4741 63.5279 21.9156 62.9241 19.5726C61.575 14.39 58.7447 11.9158 53.2068 11.0817C52.2633 10.9411 47.5462 10.8193 46.5178 10.913ZM52.886 17.5483C55.3295 18.2137 56.4333 19.9756 56.6692 23.5838L56.7352 24.5397H49.584H42.4327L42.4988 23.8556C42.6026 22.7216 42.9988 21.1752 43.4045 20.3411C43.8102 19.4883 44.48 18.7198 45.1876 18.2699C45.7159 17.9325 46.8291 17.5483 47.6499 17.4265C48.6405 17.2765 52.2067 17.3609 52.886 17.5483Z" fill="#636C82"/>
<path d="M97.1641 28.6629V45.5322H101.268H105.372V28.6629V11.7935H101.268H97.1641V28.6629Z" fill="#636C82"/>
</svg>
